{"glyphs":{"0":{"ha":694,"x_min":43,"x_max":629,"o":"m 49 551 q 52 623 49 551 q 90 779 54 694 q 190 917 125 863 q 350 971 255 971 q 515 892 445 971 q 608 694 586 814 q 621 420 629 575 q 567 168 613 266 q 429 33 521 71 q 244 41 336 -5 q 114 163 152 87 q 60 323 76 239 q 49 551 43 407 m 163 583 q 155 509 163 583 q 174 317 146 434 q 263 152 201 201 q 391 133 326 103 q 486 252 456 163 q 515 448 515 342 q 507 640 515 553 q 458 798 499 727 q 350 871 418 868 q 231 803 282 873 q 163 583 179 732 z "},"1":{"ha":694,"x_min":125,"x_max":412,"o":"m 304 781 q 125 646 233 711 l 125 749 q 347 966 260 841 l 412 966 l 412 33 l 304 33 l 304 781 z "},"2":{"ha":694,"x_min":43,"x_max":613,"o":"m 65 54 q 141 201 71 136 q 320 404 212 266 q 461 618 429 543 q 486 749 494 694 q 434 838 477 803 q 334 868 391 873 q 225 825 277 863 q 146 711 174 787 l 43 727 q 155 909 87 852 q 315 971 222 966 q 412 968 369 977 q 502 930 456 960 q 578 841 548 901 q 600 697 608 781 q 515 496 591 613 q 222 130 439 380 l 613 130 l 613 33 l 65 33 l 65 54 z "},"3":{"ha":694,"x_min":54,"x_max":624,"o":"m 54 266 l 152 282 q 222 165 174 212 q 345 122 271 119 q 461 182 418 125 q 499 312 505 239 q 442 426 494 385 q 277 483 391 467 l 277 553 q 442 613 391 564 q 488 741 494 662 q 418 854 483 819 q 279 863 353 890 q 163 711 206 836 l 65 727 q 155 890 98 825 q 309 966 212 955 q 480 941 407 977 q 583 833 553 906 q 591 673 613 760 q 467 521 570 586 q 583 423 543 488 q 610 252 624 358 q 515 81 597 146 q 331 19 434 16 q 152 84 228 22 q 54 266 76 146 z "},"4":{"ha":694,"x_min":16,"x_max":667,"o":"m 434 239 l 16 239 l 16 331 l 456 966 l 537 966 l 537 331 l 667 331 l 667 239 l 537 239 l 537 33 l 434 33 l 434 239 m 434 331 l 434 760 l 130 331 l 434 331 z "},"5":{"ha":694,"x_min":22,"x_max":618,"o":"m 119 288 q 250 125 157 141 q 399 144 342 109 q 480 236 456 179 q 502 363 505 293 q 464 483 499 434 q 374 548 429 532 q 252 548 320 564 q 141 472 184 532 l 49 483 q 152 949 60 515 l 581 949 l 581 852 l 233 852 q 179 618 206 705 q 331 654 260 656 q 467 621 401 651 q 562 540 532 591 q 605 437 591 488 q 616 326 618 385 q 591 203 613 266 q 526 100 570 141 q 420 35 483 60 q 277 16 358 11 q 122 76 195 22 q 22 260 49 130 l 119 288 z "},"6":{"ha":694,"x_min":49,"x_max":662,"o":"m 54 350 q 57 389 54 350 q 84 483 60 429 q 157 618 109 537 l 380 966 l 505 966 l 277 608 q 510 597 423 646 q 627 486 597 548 q 659 350 656 423 q 637 206 662 277 q 551 79 613 136 q 377 16 488 22 q 187 57 266 11 q 79 187 109 103 q 54 350 49 271 m 222 171 q 247 145 222 171 q 353 114 271 119 q 488 168 434 109 q 543 342 543 228 q 475 499 543 456 q 323 532 407 543 q 201 450 239 521 q 168 301 163 380 q 222 171 174 222 z "},"7":{"ha":694,"x_min":60,"x_max":640,"o":"m 184 33 q 526 852 282 445 l 60 852 l 60 949 l 640 949 l 640 857 q 304 33 385 445 l 184 33 z "},"8":{"ha":694,"x_min":38,"x_max":624,"o":"m 38 298 q 38 331 38 298 q 71 426 38 363 q 179 526 103 488 q 92 610 114 564 q 68 716 71 656 q 84 819 65 776 q 141 901 103 863 q 225 952 179 939 q 326 966 271 966 q 423 955 380 966 q 515 909 467 944 q 586 808 564 873 q 583 656 608 743 q 456 521 559 570 q 586 437 548 494 q 624 298 624 380 q 600 168 624 217 q 545 87 575 119 q 464 35 515 54 q 334 16 412 16 q 198 35 255 16 q 103 92 141 54 q 52 182 65 130 q 38 298 38 233 m 149 304 q 148 271 149 304 q 171 190 146 239 q 260 127 195 141 q 396 130 326 114 q 494 206 467 146 q 513 326 521 266 q 445 426 505 385 q 315 461 385 467 q 198 412 244 456 q 149 304 152 369 m 168 727 q 168 700 168 727 q 206 624 168 673 q 326 575 244 575 q 448 624 407 575 q 486 741 488 673 q 437 841 483 808 q 312 868 391 873 q 201 822 233 863 q 168 727 168 781 z "},"9":{"ha":694,"x_min":16,"x_max":613,"o":"m 174 16 q 369 380 293 217 q 144 415 233 358 q 35 570 54 472 q 38 746 16 667 q 106 876 60 825 q 217 949 152 928 q 334 971 282 971 q 439 949 385 971 q 537 884 494 928 q 597 795 581 841 q 613 675 613 749 q 559 488 613 602 q 293 16 505 374 l 174 16 m 144 624 q 148 589 144 624 q 203 507 152 553 q 315 467 255 461 q 410 499 374 472 q 477 591 445 526 q 488 730 499 673 q 431 825 477 787 q 331 863 385 863 q 247 846 298 868 q 165 760 195 825 q 144 624 136 694 z "}," ":{"ha":694,"x_min":0,"x_max":0,"o":""},"!":{"ha":694,"x_min":260,"x_max":412,"o":"m 260 1025 l 412 1025 l 374 304 l 298 304 l 260 1025 m 260 184 l 412 184 l 412 27 l 260 27 l 260 184 z "},"\"":{"ha":694,"x_min":174,"x_max":521,"o":"m 304 982 q 282 841 288 911 l 271 700 l 190 700 l 184 873 q 174 982 179 928 l 304 982 m 521 982 q 499 841 505 911 l 488 700 l 407 700 l 401 873 q 391 982 396 928 l 521 982 z "},"#":{"ha":694,"x_min":27,"x_max":651,"o":"m 651 277 l 488 277 l 456 27 l 369 27 l 401 277 l 222 277 l 190 27 l 103 27 l 136 277 l 27 277 l 27 380 l 146 380 l 179 608 l 27 608 l 27 711 l 190 711 l 222 955 l 309 955 l 277 711 l 456 711 l 488 955 l 575 955 l 543 711 l 651 711 l 651 608 l 532 608 l 499 380 l 651 380 l 651 277 m 445 608 l 266 608 l 233 380 l 412 380 l 445 608 z "},"$":{"ha":694,"x_min":71,"x_max":591,"o":"m 591 288 q 521 81 591 146 q 374 16 450 16 l 374 -119 l 298 -119 l 298 16 q 138 92 206 16 q 71 326 71 168 l 195 326 q 233 155 195 190 q 298 119 271 119 l 298 472 q 130 600 168 543 q 92 732 92 656 q 149 892 92 830 q 298 966 206 955 l 298 1069 l 374 1069 l 374 966 q 524 892 467 966 q 581 711 581 819 l 461 711 q 431 827 461 792 q 374 863 401 863 l 374 559 q 526 450 461 515 q 591 288 591 385 m 298 602 l 298 863 q 236 833 266 863 q 206 743 206 803 q 222 670 206 705 q 298 602 239 635 m 472 260 q 445 358 472 320 q 374 429 418 396 l 374 119 q 439 152 407 125 q 472 260 472 179 z "},"%":{"ha":694,"x_min":33,"x_max":646,"o":"m 304 722 q 258 521 304 564 q 168 477 212 477 q 79 521 125 477 q 33 722 33 564 q 79 922 33 879 q 168 966 125 966 q 258 922 212 966 q 304 722 304 879 m 570 949 l 152 16 l 109 33 l 526 966 l 570 949 m 646 260 q 600 60 646 103 q 510 16 553 16 q 420 60 467 16 q 374 260 374 103 q 420 461 374 418 q 510 505 467 505 q 600 461 553 505 q 646 260 646 418 m 217 722 q 206 852 217 819 q 168 884 195 884 q 130 852 141 884 q 119 722 119 819 q 130 591 119 624 q 168 559 141 559 q 206 591 195 559 q 217 722 217 624 m 559 260 q 548 391 559 358 q 510 423 537 423 q 472 391 483 423 q 461 260 461 358 q 472 130 461 163 q 510 98 483 98 q 548 130 537 98 q 559 260 559 163 z "},"&":{"ha":694,"x_min":33,"x_max":662,"o":"m 662 136 l 613 27 q 556 65 581 49 q 505 109 532 81 q 412 41 461 65 q 298 16 363 16 q 111 81 190 16 q 33 282 33 146 q 79 426 33 369 q 190 532 125 483 q 146 651 163 591 q 130 760 130 711 q 187 911 130 857 q 326 966 244 966 q 445 920 396 966 q 494 787 494 873 q 437 621 494 684 q 309 515 380 559 q 388 393 347 450 q 483 277 429 336 q 505 350 499 315 q 510 439 510 385 l 618 439 q 605 312 618 369 q 564 206 591 255 q 610 168 581 190 q 662 136 640 146 m 391 787 q 372 846 391 825 q 320 868 353 868 q 260 841 288 868 q 233 765 233 814 q 241 686 233 727 q 271 597 250 646 q 353 665 315 618 q 391 787 391 711 m 429 179 q 309 320 358 255 q 228 450 260 385 q 165 377 184 418 q 146 277 146 336 q 195 155 146 195 q 309 114 244 114 q 374 130 347 114 q 429 179 401 146 z "},"'":{"ha":694,"x_min":239,"x_max":369,"o":"m 369 966 q 347 825 353 895 l 336 684 l 255 684 l 250 857 q 239 966 244 911 l 369 966 z "},"(":{"ha":694,"x_min":315,"x_max":646,"o":"m 646 -43 l 586 -103 q 382 168 450 27 q 315 488 315 309 q 382 808 315 667 q 586 1085 450 949 l 646 1025 q 458 779 521 906 q 396 488 396 651 q 458 198 396 326 q 646 -43 521 71 z "},")":{"ha":694,"x_min":33,"x_max":363,"o":"m 363 488 q 296 168 363 309 q 92 -103 228 27 l 33 -43 q 220 198 157 71 q 282 488 282 326 q 220 779 282 651 q 33 1025 157 906 l 92 1085 q 296 808 228 949 q 363 488 363 667 z "},"*":{"ha":694,"x_min":27,"x_max":667,"o":"m 667 510 l 613 412 l 391 553 l 401 277 l 293 277 l 304 553 l 81 412 l 27 510 l 260 629 l 27 749 l 81 846 l 304 705 l 293 966 l 401 966 l 391 705 l 613 846 l 667 749 l 434 629 l 667 510 z "},"+":{"ha":694,"x_min":27,"x_max":651,"o":"m 651 461 l 385 461 l 385 195 l 293 195 l 293 461 l 27 461 l 27 548 l 293 548 l 293 814 l 385 814 l 385 548 l 651 548 l 651 461 z "},",":{"ha":694,"x_min":114,"x_max":239,"o":"m 239 27 l 168 -119 l 114 -119 l 168 27 l 114 27 l 114 146 l 239 146 l 239 27 z "},"-":{"ha":694,"x_min":27,"x_max":646,"o":"m 646 461 l 27 461 l 27 548 l 646 548 l 646 461 z "},".":{"ha":694,"x_min":109,"x_max":233,"o":"m 233 27 l 109 27 l 109 146 l 233 146 l 233 27 z "},"/":{"ha":694,"x_min":22,"x_max":651,"o":"m 651 987 l 76 -38 l 22 -5 l 597 1020 l 651 987 z "},":":{"ha":694,"x_min":271,"x_max":396,"o":"m 396 526 l 271 526 l 271 646 l 396 646 l 396 526 m 396 27 l 271 27 l 271 146 l 396 146 l 396 27 z "},";":{"ha":694,"x_min":271,"x_max":396,"o":"m 396 526 l 271 526 l 271 646 l 396 646 l 396 526 m 396 27 l 326 -119 l 271 -119 l 326 27 l 271 27 l 271 146 l 396 146 l 396 27 z "},"<":{"ha":694,"x_min":43,"x_max":640,"o":"m 640 54 l 591 -5 l 43 488 l 586 987 l 640 933 l 152 488 l 640 54 z "},"=":{"ha":694,"x_min":27,"x_max":646,"o":"m 646 629 l 27 629 l 27 716 l 646 716 l 646 629 m 646 298 l 27 298 l 27 385 l 646 385 l 646 298 z "},">":{"ha":694,"x_min":43,"x_max":640,"o":"m 640 488 l 92 -5 l 43 54 l 532 488 l 43 933 l 98 987 l 640 488 z "},"?":{"ha":694,"x_min":71,"x_max":591,"o":"m 591 732 q 559 602 591 662 q 472 499 526 543 q 396 412 418 456 q 374 353 374 369 l 374 315 l 277 315 l 277 369 q 301 464 277 418 q 385 564 326 510 q 445 643 429 602 q 461 722 461 684 q 429 827 461 792 q 336 863 396 863 q 236 817 277 863 q 195 667 195 770 l 71 667 q 152 892 76 819 q 336 966 228 966 q 524 901 456 966 q 591 732 591 836 m 385 27 l 266 27 l 266 157 l 385 157 l 385 27 z "},"@":{"ha":694,"x_min":27,"x_max":651,"o":"m 651 575 q 594 298 651 374 q 472 222 537 222 q 423 239 445 222 q 391 288 401 255 q 336 239 363 255 q 282 222 309 222 q 190 269 228 222 q 152 401 152 315 q 228 662 152 548 q 374 776 304 776 q 412 770 401 776 q 439 732 423 765 l 467 776 l 526 776 l 450 363 q 456 315 445 331 q 488 298 467 298 q 572 372 548 298 q 597 575 597 445 q 534 830 597 738 q 369 922 472 922 q 168 811 255 922 q 81 472 81 700 q 163 152 81 244 q 358 60 244 60 q 450 84 401 60 q 526 157 499 109 l 553 119 q 469 46 521 76 q 358 16 418 16 q 125 122 222 16 q 27 472 27 228 q 130 841 27 716 q 369 966 233 966 q 575 857 499 966 q 651 575 651 749 m 423 646 q 418 697 429 678 q 380 716 407 716 q 288 616 336 716 q 239 407 239 515 q 258 320 239 347 q 304 293 277 293 q 353 320 336 293 q 374 380 369 347 l 423 646 z "},"A":{"ha":694,"x_min":16,"x_max":667,"o":"m 667 27 l 537 27 l 461 315 l 222 315 l 146 27 l 16 27 l 288 966 l 396 966 l 667 27 m 434 418 l 347 749 l 336 749 l 250 418 l 434 418 z "},"B":{"ha":694,"x_min":60,"x_max":640,"o":"m 640 304 q 553 87 640 146 q 331 27 467 27 l 60 27 l 60 955 l 342 955 q 545 884 477 955 q 613 716 613 814 q 567 572 613 618 q 472 510 521 526 q 589 442 537 494 q 640 304 640 391 m 488 716 q 448 819 488 787 q 347 852 407 852 l 184 852 l 184 564 l 342 564 q 445 600 401 564 q 488 716 488 635 m 510 304 q 453 426 510 391 q 326 461 396 461 l 184 461 l 184 130 l 309 130 q 458 168 407 130 q 510 304 510 206 z "},"C":{"ha":694,"x_min":49,"x_max":646,"o":"m 646 396 q 559 103 640 190 q 363 16 477 16 q 141 122 233 16 q 49 461 49 228 q 138 841 49 716 q 369 966 228 966 q 567 876 488 966 q 640 624 646 787 l 521 624 q 483 803 521 743 q 369 863 445 863 q 231 773 282 863 q 179 472 179 684 q 231 198 179 277 q 363 119 282 119 q 472 176 423 119 q 521 396 521 233 l 646 396 z "},"D":{"ha":694,"x_min":60,"x_max":635,"o":"m 635 488 q 529 133 635 239 q 244 27 423 27 l 60 27 l 60 955 l 244 955 q 540 846 445 955 q 635 488 635 738 m 505 488 q 439 770 505 689 q 244 852 374 852 l 184 852 l 184 130 l 244 130 q 439 209 374 130 q 505 488 505 288 z "},"E":{"ha":694,"x_min":76,"x_max":629,"o":"m 629 27 l 76 27 l 76 955 l 602 955 l 602 852 l 201 852 l 201 564 l 570 564 l 570 461 l 201 461 l 201 130 l 629 130 l 629 27 z "},"F":{"ha":694,"x_min":65,"x_max":635,"o":"m 635 852 l 190 852 l 190 548 l 526 548 l 526 445 l 190 445 l 190 27 l 65 27 l 65 955 l 635 955 l 635 852 z "},"G":{"ha":694,"x_min":49,"x_max":618,"o":"m 618 16 l 526 16 l 510 92 q 442 38 488 60 q 342 16 396 16 q 138 122 228 16 q 49 461 49 228 q 130 841 49 716 q 353 966 212 966 q 548 873 477 966 q 618 635 618 781 l 499 635 q 461 806 499 749 q 353 863 423 863 q 222 773 266 863 q 179 472 179 684 q 233 195 179 271 q 358 119 288 119 q 469 171 429 119 q 510 331 510 222 l 510 391 l 342 391 l 342 494 l 618 494 l 618 16 z "},"H":{"ha":694,"x_min":60,"x_max":618,"o":"m 618 27 l 494 27 l 494 461 l 184 461 l 184 27 l 60 27 l 60 955 l 184 955 l 184 564 l 494 564 l 494 955 l 618 955 l 618 27 z "},"I":{"ha":694,"x_min":277,"x_max":401,"o":"m 401 27 l 277 27 l 277 955 l 401 955 l 401 27 z "},"J":{"ha":694,"x_min":71,"x_max":608,"o":"m 608 336 q 534 92 608 168 q 336 16 461 16 q 146 90 222 16 q 71 326 71 163 l 71 385 l 195 385 l 195 309 q 236 171 195 212 q 331 130 277 130 q 445 174 407 130 q 483 331 483 217 l 483 955 l 608 955 l 608 336 z "},"K":{"ha":694,"x_min":60,"x_max":662,"o":"m 662 27 l 521 27 l 271 488 l 184 374 l 184 27 l 60 27 l 60 955 l 184 955 l 184 553 l 494 955 l 640 955 l 353 591 l 662 27 z "},"L":{"ha":694,"x_min":65,"x_max":629,"o":"m 629 27 l 65 27 l 65 955 l 190 955 l 190 130 l 629 130 l 629 27 z "},"M":{"ha":694,"x_min":49,"x_max":635,"o":"m 635 27 l 526 27 l 526 689 l 515 689 l 385 27 l 298 27 l 168 689 l 157 689 l 157 27 l 49 27 l 49 955 l 217 955 l 336 342 l 347 342 l 467 955 l 635 955 l 635 27 z "},"N":{"ha":694,"x_min":54,"x_max":618,"o":"m 618 27 l 483 27 l 184 700 l 179 700 l 179 27 l 54 27 l 54 955 l 190 955 l 488 282 l 494 282 l 494 955 l 618 955 l 618 27 z "},"O":{"ha":694,"x_min":38,"x_max":640,"o":"m 640 494 q 562 127 640 239 q 342 16 483 16 q 119 127 201 16 q 38 494 38 239 q 119 857 38 749 q 342 966 201 966 q 562 857 483 966 q 640 494 640 749 m 510 494 q 461 792 510 722 q 342 863 412 863 q 220 792 271 863 q 168 494 168 722 q 220 193 168 266 q 342 119 271 119 q 461 193 412 119 q 510 494 510 266 z "},"P":{"ha":694,"x_min":71,"x_max":640,"o":"m 640 673 q 564 467 640 543 q 353 391 488 391 l 195 391 l 195 27 l 71 27 l 71 955 l 353 955 q 564 879 488 955 q 640 673 640 803 m 515 673 q 467 814 515 776 q 320 852 418 852 l 195 852 l 195 494 l 320 494 q 467 532 418 494 q 515 673 515 570 z "},"Q":{"ha":694,"x_min":38,"x_max":640,"o":"m 640 494 q 621 274 640 363 q 559 130 602 184 l 602 49 l 515 -43 l 467 49 q 412 24 445 33 q 342 16 380 16 q 119 127 201 16 q 38 494 38 239 q 119 857 38 749 q 342 966 201 966 q 562 857 483 966 q 640 494 640 749 m 510 494 q 461 792 510 722 q 342 863 412 863 q 220 792 271 863 q 168 494 168 722 q 220 193 168 266 q 342 119 271 119 q 391 127 369 119 q 423 146 412 136 l 336 315 l 412 407 l 488 260 q 505 358 499 315 q 510 494 510 401 z "},"R":{"ha":694,"x_min":60,"x_max":651,"o":"m 651 27 l 521 27 l 326 429 l 184 429 l 184 27 l 60 27 l 60 955 l 331 955 q 543 892 461 955 q 624 689 624 830 q 570 521 624 581 q 445 445 515 461 l 651 27 m 499 689 q 453 808 499 765 q 304 852 407 852 l 184 852 l 184 532 l 336 532 q 450 567 401 532 q 499 689 499 602 z "},"S":{"ha":694,"x_min":49,"x_max":629,"o":"m 629 288 q 551 90 629 163 q 336 16 472 16 q 125 92 201 16 q 49 282 49 168 l 49 320 l 174 320 l 174 288 q 222 163 174 206 q 336 119 271 119 q 464 165 423 119 q 505 277 505 212 q 456 377 505 331 q 315 461 407 423 q 127 570 184 510 q 71 711 71 629 q 149 895 71 825 q 336 966 228 966 q 540 882 477 966 q 602 700 602 798 l 477 700 q 445 808 483 760 q 336 857 407 857 q 233 822 271 857 q 195 727 195 787 q 225 643 195 678 q 380 559 255 608 q 564 442 499 510 q 629 288 629 374 z "},"T":{"ha":694,"x_min":60,"x_max":618,"o":"m 618 852 l 401 852 l 401 27 l 277 27 l 277 852 l 60 852 l 60 955 l 618 955 l 618 852 z "},"U":{"ha":694,"x_min":60,"x_max":624,"o":"m 624 298 q 556 92 624 168 q 342 16 488 16 q 127 92 195 16 q 60 298 60 168 l 60 955 l 184 955 l 184 298 q 228 163 184 206 q 342 119 271 119 q 456 163 412 119 q 499 298 499 206 l 499 955 l 624 955 l 624 298 z "},"V":{"ha":694,"x_min":11,"x_max":662,"o":"m 662 955 l 391 16 l 282 16 l 11 955 l 141 955 l 331 244 l 342 244 l 532 955 l 662 955 z "},"W":{"ha":694,"x_min":5,"x_max":667,"o":"m 667 955 l 548 16 l 439 16 l 342 711 l 331 711 l 233 16 l 125 16 l 5 955 l 125 955 l 184 363 l 195 363 l 277 955 l 396 955 l 477 363 l 488 363 l 548 955 l 667 955 z "},"X":{"ha":694,"x_min":22,"x_max":651,"o":"m 651 27 l 521 27 l 336 407 l 152 27 l 22 27 l 277 515 l 49 955 l 179 955 l 336 618 l 494 955 l 624 955 l 396 515 l 651 27 z "},"Y":{"ha":694,"x_min":22,"x_max":656,"o":"m 656 955 l 401 445 l 401 27 l 277 27 l 277 445 l 22 955 l 146 955 l 336 559 l 342 559 l 532 955 l 656 955 z "},"Z":{"ha":694,"x_min":49,"x_max":629,"o":"m 629 27 l 49 27 l 49 130 l 488 852 l 81 852 l 81 955 l 613 955 l 613 852 l 174 130 l 629 130 l 629 27 z "},"[":{"ha":694,"x_min":271,"x_max":613,"o":"m 613 -114 l 271 -114 l 271 1096 l 613 1096 l 613 1009 l 363 1009 l 363 -27 l 613 -27 l 613 -114 z "},"\\":{"ha":694,"x_min":71,"x_max":613,"o":"m 71 987 l 157 987 l 613 -141 l 526 -141 l 71 987 z "},"]":{"ha":694,"x_min":65,"x_max":407,"o":"m 407 -114 l 65 -114 l 65 -27 l 315 -27 l 315 1009 l 65 1009 l 65 1096 l 407 1096 l 407 -114 z "},"^":{"ha":694,"x_min":76,"x_max":597,"o":"m 597 895 l 499 895 l 336 1031 l 174 895 l 76 895 l 271 1118 l 401 1118 l 597 895 z "},"_":{"ha":694,"x_min":0,"x_max":684,"o":"m 684 -184 l 0 -184 l 0 -119 l 684 -119 l 684 -184 z "},"`":{"ha":694,"x_min":174,"x_max":494,"o":"m 494 868 l 401 868 l 174 1118 l 336 1118 l 494 868 z "},"a":{"ha":694,"x_min":60,"x_max":624,"o":"m 624 27 l 494 27 q 477 57 483 38 q 472 103 472 76 q 380 38 434 60 q 266 16 326 16 q 119 60 179 16 q 60 184 60 103 q 114 315 60 266 q 282 380 168 363 q 415 407 358 391 q 472 450 472 423 q 448 515 472 483 q 342 548 423 548 q 247 524 277 548 q 206 456 217 499 l 87 456 q 165 594 98 543 q 342 646 233 646 q 521 591 461 646 q 581 439 581 537 l 581 141 q 591 81 581 109 q 624 27 602 54 m 472 228 l 472 336 q 410 317 439 326 q 309 298 380 309 q 203 260 228 288 q 179 195 179 233 q 203 138 179 163 q 277 114 228 114 q 382 141 326 114 q 472 228 439 168 z "},"b":{"ha":694,"x_min":65,"x_max":613,"o":"m 613 331 q 537 95 613 174 q 353 16 461 16 q 250 38 293 16 q 174 109 206 60 l 174 27 l 65 27 l 65 955 l 174 955 l 174 553 q 250 627 206 602 q 353 651 293 651 q 537 570 461 651 q 613 331 613 488 m 494 331 q 453 494 494 434 q 331 553 412 553 q 220 494 266 553 q 174 331 174 434 q 220 171 174 228 q 331 114 266 114 q 453 171 412 114 q 494 331 494 228 z "},"c":{"ha":694,"x_min":49,"x_max":618,"o":"m 618 271 q 540 87 618 157 q 342 16 461 16 q 136 100 222 16 q 49 331 49 184 q 136 562 49 477 q 342 646 222 646 q 532 583 461 646 q 602 434 602 521 l 483 434 q 437 524 477 499 q 342 548 396 548 q 222 496 277 548 q 168 331 168 445 q 222 165 168 217 q 342 114 277 114 q 456 152 412 114 q 499 271 499 190 l 618 271 z "},"d":{"ha":694,"x_min":49,"x_max":597,"o":"m 597 27 l 488 27 l 488 109 q 412 38 456 60 q 309 16 369 16 q 125 95 201 16 q 49 331 49 174 q 125 570 49 488 q 309 651 201 651 q 412 627 369 651 q 488 553 456 602 l 488 955 l 597 955 l 597 27 m 488 331 q 442 494 488 434 q 331 553 396 553 q 209 494 250 553 q 168 331 168 434 q 209 171 168 228 q 331 114 250 114 q 442 171 396 114 q 488 331 488 228 z "},"e":{"ha":694,"x_min":54,"x_max":618,"o":"m 618 233 q 532 76 608 136 q 353 16 456 16 q 138 100 222 16 q 54 331 54 184 q 138 562 54 477 q 353 646 222 646 q 540 572 467 646 q 613 331 613 499 l 174 331 q 225 163 174 212 q 353 114 277 114 q 450 144 412 114 q 499 233 488 174 l 618 233 m 488 418 q 439 524 477 494 q 342 553 401 553 q 244 524 288 553 q 179 418 201 494 l 488 418 z "},"f":{"ha":694,"x_min":60,"x_max":618,"o":"m 618 830 q 553 857 591 846 q 456 868 515 868 q 374 838 396 868 q 353 765 353 808 l 353 635 l 575 635 l 575 548 l 353 548 l 353 27 l 244 27 l 244 548 l 60 548 l 60 635 l 244 635 l 244 760 q 304 911 244 857 q 461 966 363 966 q 556 958 521 966 q 618 939 591 949 l 618 830 z "},"g":{"ha":694,"x_min":54,"x_max":646,"o":"m 646 543 q 572 556 608 553 q 499 548 537 559 q 526 507 515 532 q 537 434 537 483 q 475 282 537 342 q 320 222 412 222 q 263 231 298 222 q 206 250 228 239 q 184 228 190 239 q 179 201 179 217 q 217 160 179 174 q 353 146 255 146 q 567 103 510 146 q 624 -5 624 60 q 540 -133 624 -92 q 342 -174 456 -174 q 125 -136 195 -174 q 54 -33 54 -98 q 81 33 54 0 q 152 87 109 65 q 100 127 119 103 q 81 190 81 152 q 106 247 81 222 q 163 288 130 271 q 119 353 136 315 q 103 434 103 391 q 165 586 103 526 q 320 646 228 646 q 404 632 369 646 q 467 591 439 618 q 553 637 510 624 q 646 646 597 651 l 646 543 m 429 434 q 401 521 429 488 q 320 553 374 553 q 239 521 266 553 q 212 434 212 488 q 239 347 212 380 q 320 315 266 315 q 401 347 374 315 q 429 434 429 380 m 521 -16 q 496 27 521 5 q 374 49 472 49 q 315 52 353 49 q 228 60 277 54 q 168 22 184 43 q 152 -22 152 0 q 195 -76 152 -54 q 347 -98 239 -98 q 480 -73 439 -98 q 521 -16 521 -49 z "},"h":{"ha":694,"x_min":76,"x_max":608,"o":"m 608 27 l 499 27 l 499 418 q 467 521 499 483 q 380 559 434 559 q 247 486 309 559 q 184 304 184 412 l 184 27 l 76 27 l 76 955 l 184 955 l 184 521 q 279 613 228 581 q 412 646 331 646 q 559 591 510 646 q 608 456 608 537 l 608 27 z "},"i":{"ha":694,"x_min":282,"x_max":391,"o":"m 391 808 l 282 808 l 282 949 l 391 949 l 391 808 m 391 27 l 282 27 l 282 635 l 391 635 l 391 27 z "},"j":{"ha":694,"x_min":125,"x_max":499,"o":"m 499 808 l 391 808 l 391 949 l 499 949 l 499 808 m 499 33 q 439 -119 499 -65 q 282 -174 380 -174 q 187 -165 222 -174 q 125 -146 152 -157 l 125 -38 q 190 -65 152 -54 q 288 -76 228 -76 q 369 -46 347 -76 q 391 27 391 -16 l 391 635 l 499 635 l 499 33 z "},"k":{"ha":694,"x_min":81,"x_max":635,"o":"m 635 27 l 510 27 l 315 358 l 190 239 l 190 27 l 81 27 l 81 955 l 190 955 l 190 363 l 461 635 l 597 635 l 385 429 l 635 27 z "},"l":{"ha":694,"x_min":288,"x_max":396,"o":"m 396 27 l 288 27 l 288 955 l 396 955 l 396 27 z "},"m":{"ha":694,"x_min":22,"x_max":662,"o":"m 662 27 l 553 27 l 553 467 q 543 521 553 499 q 499 543 532 543 q 429 502 461 543 q 396 396 396 461 l 396 27 l 288 27 l 288 467 q 277 521 288 499 q 233 543 266 543 q 163 502 195 543 q 130 396 130 461 l 130 27 l 22 27 l 22 635 l 130 635 l 130 553 q 195 621 157 597 q 277 646 233 646 q 350 621 320 646 q 391 553 380 597 q 453 621 418 597 q 532 646 488 646 q 629 610 597 646 q 662 510 662 575 l 662 27 z "},"n":{"ha":694,"x_min":76,"x_max":608,"o":"m 608 27 l 499 27 l 499 418 q 467 521 499 483 q 380 559 434 559 q 247 486 309 559 q 184 304 184 412 l 184 27 l 76 27 l 76 635 l 184 635 l 184 521 q 279 613 228 581 q 412 646 331 646 q 559 591 510 646 q 608 456 608 537 l 608 27 z "},"o":{"ha":694,"x_min":49,"x_max":635,"o":"m 635 331 q 548 103 635 190 q 342 16 461 16 q 136 103 222 16 q 49 331 49 190 q 136 559 49 472 q 342 646 222 646 q 548 559 461 646 q 635 331 635 472 m 515 331 q 461 494 515 439 q 342 548 407 548 q 222 494 277 548 q 168 331 168 439 q 222 168 168 222 q 342 114 277 114 q 461 168 407 114 q 515 331 515 222 z "},"p":{"ha":694,"x_min":65,"x_max":613,"o":"m 613 331 q 537 92 613 174 q 353 11 461 11 q 250 35 293 11 q 174 109 206 60 l 174 -174 l 65 -174 l 65 635 l 174 635 l 174 553 q 250 624 206 602 q 353 646 293 646 q 537 567 461 646 q 613 331 613 488 m 494 331 q 453 491 494 434 q 331 548 412 548 q 220 491 266 548 q 174 331 174 434 q 220 168 174 228 q 331 109 266 109 q 453 168 412 109 q 494 331 494 228 z "},"q":{"ha":694,"x_min":49,"x_max":597,"o":"m 597 -174 l 488 -174 l 488 109 q 412 35 456 60 q 309 11 369 11 q 125 92 201 11 q 49 331 49 174 q 125 567 49 488 q 309 646 201 646 q 412 624 369 646 q 488 553 456 602 l 488 635 l 597 635 l 597 -174 m 488 331 q 442 491 488 434 q 331 548 396 548 q 209 491 250 548 q 168 331 168 434 q 209 168 168 228 q 331 109 250 109 q 442 168 396 109 q 488 331 488 228 z "},"r":{"ha":694,"x_min":141,"x_max":543,"o":"m 543 526 q 369 496 439 543 q 250 336 298 450 l 250 27 l 141 27 l 141 635 l 250 635 l 250 477 q 372 605 298 564 q 543 646 445 646 l 543 526 z "},"s":{"ha":694,"x_min":87,"x_max":597,"o":"m 597 195 q 529 62 597 109 q 358 16 461 16 q 157 68 228 16 q 87 217 87 119 l 195 217 q 241 130 195 152 q 353 109 288 109 q 450 133 418 109 q 483 195 483 157 q 456 250 483 222 q 320 293 429 277 q 149 355 195 309 q 103 477 103 401 q 165 594 103 543 q 347 646 228 646 q 518 597 456 646 q 581 467 581 548 l 472 467 q 437 534 472 515 q 347 553 401 553 q 247 529 277 553 q 217 472 217 505 q 244 412 217 434 q 358 380 271 391 q 548 312 499 358 q 597 195 597 266 z "},"t":{"ha":694,"x_min":38,"x_max":597,"o":"m 597 43 q 534 24 570 33 q 439 16 499 16 q 282 71 342 16 q 222 222 222 125 l 222 548 l 38 548 l 38 635 l 222 635 l 222 846 l 331 846 l 331 635 l 553 635 l 553 548 l 331 548 l 331 217 q 353 144 331 174 q 434 114 374 114 q 532 125 494 114 q 597 152 570 136 l 597 43 z "},"u":{"ha":694,"x_min":76,"x_max":608,"o":"m 608 27 l 499 27 l 499 141 q 404 49 456 81 q 271 16 353 16 q 125 71 174 16 q 76 206 76 125 l 76 635 l 184 635 l 184 244 q 217 141 184 179 q 304 103 250 103 q 437 176 374 103 q 499 358 499 250 l 499 635 l 608 635 l 608 27 z "},"v":{"ha":694,"x_min":49,"x_max":624,"o":"m 624 635 l 396 16 l 277 16 l 49 635 l 163 635 l 331 163 l 342 163 l 510 635 l 624 635 z "},"w":{"ha":694,"x_min":5,"x_max":667,"o":"m 667 635 l 532 16 l 429 16 l 342 488 l 331 488 l 244 16 l 141 16 l 5 635 l 119 635 l 190 228 l 201 228 l 277 635 l 396 635 l 472 228 l 483 228 l 553 635 l 667 635 z "},"x":{"ha":694,"x_min":49,"x_max":624,"o":"m 624 27 l 494 27 l 336 260 l 179 27 l 49 27 l 271 336 l 65 635 l 195 635 l 336 407 l 477 635 l 608 635 l 401 336 l 624 27 z "},"y":{"ha":694,"x_min":43,"x_max":629,"o":"m 629 635 l 380 -22 q 315 -136 358 -98 q 206 -174 271 -174 q 155 -171 179 -174 q 109 -157 130 -168 l 109 -49 q 152 -65 130 -60 q 190 -71 174 -71 q 250 -57 233 -71 q 282 5 266 -43 l 43 635 l 163 635 l 336 157 l 342 157 l 510 635 l 629 635 z "},"z":{"ha":694,"x_min":76,"x_max":602,"o":"m 602 27 l 76 27 l 76 114 l 445 548 l 98 548 l 98 635 l 575 635 l 575 548 l 206 114 l 602 114 l 602 27 z "},"{":{"ha":694,"x_min":309,"x_max":597,"o":"m 597 -114 l 510 -114 q 412 -79 445 -114 q 380 33 380 -43 l 380 380 q 363 431 380 412 q 309 450 347 450 l 309 526 q 363 543 347 526 q 380 597 380 559 l 380 949 q 412 1058 380 1020 q 510 1096 445 1096 l 597 1096 l 597 1031 l 553 1031 q 505 1015 521 1031 q 488 966 488 998 l 488 635 q 477 543 488 581 q 439 488 467 505 q 477 431 467 467 q 488 342 488 396 l 488 16 q 505 -33 488 -16 q 553 -49 521 -49 l 597 -49 l 597 -114 z "},"|":{"ha":694,"x_min":288,"x_max":396,"o":"m 396 -184 l 288 -184 l 288 1194 l 396 1194 l 396 -184 z "},"}":{"ha":694,"x_min":81,"x_max":369,"o":"m 369 450 q 317 431 336 450 q 298 380 298 412 l 298 33 q 266 -79 298 -43 q 168 -114 233 -114 l 81 -114 l 81 -49 l 125 -49 q 174 -33 157 -49 q 190 16 190 -16 l 190 342 q 203 431 190 396 q 239 488 217 467 q 203 543 217 505 q 190 635 190 581 l 190 966 q 174 1015 190 998 q 125 1031 157 1031 l 81 1031 l 81 1096 l 168 1096 q 266 1058 233 1096 q 298 949 298 1020 l 298 597 q 317 543 298 559 q 369 526 336 526 l 369 450 z "},"~":{"ha":694,"x_min":76,"x_max":629,"o":"m 629 1101 q 556 974 597 1025 q 461 922 515 922 q 353 993 423 922 q 233 1063 282 1063 q 174 1034 195 1063 q 130 939 152 1004 l 76 998 q 144 1126 109 1074 q 228 1177 179 1177 q 361 1109 288 1177 q 472 1042 434 1042 q 526 1074 494 1042 q 575 1172 559 1107 l 629 1101 z "},"¤":{"ha":1389,"x_min":114,"x_max":1280,"o":"m 1015 98 q 656 -8 846 -16 q 342 109 467 0 l 179 -54 l 114 11 l 282 179 q 174 499 179 309 q 304 841 168 689 l 130 1015 l 195 1074 l 363 906 q 686 1009 483 1009 q 1031 890 890 1009 l 1210 1069 l 1280 998 l 1101 819 q 1202 488 1210 684 q 1080 163 1194 293 l 1242 0 l 1172 -65 l 1015 98 m 1015 228 q 1058 279 1015 228 q 1109 491 1101 331 q 1006 784 1118 651 q 686 917 895 917 q 372 784 477 917 q 266 502 266 651 q 347 244 266 353 q 540 100 429 136 q 789 95 651 65 q 1015 228 928 125 z "},"§":{"ha":1389,"x_min":401,"x_max":966,"o":"m 667 1058 q 895 982 792 1063 q 966 852 955 928 l 879 808 q 656 971 863 977 q 526 873 537 960 l 521 846 q 727 705 505 754 q 922 608 836 684 q 955 472 966 548 q 814 320 960 391 q 949 141 960 266 l 949 114 q 662 -49 922 -49 q 450 54 548 -49 l 407 136 l 494 184 q 629 49 526 81 q 754 49 635 38 q 852 130 814 49 l 852 163 q 602 304 857 239 q 450 380 543 315 q 407 510 401 423 q 553 656 418 618 l 570 667 q 429 863 423 732 q 618 1053 439 1009 l 667 1058 m 635 608 q 505 510 526 597 l 505 499 q 732 380 537 380 q 852 472 819 396 l 857 515 q 635 608 825 602 z "},"¨":{"ha":1389,"x_min":342,"x_max":1042,"o":"m 342 998 l 553 998 l 553 787 l 342 787 l 342 998 m 830 998 l 1042 998 l 1042 787 l 830 787 l 830 998 z "},"°":{"ha":1389,"x_min":179,"x_max":505,"o":"m 328 700 q 294 703 328 700 q 220 749 260 705 q 182 857 179 792 q 217 958 184 922 q 298 1006 250 993 q 393 1009 347 1020 q 472 952 439 998 q 496 836 505 906 q 442 730 488 765 q 328 700 396 694 m 239 868 q 236 849 239 868 q 252 798 233 830 q 323 757 271 765 q 407 779 374 749 q 439 860 439 808 q 407 939 439 911 q 336 960 374 966 q 271 930 298 955 q 239 868 244 906 z "},"±":{"ha":1389,"x_min":212,"x_max":1156,"o":"m 738 1090 l 738 760 l 1156 760 l 1156 667 l 738 667 l 738 336 l 646 336 l 646 667 l 212 667 l 212 760 l 646 760 l 646 1090 l 738 1090 m 212 179 l 1156 179 l 1156 81 l 212 81 l 212 179 z "},"·":{"ha":1389,"x_min":586,"x_max":798,"o":"m 586 608 l 798 608 l 798 396 l 586 396 l 586 608 z "},"×":{"ha":1389,"x_min":260,"x_max":1112,"o":"m 315 949 l 684 570 l 1058 949 l 1112 879 l 749 505 l 1112 130 l 1058 65 l 684 445 l 320 65 l 315 65 l 260 130 l 629 510 l 260 884 l 315 949 z "},"à":{"ha":694,"x_min":43,"x_max":629,"o":"m 298 732 l 157 922 l 277 922 l 429 732 l 298 732 m 488 651 l 591 651 l 591 163 q 629 114 591 109 l 629 22 l 559 22 q 488 103 488 22 q 388 33 456 54 q 250 27 320 11 q 119 106 179 43 q 52 320 60 168 q 114 556 43 472 q 301 648 184 640 q 488 581 418 656 l 488 651 m 488 336 q 442 499 488 439 q 331 559 396 559 q 209 499 250 559 q 168 336 168 439 q 209 176 168 233 q 331 119 250 119 q 442 176 396 119 q 488 336 488 233 z "},"á":{"ha":694,"x_min":43,"x_max":629,"o":"m 526 917 l 369 716 l 250 716 l 407 917 l 526 917 m 488 651 l 591 651 l 591 163 q 629 114 591 109 l 629 22 l 559 22 q 488 103 488 22 q 388 33 456 54 q 250 27 320 11 q 119 106 179 43 q 52 320 60 168 q 114 556 43 472 q 301 648 184 640 q 488 581 418 656 l 488 651 m 488 336 q 442 499 488 439 q 331 559 396 559 q 209 499 250 559 q 168 336 168 439 q 209 176 168 233 q 331 119 250 119 q 442 176 396 119 q 488 336 488 233 z "},"è":{"ha":694,"x_min":60,"x_max":624,"o":"m 624 239 q 537 81 613 141 q 345 22 461 22 q 144 106 228 22 q 60 336 60 190 q 144 567 60 483 q 350 651 228 651 q 545 578 472 651 q 618 336 618 505 l 179 336 q 231 168 179 217 q 350 119 282 119 q 456 149 418 119 q 505 239 494 179 l 624 239 m 494 423 q 445 529 483 499 q 350 559 407 559 q 250 529 293 559 q 184 423 206 499 l 494 423 m 309 732 l 168 922 l 288 922 l 439 732 l 309 732 z "},"é":{"ha":694,"x_min":60,"x_max":624,"o":"m 624 239 q 537 81 613 141 q 345 22 461 22 q 144 106 228 22 q 60 336 60 190 q 144 567 60 483 q 350 651 228 651 q 545 578 472 651 q 618 336 618 505 l 179 336 q 231 168 179 217 q 350 119 282 119 q 456 149 418 119 q 505 239 494 179 l 624 239 m 494 423 q 445 529 483 499 q 350 559 407 559 q 250 529 293 559 q 184 423 206 499 l 494 423 m 548 922 l 391 722 l 271 722 l 429 922 l 548 922 z "},"ê":{"ha":694,"x_min":60,"x_max":624,"o":"m 624 239 q 537 81 613 141 q 345 22 461 22 q 144 106 228 22 q 60 336 60 190 q 144 567 60 483 q 350 651 228 651 q 545 578 472 651 q 618 336 618 505 l 179 336 q 231 174 179 222 q 350 125 282 125 q 456 155 418 125 q 505 239 494 184 l 624 239 m 494 423 q 445 529 483 499 q 350 559 407 559 q 250 529 293 559 q 184 423 206 499 l 494 423 m 136 700 l 353 949 l 575 700 l 456 700 l 353 814 l 260 700 l 136 700 z "},"ì":{"ha":694,"x_min":98,"x_max":369,"o":"m 347 22 l 239 22 l 239 651 l 347 651 l 347 22 m 239 727 l 98 917 l 217 917 l 369 727 l 239 727 z "},"í":{"ha":694,"x_min":233,"x_max":510,"o":"m 347 22 l 239 22 l 239 651 l 347 651 l 347 22 m 510 911 l 353 711 l 233 711 l 391 911 l 510 911 z "},"ò":{"ha":694,"x_min":65,"x_max":651,"o":"m 651 336 q 651 266 651 336 q 564 109 651 195 q 358 22 477 22 q 152 109 239 22 q 65 336 65 195 q 152 564 65 477 q 358 651 239 651 q 564 564 477 651 q 651 336 651 477 m 532 336 q 532 391 532 336 q 477 499 532 445 q 358 553 423 553 q 239 499 293 553 q 184 336 184 445 q 239 174 184 228 q 358 119 293 119 q 477 174 423 119 q 532 336 532 228 m 315 722 l 174 911 l 293 911 l 445 722 l 315 722 z "},"ó":{"ha":694,"x_min":65,"x_max":651,"o":"m 651 336 q 651 266 651 336 q 564 109 651 195 q 358 22 477 22 q 152 109 239 22 q 65 336 65 195 q 152 564 65 477 q 358 651 239 651 q 564 564 477 651 q 651 336 651 477 m 532 336 q 532 391 532 336 q 477 499 532 445 q 358 553 423 553 q 239 499 293 553 q 184 336 184 445 q 239 174 184 228 q 358 119 293 119 q 477 174 423 119 q 532 336 532 228 m 581 906 l 423 705 l 304 705 l 461 906 l 581 906 z "},"÷":{"ha":1389,"x_min":212,"x_max":1156,"o":"m 212 548 l 1156 548 l 1156 456 l 212 456 l 212 548 m 602 949 l 781 949 l 781 770 l 602 770 l 602 949 m 602 233 l 781 233 l 781 54 l 602 54 l 602 233 z "},"ù":{"ha":694,"x_min":60,"x_max":591,"o":"m 483 33 l 483 146 q 388 54 439 87 q 247 22 336 22 q 109 76 157 22 q 60 212 60 130 l 60 651 l 168 651 l 168 250 q 201 146 168 184 q 296 109 233 109 q 420 182 358 109 q 483 363 483 255 l 483 651 l 591 651 l 591 33 l 483 33 m 298 727 l 157 917 l 277 917 l 429 727 l 298 727 z "},"ú":{"ha":694,"x_min":60,"x_max":591,"o":"m 483 33 l 483 146 q 388 54 439 87 q 247 22 336 22 q 109 76 157 22 q 60 212 60 130 l 60 651 l 168 651 l 168 250 q 201 146 168 184 q 296 109 233 109 q 420 182 358 109 q 483 363 483 255 l 483 651 l 591 651 l 591 33 l 483 33 m 548 906 l 391 705 l 271 705 l 429 906 l 548 906 z "},"ü":{"ha":694,"x_min":60,"x_max":591,"o":"m 483 33 l 483 146 q 388 54 439 87 q 247 22 336 22 q 109 76 157 22 q 60 212 60 130 l 60 651 l 168 651 l 168 250 q 201 146 168 184 q 296 109 233 109 q 420 182 358 109 q 483 363 483 255 l 483 651 l 591 651 l 591 33 l 483 33 m 250 819 l 250 716 l 146 716 l 146 819 l 250 819 m 526 819 l 526 716 l 423 716 l 423 819 l 526 819 z "},"ā":{"ha":694,"x_min":43,"x_max":629,"o":"m 532 830 l 532 743 l 152 743 l 152 830 l 532 830 m 488 651 l 591 651 l 591 163 q 629 114 591 109 l 629 22 l 559 22 q 488 103 488 22 q 388 33 456 54 q 250 27 320 11 q 119 106 179 43 q 52 320 60 168 q 114 556 43 472 q 301 648 184 640 q 488 581 418 656 l 488 651 m 488 336 q 442 499 488 439 q 331 559 396 559 q 209 499 250 559 q 168 336 168 439 q 209 176 168 233 q 331 119 250 119 q 442 176 396 119 q 488 336 488 233 z "},"ē":{"ha":694,"x_min":65,"x_max":629,"o":"m 629 233 q 543 76 618 136 q 350 16 467 16 q 149 100 233 16 q 65 331 65 184 q 149 562 65 477 q 355 646 233 646 q 551 572 477 646 q 624 331 624 499 l 184 331 q 236 163 184 212 q 355 114 288 114 q 461 144 423 114 q 510 233 499 174 l 629 233 m 499 418 q 450 524 488 494 q 355 553 412 553 q 255 524 298 553 q 190 418 212 494 l 499 418 m 537 841 l 537 754 l 157 754 l 157 841 l 537 841 z "},"ě":{"ha":694,"x_min":65,"x_max":629,"o":"m 629 239 q 543 81 618 141 q 350 22 467 22 q 149 106 233 22 q 65 336 65 190 q 149 567 65 483 q 355 651 233 651 q 551 578 477 651 q 624 336 624 505 l 184 336 q 236 168 184 217 q 355 119 288 119 q 461 149 423 119 q 510 239 499 179 l 629 239 m 499 423 q 450 529 488 499 q 355 559 412 559 q 255 529 298 559 q 190 423 212 499 l 499 423 m 575 928 l 353 673 l 130 928 l 250 928 l 353 814 l 450 928 l 575 928 z "},"ī":{"ha":694,"x_min":109,"x_max":488,"o":"m 347 22 l 239 22 l 239 651 l 347 651 l 347 22 m 488 841 l 488 754 l 109 754 l 109 841 l 488 841 z "},"ń":{"ha":694,"x_min":60,"x_max":591,"o":"m 483 22 l 483 423 q 450 526 483 488 q 355 564 418 564 q 231 491 293 564 q 168 309 168 418 l 168 22 l 60 22 l 60 640 l 168 640 l 168 526 q 263 618 212 586 q 404 651 315 651 q 543 597 494 651 q 591 461 591 543 l 591 22 l 483 22 m 537 917 l 380 716 l 260 716 l 418 917 l 537 917 z "},"ň":{"ha":694,"x_min":60,"x_max":591,"o":"m 483 22 l 483 423 q 450 526 483 488 q 355 564 418 564 q 231 491 293 564 q 168 309 168 418 l 168 22 l 60 22 l 60 640 l 168 640 l 168 526 q 263 618 212 586 q 404 651 315 651 q 543 597 494 651 q 591 461 591 543 l 591 22 l 483 22 m 575 933 l 353 678 l 130 933 l 250 933 l 353 819 l 450 933 l 575 933 z "},"ō":{"ha":694,"x_min":60,"x_max":646,"o":"m 646 336 q 646 266 646 336 q 559 109 646 195 q 353 22 472 22 q 146 109 233 22 q 60 336 60 195 q 146 564 60 477 q 353 651 233 651 q 559 564 472 651 q 646 336 646 477 m 526 336 q 526 391 526 336 q 472 499 526 445 q 353 553 418 553 q 233 499 288 553 q 179 336 179 445 q 233 174 179 228 q 353 119 288 119 q 472 174 418 119 q 526 336 526 228 m 543 836 l 543 749 l 163 749 l 163 836 l 543 836 z "},"ū":{"ha":694,"x_min":60,"x_max":591,"o":"m 483 33 l 483 146 q 388 54 439 87 q 247 22 336 22 q 109 76 157 22 q 60 212 60 130 l 60 651 l 168 651 l 168 250 q 201 146 168 184 q 296 109 233 109 q 420 182 358 109 q 483 363 483 255 l 483 651 l 591 651 l 591 33 l 483 33 m 521 830 l 521 743 l 141 743 l 141 830 l 521 830 z "},"ǎ":{"ha":694,"x_min":43,"x_max":629,"o":"m 570 922 l 347 667 l 125 922 l 244 922 l 347 808 l 445 922 l 570 922 m 488 651 l 591 651 l 591 163 q 629 114 591 109 l 629 22 l 559 22 q 488 103 488 22 q 388 33 456 54 q 250 27 320 11 q 119 106 179 43 q 52 320 60 168 q 114 556 43 472 q 301 648 184 640 q 488 581 418 656 l 488 651 m 488 336 q 442 499 488 439 q 331 559 396 559 q 209 499 250 559 q 168 336 168 439 q 209 176 168 233 q 331 119 250 119 q 442 176 396 119 q 488 336 488 233 z "},"ǐ":{"ha":694,"x_min":71,"x_max":515,"o":"m 347 22 l 239 22 l 239 651 l 347 651 l 347 22 m 515 922 l 293 667 l 71 922 l 190 922 l 293 808 l 391 922 l 515 922 z "},"ǒ":{"ha":694,"x_min":65,"x_max":651,"o":"m 651 336 q 651 266 651 336 q 564 109 651 195 q 358 22 477 22 q 152 109 239 22 q 65 336 65 195 q 152 564 65 477 q 358 651 239 651 q 564 564 477 651 q 651 336 651 477 m 532 336 q 532 391 532 336 q 477 499 532 445 q 358 553 423 553 q 239 499 293 553 q 184 336 184 445 q 239 174 184 228 q 358 119 293 119 q 477 174 423 119 q 532 336 532 228 m 581 922 l 358 667 l 136 922 l 255 922 l 358 808 l 456 922 l 581 922 z "},"ǔ":{"ha":694,"x_min":60,"x_max":591,"o":"m 483 33 l 483 146 q 388 54 439 87 q 247 22 336 22 q 109 76 157 22 q 60 212 60 130 l 60 651 l 168 651 l 168 250 q 201 146 168 184 q 296 109 233 109 q 420 182 358 109 q 483 363 483 255 l 483 651 l 591 651 l 591 33 l 483 33 m 548 933 l 326 678 l 103 933 l 222 933 l 326 819 l 423 933 l 548 933 z "},"ǖ":{"ha":694,"x_min":60,"x_max":591,"o":"m 483 33 l 483 146 q 388 54 439 87 q 247 22 336 22 q 109 76 157 22 q 60 212 60 130 l 60 651 l 168 651 l 168 250 q 201 146 168 184 q 296 109 233 109 q 420 182 358 109 q 483 363 483 255 l 483 651 l 591 651 l 591 33 l 483 33 m 526 966 l 526 879 l 146 879 l 146 966 l 526 966 m 250 819 l 250 716 l 146 716 l 146 819 l 250 819 m 526 819 l 526 716 l 423 716 l 423 819 l 526 819 z "},"ǘ":{"ha":694,"x_min":60,"x_max":591,"o":"m 483 33 l 483 146 q 388 54 439 87 q 247 22 336 22 q 109 76 157 22 q 60 212 60 130 l 60 651 l 168 651 l 168 250 q 201 146 168 184 q 296 109 233 109 q 420 182 358 109 q 483 363 483 255 l 483 651 l 591 651 l 591 33 l 483 33 m 548 1074 l 391 873 l 271 873 l 429 1074 l 548 1074 m 250 819 l 250 716 l 146 716 l 146 819 l 250 819 m 526 819 l 526 716 l 423 716 l 423 819 l 526 819 z "},"ǚ":{"ha":694,"x_min":60,"x_max":591,"o":"m 483 33 l 483 146 q 388 54 439 87 q 247 22 336 22 q 109 76 157 22 q 60 212 60 130 l 60 651 l 168 651 l 168 250 q 201 146 168 184 q 296 109 233 109 q 420 182 358 109 q 483 363 483 255 l 483 651 l 591 651 l 591 33 l 483 33 m 553 1074 l 331 819 l 109 1074 l 228 1074 l 331 960 l 429 1074 l 553 1074 m 250 819 l 250 716 l 146 716 l 146 819 l 250 819 m 526 819 l 526 716 l 423 716 l 423 819 l 526 819 z "},"ǜ":{"ha":694,"x_min":60,"x_max":591,"o":"m 483 33 l 483 146 q 388 54 439 87 q 247 22 336 22 q 109 76 157 22 q 60 212 60 130 l 60 651 l 168 651 l 168 250 q 201 146 168 184 q 296 109 233 109 q 420 182 358 109 q 483 363 483 255 l 483 651 l 591 651 l 591 33 l 483 33 m 304 873 l 163 1063 l 282 1063 l 434 873 l 304 873 m 250 819 l 250 716 l 146 716 l 146 819 l 250 819 m 526 819 l 526 716 l 423 716 l 423 819 l 526 819 z "},"ǹ":{"ha":694,"x_min":60,"x_max":591,"o":"m 483 22 l 483 423 q 450 526 483 488 q 355 564 418 564 q 231 491 293 564 q 168 309 168 418 l 168 22 l 60 22 l 60 640 l 168 640 l 168 526 q 263 618 212 586 q 404 651 315 651 q 543 597 494 651 q 591 461 591 543 l 591 22 l 483 22 m 315 722 l 174 911 l 293 911 l 445 722 l 315 722 z "},"ɑ":{"ha":694,"x_min":60,"x_max":635,"o":"m 488 651 l 591 651 l 591 163 q 635 114 591 109 l 635 22 l 564 22 q 488 65 499 22 l 488 103 q 382 33 439 49 q 252 24 326 16 q 122 100 179 33 q 62 317 65 168 q 122 553 60 467 q 304 651 184 640 q 488 608 423 662 l 488 651 m 491 361 q 492 419 491 361 q 461 518 494 477 q 331 556 429 559 q 195 477 233 553 q 165 298 157 401 q 239 152 174 195 q 374 136 304 109 q 467 203 445 163 q 491 361 488 244 z "},"ɡ":{"ha":694,"x_min":54,"x_max":570,"o":"m 570 141 q 515 -90 570 -16 q 331 -174 461 -163 q 149 -152 201 -184 q 76 -62 98 -119 q 54 76 54 -5 l 168 76 q 201 -38 168 0 q 312 -71 233 -76 q 426 -19 391 -65 q 461 114 461 27 l 461 179 q 290 117 407 119 q 117 184 174 114 q 60 366 60 255 q 111 553 60 477 q 274 646 163 629 q 461 591 385 662 l 461 640 l 570 640 l 570 141 m 461 434 q 412 524 461 488 q 296 551 363 559 q 198 496 228 543 q 163 377 168 450 q 212 250 157 304 q 363 222 266 195 q 461 331 461 250 l 461 434 z "},"ˇ":{"ha":1389,"x_min":439,"x_max":955,"o":"m 456 1036 l 694 895 l 933 1042 l 955 977 l 700 749 l 439 971 l 456 1036 z "},"ˉ":{"ha":1389,"x_min":467,"x_max":917,"o":"m 467 982 l 917 982 l 917 890 l 467 890 l 467 982 z "},"ˊ":{"ha":1389,"x_min":537,"x_max":863,"o":"m 798 1036 l 863 960 l 559 781 l 537 814 l 798 1036 z "},"ˋ":{"ha":1389,"x_min":526,"x_max":846,"o":"m 591 1025 l 846 803 l 825 770 l 526 955 l 591 1025 z "},"˙":{"ha":1389,"x_min":597,"x_max":776,"o":"m 597 586 l 776 586 l 776 407 l 597 407 l 597 586 z "},"Α":{"ha":1389,"x_min":277,"x_max":1107,"o":"m 608 977 l 776 977 l 1107 49 l 993 49 l 895 309 l 488 309 l 391 49 l 277 49 l 608 977 m 689 873 l 526 418 l 857 418 l 689 873 z "},"Β":{"ha":1389,"x_min":277,"x_max":1101,"o":"m 277 977 l 825 977 q 1047 830 971 987 q 977 543 1101 640 l 955 532 q 1101 320 1085 483 l 1101 271 q 732 49 1063 27 l 277 49 l 277 977 m 385 873 l 385 564 l 819 564 q 955 700 928 575 l 955 760 q 716 873 955 895 l 385 873 m 385 461 l 385 152 l 852 152 q 993 271 977 174 l 993 336 q 732 461 998 483 l 385 461 z "},"Γ":{"ha":1389,"x_min":418,"x_max":998,"o":"m 418 977 l 998 977 l 998 873 l 521 873 l 521 49 l 418 49 l 418 977 z "},"Δ":{"ha":1389,"x_min":266,"x_max":1118,"o":"m 689 987 l 1118 49 l 266 49 l 689 987 m 689 749 l 429 152 l 955 152 l 689 749 z "},"Ε":{"ha":1389,"x_min":309,"x_max":1063,"o":"m 309 977 l 1042 977 l 1042 873 l 418 873 l 418 575 l 836 575 l 836 472 l 418 472 l 418 152 l 1063 152 l 1063 49 l 309 49 l 309 977 z "},"Ζ":{"ha":1389,"x_min":288,"x_max":1090,"o":"m 331 977 l 1042 977 l 1036 863 l 429 152 l 1090 152 l 1090 49 l 288 49 l 293 163 l 906 873 l 331 873 l 331 977 z "},"Η":{"ha":1389,"x_min":288,"x_max":1096,"o":"m 288 977 l 396 977 l 396 581 l 987 581 l 987 977 l 1096 977 l 1096 49 l 987 49 l 987 477 l 396 477 l 396 49 l 288 49 l 288 977 z "},"Θ":{"ha":1389,"x_min":260,"x_max":1123,"o":"m 684 987 q 1053 770 955 982 q 1112 450 1123 618 q 808 49 1063 130 q 646 38 749 33 q 271 407 358 60 l 260 521 q 532 966 282 852 q 684 987 553 982 m 667 884 q 374 613 450 884 q 488 206 326 358 q 727 141 591 125 q 1004 510 987 168 q 798 863 1004 781 q 689 884 754 884 l 667 884 m 477 651 l 586 651 l 586 559 l 787 559 l 787 651 l 890 651 l 890 369 l 787 369 l 787 456 l 586 456 l 586 369 l 477 369 l 477 651 z "},"Ι":{"ha":1389,"x_min":640,"x_max":743,"o":"m 640 977 l 743 977 l 743 49 l 640 49 l 640 977 z "},"Κ":{"ha":1389,"x_min":288,"x_max":1069,"o":"m 288 977 l 396 977 l 396 429 l 884 977 l 1009 977 l 656 586 l 1069 49 l 928 49 l 591 515 l 396 293 l 396 49 l 288 49 l 288 977 z "},"Λ":{"ha":1389,"x_min":326,"x_max":1080,"o":"m 624 977 l 727 977 l 1080 49 l 971 49 l 678 819 l 434 49 l 326 49 l 624 977 z "},"Μ":{"ha":1389,"x_min":212,"x_max":1161,"o":"m 212 977 l 369 977 l 689 228 l 694 228 l 1009 977 l 1161 977 l 1161 49 l 1058 49 l 1058 879 l 732 65 l 727 49 l 662 49 l 320 884 l 320 49 l 212 49 l 212 977 z "},"Ν":{"ha":1389,"x_min":288,"x_max":1090,"o":"m 288 987 l 445 987 l 982 222 l 982 987 l 1090 987 l 1090 49 l 977 49 l 396 901 l 396 49 l 288 49 l 288 987 z "},"Ξ":{"ha":1389,"x_min":326,"x_max":1047,"o":"m 326 977 l 1047 977 l 1047 765 l 928 765 l 928 868 l 684 868 l 445 868 l 445 765 l 326 765 l 326 977 m 450 597 l 684 597 l 873 597 l 922 597 l 922 488 l 873 488 l 684 488 l 450 488 l 450 597 m 326 260 l 445 260 l 445 157 l 684 157 l 928 157 l 928 266 l 1047 266 l 1047 49 l 326 49 l 326 260 z "},"Ο":{"ha":1389,"x_min":260,"x_max":1128,"o":"m 689 1020 q 1053 814 960 1015 q 1118 477 1128 651 q 803 54 1074 130 q 651 38 732 27 q 277 385 380 49 q 260 543 266 418 q 472 966 266 819 q 689 1020 548 1015 m 673 917 q 369 521 391 901 q 510 195 358 320 q 738 141 618 125 q 1009 586 1031 201 q 868 873 1009 738 q 673 917 787 922 z "},"Π":{"ha":1389,"x_min":358,"x_max":1020,"o":"m 358 977 l 1020 977 l 1020 49 l 911 49 l 911 873 l 461 873 l 461 49 l 358 49 l 358 977 z "},"Ρ":{"ha":1389,"x_min":288,"x_max":1090,"o":"m 288 977 l 836 977 q 1053 836 960 977 q 1085 651 1090 770 q 684 407 1042 374 l 396 407 l 396 49 l 288 49 l 288 977 m 396 873 l 396 515 l 836 515 q 971 635 949 537 l 977 711 q 711 873 971 895 l 396 873 z "},"Σ":{"ha":1389,"x_min":353,"x_max":1025,"o":"m 353 977 l 1009 977 l 1009 884 l 510 884 l 868 521 l 499 141 l 1025 141 l 1025 49 l 353 49 l 353 136 l 722 521 l 353 895 l 353 977 z "},"Τ":{"ha":1389,"x_min":277,"x_max":1101,"o":"m 277 977 l 1101 977 l 1101 873 l 743 873 l 743 49 l 640 49 l 640 873 l 277 873 l 277 977 z "},"Υ":{"ha":1389,"x_min":315,"x_max":1080,"o":"m 315 922 l 396 977 l 689 581 l 982 977 l 1080 917 l 743 477 l 743 49 l 635 49 l 635 472 l 315 922 z "},"Φ":{"ha":1389,"x_min":271,"x_max":1123,"o":"m 640 977 l 743 977 l 743 879 q 1080 689 987 873 q 1118 461 1123 602 q 825 152 1101 228 l 743 146 l 743 49 l 640 49 l 640 146 q 315 331 407 152 q 271 526 271 391 q 477 846 288 770 q 640 884 526 868 l 640 977 m 629 787 q 380 559 439 781 l 380 499 q 553 260 396 304 l 640 244 l 640 787 l 629 787 m 743 787 l 743 244 q 993 401 939 255 q 1009 553 1015 461 q 787 781 1009 727 l 743 787 z "},"Χ":{"ha":1389,"x_min":260,"x_max":1118,"o":"m 288 977 l 423 977 l 689 618 l 960 977 l 1096 977 l 760 526 l 1118 49 l 982 49 l 689 434 l 396 49 l 260 49 l 624 526 l 288 977 z "},"Ψ":{"ha":1389,"x_min":277,"x_max":1101,"o":"m 277 977 l 385 977 l 385 624 q 464 431 396 483 q 640 380 532 380 l 646 374 l 646 977 l 749 977 l 749 374 q 993 705 1015 396 l 993 977 l 1101 977 l 1101 629 q 857 298 1080 353 l 749 282 l 749 49 l 646 49 l 646 282 q 309 472 385 293 q 277 700 282 515 l 277 977 z "},"Ω":{"ha":1389,"x_min":260,"x_max":1188,"o":"m 689 987 q 1069 776 960 982 q 1036 271 1188 494 q 868 130 982 184 l 1063 130 l 1063 49 l 743 49 l 749 190 q 1004 472 966 266 q 1015 602 1015 494 q 760 879 998 798 l 678 884 q 396 694 461 868 q 369 543 369 662 q 624 190 401 260 l 635 190 l 635 49 l 320 49 l 320 130 l 515 130 q 260 548 282 222 l 260 575 q 483 944 277 841 q 662 987 537 977 l 689 987 z "},"α":{"ha":1389,"x_min":363,"x_max":1015,"o":"m 640 705 q 825 613 716 716 l 825 705 l 911 705 l 911 141 q 966 125 901 119 l 1015 125 l 1015 38 l 884 38 q 819 136 830 43 q 602 38 727 16 q 363 391 363 81 q 564 694 380 629 l 640 705 m 635 613 q 450 363 456 602 q 602 130 461 174 l 667 125 q 825 412 836 179 q 667 613 798 581 l 635 613 z "},"β":{"ha":1389,"x_min":418,"x_max":977,"o":"m 662 987 q 868 852 819 977 q 814 575 917 694 l 808 570 q 971 277 977 515 q 749 38 928 71 q 505 114 602 16 l 505 -163 l 418 -163 l 418 765 q 608 982 456 955 l 662 987 m 640 901 q 510 792 521 884 l 505 667 l 505 222 q 694 125 564 130 l 722 125 q 884 342 868 146 q 770 505 873 477 l 662 510 l 618 510 l 618 586 q 792 716 749 559 l 792 781 q 678 895 792 852 l 640 901 z "},"γ":{"ha":1389,"x_min":380,"x_max":977,"o":"m 380 694 l 461 694 q 586 526 510 722 l 711 271 l 873 694 l 977 694 l 760 141 l 760 -163 l 667 -163 l 667 163 l 461 591 q 380 602 456 608 l 380 694 z "},"δ":{"ha":1389,"x_min":401,"x_max":982,"o":"m 439 977 l 873 977 l 873 890 l 564 890 l 868 640 q 971 331 982 532 q 732 38 928 81 l 651 38 q 401 369 429 81 q 586 678 407 608 l 667 694 l 439 890 l 439 977 m 673 602 q 488 374 515 586 q 646 130 499 179 l 716 125 q 884 374 873 174 l 884 407 q 700 602 879 548 l 673 602 z "},"ε":{"ha":1389,"x_min":483,"x_max":890,"o":"m 705 705 q 863 673 787 705 l 819 602 q 651 608 749 629 q 586 515 581 575 q 667 407 597 423 l 798 407 l 798 326 l 667 326 q 575 222 570 293 l 575 217 q 852 146 575 81 l 890 76 q 667 38 803 27 q 483 206 510 33 q 575 374 483 309 q 494 532 494 439 q 689 705 494 684 l 705 705 z "},"ζ":{"ha":1389,"x_min":418,"x_max":971,"o":"m 467 830 q 458 871 467 830 q 570 993 450 911 l 656 955 q 583 844 532 873 q 694 814 635 814 q 868 868 754 814 l 911 781 q 659 610 770 738 q 532 358 548 483 q 760 195 521 152 q 884 187 846 201 q 947 133 922 174 q 960 27 971 92 q 892 -92 949 -38 q 624 -168 836 -146 l 602 -76 q 781 -49 711 -81 q 860 60 852 -16 q 751 106 868 136 q 526 141 635 76 q 439 385 418 206 q 667 738 456 521 q 467 830 483 749 z "},"η":{"ha":1389,"x_min":363,"x_max":1015,"o":"m 830 705 q 1004 575 982 694 q 1015 472 1015 575 l 1015 -163 l 922 -163 l 922 521 q 803 613 911 608 q 646 499 678 602 l 646 49 l 553 49 l 553 586 l 532 608 q 423 537 499 618 l 363 581 q 586 694 467 722 q 646 618 618 694 q 814 705 694 684 l 830 705 z "},"θ":{"ha":1389,"x_min":391,"x_max":993,"o":"m 689 987 q 977 597 949 966 q 949 271 993 439 q 754 43 906 98 q 662 38 743 33 q 401 526 391 103 q 412 694 401 608 q 635 982 450 917 l 689 987 m 684 901 q 488 570 488 846 l 890 570 q 727 895 895 808 l 684 901 m 488 483 q 515 288 488 391 q 667 125 543 174 l 716 125 q 890 483 890 174 l 488 483 z "},"ι":{"ha":1389,"x_min":602,"x_max":808,"o":"m 613 694 l 700 694 l 700 157 q 776 136 689 130 l 808 136 l 808 49 l 678 49 q 613 217 602 33 l 613 694 z "},"κ":{"ha":1389,"x_min":439,"x_max":939,"o":"m 439 694 l 532 694 l 532 401 l 808 694 l 939 694 l 667 418 l 933 49 l 803 49 l 608 358 l 532 282 l 532 49 l 439 49 l 439 694 z "},"λ":{"ha":1389,"x_min":363,"x_max":1020,"o":"m 418 977 l 521 977 q 667 808 624 993 l 890 157 q 1020 136 884 125 l 1020 49 l 895 49 q 727 347 803 33 l 656 553 l 472 49 l 363 49 l 608 700 l 553 863 q 418 890 548 895 l 418 977 z "},"μ":{"ha":1389,"x_min":439,"x_max":1009,"o":"m 439 694 l 532 694 l 532 228 q 673 109 570 119 l 716 109 q 825 380 841 125 l 825 694 l 911 694 l 911 195 q 966 125 917 130 l 1009 125 l 1009 38 l 911 43 q 857 98 868 60 l 852 109 q 667 33 776 16 q 532 98 597 38 l 532 -163 l 439 -163 l 439 694 z "},"ν":{"ha":1389,"x_min":429,"x_max":911,"o":"m 429 694 l 532 694 l 689 168 l 765 418 q 803 572 792 521 q 792 673 814 624 l 884 694 q 903 581 911 651 q 852 380 895 510 l 749 49 l 640 49 l 429 694 z "},"ξ":{"ha":1389,"x_min":418,"x_max":971,"o":"m 518 884 q 519 922 518 884 q 629 977 521 960 l 765 977 l 765 901 l 667 901 q 608 846 586 890 q 684 808 629 803 l 808 808 l 808 732 l 694 732 q 618 675 613 711 q 659 624 624 640 q 749 613 694 608 l 830 613 l 830 537 l 743 537 q 515 342 543 483 q 760 179 494 125 q 887 165 846 184 q 949 103 928 146 q 958 0 971 60 q 879 -109 944 -60 q 624 -168 814 -157 l 602 -76 q 787 -57 711 -81 q 871 41 863 -33 q 727 92 879 114 q 496 146 575 71 q 439 369 418 222 q 613 564 456 472 q 597 770 461 656 q 518 884 515 808 z "},"ο":{"ha":1389,"x_min":396,"x_max":1009,"o":"m 689 705 q 982 439 917 705 q 825 71 1009 179 q 651 38 749 27 q 396 347 429 60 l 396 385 q 597 689 412 624 q 689 705 618 700 m 684 613 q 488 396 521 624 q 597 146 472 228 q 722 125 640 119 q 890 407 895 168 q 738 608 873 575 l 684 613 z "},"π":{"ha":1389,"x_min":342,"x_max":1036,"o":"m 342 694 l 1036 694 l 1036 602 l 939 602 l 939 163 q 977 136 939 130 l 1036 136 l 1036 49 l 933 49 q 852 163 841 38 l 852 602 l 548 602 l 548 49 l 456 49 l 456 602 l 342 602 l 342 694 z "},"ρ":{"ha":1389,"x_min":434,"x_max":982,"o":"m 700 705 q 977 320 982 694 q 781 43 955 109 q 521 125 651 0 l 521 -163 l 434 -163 l 434 412 q 640 694 461 640 l 700 705 m 694 613 q 521 347 515 586 q 667 130 532 168 l 743 125 q 890 407 884 157 q 738 608 868 564 l 694 613 z "},"σ":{"ha":1389,"x_min":391,"x_max":1036,"o":"m 667 705 l 776 684 l 1036 684 l 1036 591 l 868 591 q 939 326 955 483 q 732 43 911 98 q 635 38 722 33 q 391 396 396 81 q 570 684 401 608 q 667 705 608 705 m 662 613 q 477 374 477 597 q 624 130 483 184 l 694 125 q 852 418 863 174 q 700 608 830 575 l 662 613 z "},"τ":{"ha":1389,"x_min":418,"x_max":960,"o":"m 418 694 l 960 694 l 960 602 l 760 602 l 760 146 q 787 136 754 130 l 863 136 l 863 49 l 749 49 q 667 222 656 33 l 667 602 l 418 602 l 418 694 z "},"υ":{"ha":1389,"x_min":423,"x_max":955,"o":"m 429 694 l 515 694 l 515 255 q 610 125 521 141 q 749 157 700 109 q 825 309 798 206 q 857 575 852 412 q 846 673 857 618 l 933 694 q 949 581 955 646 q 920 317 949 456 q 822 111 890 179 q 640 43 754 43 q 429 277 423 60 l 429 694 z "},"φ":{"ha":1389,"x_min":271,"x_max":1058,"o":"m 651 879 l 738 879 l 738 705 q 1025 515 966 678 q 1053 315 1058 461 q 836 54 1015 92 l 738 33 l 738 -163 l 651 -163 l 651 33 q 353 212 434 43 q 429 618 271 461 q 651 705 477 684 l 651 879 m 635 613 q 423 412 477 613 l 418 353 q 640 125 407 174 l 651 125 l 651 613 l 635 613 m 738 613 l 738 125 q 949 277 906 141 q 960 407 966 315 q 787 602 928 586 l 738 613 z "},"χ":{"ha":1389,"x_min":353,"x_max":1020,"o":"m 353 694 l 456 694 q 608 515 526 722 l 684 374 l 884 694 l 987 694 l 738 277 l 911 -60 q 1020 -81 960 -92 l 1020 -163 l 890 -163 q 765 33 857 -174 l 684 184 l 678 184 l 472 -163 l 363 -163 l 635 282 l 472 591 q 353 602 467 608 l 353 694 z "},"ψ":{"ha":1389,"x_min":315,"x_max":1063,"o":"m 646 879 l 738 879 l 738 125 q 966 293 933 146 q 971 467 971 293 l 971 694 l 1063 694 l 1063 331 q 836 49 1047 103 l 738 33 l 738 -163 l 651 -163 l 651 33 q 342 206 423 43 q 315 374 315 266 l 315 694 l 407 694 l 407 331 q 646 125 418 152 l 646 879 z "},"ω":{"ha":1389,"x_min":277,"x_max":1118,"o":"m 391 705 l 467 667 q 358 347 358 510 q 477 130 363 184 l 553 125 q 651 418 662 146 l 651 499 l 738 499 l 738 233 q 808 136 743 179 q 879 125 814 125 q 1015 396 1025 174 q 911 667 1009 521 l 987 705 q 1107 298 1118 521 q 917 43 1080 87 q 705 125 760 16 l 694 152 q 515 38 635 27 l 488 38 q 277 363 282 81 q 391 705 282 521 z "},"Ё":{"ha":1389,"x_min":412,"x_max":960,"o":"m 412 966 l 960 966 l 960 852 l 526 852 l 526 629 l 949 629 l 949 515 l 526 515 l 526 255 l 960 255 l 960 136 l 412 136 l 412 966 m 879 1150 l 879 1047 l 776 1047 l 776 1150 l 879 1150 m 618 1150 l 618 1047 l 515 1047 l 515 1150 l 618 1150 z "},"А":{"ha":1389,"x_min":293,"x_max":1085,"o":"m 629 966 l 760 966 l 1085 136 l 949 136 l 884 309 l 494 309 l 429 136 l 293 136 l 629 966 m 689 841 l 537 429 l 846 429 l 689 841 z "},"Б":{"ha":1389,"x_min":401,"x_max":1025,"o":"m 928 966 l 928 852 l 515 852 l 515 629 l 808 629 q 1020 456 966 629 l 1025 336 q 727 136 987 125 l 401 136 l 401 966 l 928 966 m 515 255 l 798 255 q 901 336 873 271 l 901 401 q 629 515 879 543 l 515 515 l 515 255 z "},"В":{"ha":1389,"x_min":407,"x_max":1031,"o":"m 407 966 l 770 966 q 974 792 949 944 q 879 564 998 640 q 1025 429 1004 537 l 1031 353 l 1031 342 q 662 136 993 98 l 407 136 l 407 966 m 521 852 l 521 618 l 765 624 q 863 722 841 635 l 863 765 q 537 852 868 873 l 521 852 m 521 505 l 521 255 l 798 255 q 906 353 873 260 l 906 401 q 591 505 906 526 l 521 505 z "},"Г":{"ha":1389,"x_min":423,"x_max":971,"o":"m 423 966 l 971 966 l 971 852 l 537 852 l 537 136 l 423 136 l 423 966 z "},"Д":{"ha":1389,"x_min":271,"x_max":1107,"o":"m 564 966 l 1009 966 l 1009 250 l 1107 250 l 1107 -27 l 987 -27 l 987 136 l 391 136 l 391 -27 l 271 -27 l 271 250 l 363 250 q 564 966 532 532 m 667 857 q 494 255 629 543 l 494 250 l 890 250 l 890 857 l 667 857 z "},"Е":{"ha":1389,"x_min":412,"x_max":960,"o":"m 412 966 l 960 966 l 960 852 l 526 852 l 526 629 l 949 629 l 949 515 l 526 515 l 526 255 l 960 255 l 960 136 l 412 136 l 412 966 z "},"Ж":{"ha":1389,"x_min":174,"x_max":1204,"o":"m 304 982 q 439 776 407 998 q 483 678 450 727 q 635 618 515 624 l 635 966 l 749 966 l 749 618 l 760 618 q 955 830 906 613 q 1004 949 971 917 q 1188 982 1031 987 l 1188 873 l 1096 873 q 1020 700 1063 873 q 901 575 982 608 q 1128 298 1031 564 l 1204 136 l 1080 136 l 971 396 q 749 515 922 515 l 749 136 l 635 136 l 635 515 l 618 515 q 353 277 423 521 l 304 136 l 174 136 l 336 483 q 477 575 358 537 q 326 830 374 581 q 195 873 315 890 l 195 982 l 304 982 z "},"З":{"ha":1389,"x_min":401,"x_max":998,"o":"m 678 977 q 939 857 846 987 q 960 738 966 808 q 830 581 955 629 q 998 412 982 537 l 998 336 q 646 119 960 103 q 407 184 548 119 l 401 190 l 439 288 q 732 233 564 222 q 879 353 852 250 l 884 401 q 602 526 841 564 l 586 521 l 586 640 q 760 640 629 618 q 846 765 857 684 l 846 776 q 456 819 798 933 l 418 911 q 678 977 537 977 z "},"И":{"ha":1389,"x_min":363,"x_max":1020,"o":"m 363 966 l 477 966 l 477 315 l 901 966 l 1020 966 l 1020 136 l 901 136 l 901 787 l 483 136 l 363 136 l 363 966 z "},"Й":{"ha":1389,"x_min":363,"x_max":1020,"o":"m 488 1172 l 591 1172 q 656 1074 591 1090 l 711 1069 q 792 1161 792 1090 l 792 1172 l 890 1172 l 890 1156 q 667 998 873 1004 q 488 1166 532 1004 l 488 1172 m 363 966 l 477 966 l 477 315 l 901 966 l 1020 966 l 1020 136 l 901 136 l 901 787 l 483 136 l 363 136 l 363 966 z "},"К":{"ha":1389,"x_min":391,"x_max":1020,"o":"m 391 966 l 505 966 l 505 570 l 819 966 l 960 966 l 673 613 l 1020 136 l 873 136 l 608 537 l 505 407 l 505 136 l 391 136 l 391 966 z "},"Л":{"ha":1389,"x_min":309,"x_max":1025,"o":"m 423 966 l 1025 966 l 1025 136 l 906 136 l 906 852 l 537 852 l 537 288 q 331 136 537 130 l 309 136 l 315 260 q 423 401 434 250 l 423 966 z "},"М":{"ha":1389,"x_min":315,"x_max":1063,"o":"m 315 966 l 488 966 l 689 298 l 890 966 l 1063 966 l 1063 136 l 944 136 l 944 765 l 917 684 l 760 136 l 635 136 l 434 770 l 434 136 l 315 136 l 315 966 z "},"Н":{"ha":1389,"x_min":358,"x_max":1020,"o":"m 358 966 l 472 966 l 472 629 l 901 629 l 901 966 l 1020 966 l 1020 136 l 901 136 l 901 515 l 472 515 l 472 136 l 358 136 l 358 966 z "},"О":{"ha":1389,"x_min":271,"x_max":1112,"o":"m 689 977 q 1063 754 960 966 q 1107 505 1112 667 q 868 163 1074 255 q 646 125 792 119 q 293 407 358 174 q 271 570 271 456 q 477 922 282 819 q 689 977 575 982 m 678 884 q 396 629 467 884 q 526 266 358 385 q 738 222 608 212 q 982 461 917 244 q 987 602 993 483 q 776 873 982 787 l 678 884 z "},"П":{"ha":1389,"x_min":353,"x_max":1025,"o":"m 353 966 l 1025 966 l 1025 136 l 906 136 l 906 852 l 467 852 l 467 136 l 353 136 l 353 966 z "},"Р":{"ha":1389,"x_min":418,"x_max":971,"o":"m 418 966 l 738 966 q 955 814 917 944 q 966 689 971 792 q 613 499 933 472 l 532 499 l 532 136 l 418 136 l 418 966 m 532 852 l 532 613 l 749 613 q 852 705 830 613 l 852 754 q 532 852 846 879 z "},"С":{"ha":1389,"x_min":342,"x_max":1025,"o":"m 754 977 q 1015 911 868 982 l 977 803 q 754 879 873 879 l 743 879 q 467 608 526 879 q 602 266 439 369 q 971 293 814 174 l 982 304 l 1025 195 q 743 125 906 130 l 711 125 q 369 385 439 168 q 347 553 342 450 q 608 955 363 868 q 732 977 662 977 l 754 977 z "},"Т":{"ha":1389,"x_min":347,"x_max":1031,"o":"m 347 966 l 1031 966 l 1031 852 l 749 852 l 749 136 l 635 136 l 635 852 l 347 852 l 347 966 z "},"У":{"ha":1389,"x_min":358,"x_max":1031,"o":"m 358 966 l 483 966 l 705 597 l 895 966 l 1031 966 l 608 174 q 412 136 591 119 l 412 250 l 505 250 q 624 434 532 233 l 646 488 l 358 966 z "},"Ф":{"ha":1389,"x_min":266,"x_max":1118,"o":"m 635 966 l 749 966 l 749 868 q 1069 716 966 868 q 1107 510 1118 624 q 770 239 1080 271 l 749 239 l 749 136 l 635 136 l 635 239 q 363 326 488 239 q 271 570 266 407 q 456 841 288 781 q 635 873 499 863 l 635 966 m 624 776 q 401 640 456 770 q 385 543 380 591 q 586 336 374 391 l 635 331 l 635 776 l 624 776 m 749 776 l 749 331 q 987 467 933 342 q 998 575 1004 505 q 819 765 987 705 l 749 776 z "},"Х":{"ha":1389,"x_min":309,"x_max":1069,"o":"m 342 966 l 477 966 l 689 673 l 901 966 l 1042 966 l 760 570 l 1069 136 l 928 136 l 689 472 l 450 136 l 309 136 l 618 575 l 342 966 z "},"Ц":{"ha":1389,"x_min":342,"x_max":1069,"o":"m 342 966 l 456 966 l 456 255 l 884 255 l 884 966 l 998 966 l 998 255 l 1069 255 l 1069 -60 l 949 -60 l 949 136 l 342 136 l 342 966 z "},"Ч":{"ha":1389,"x_min":353,"x_max":1020,"o":"m 369 966 l 483 966 l 483 602 q 629 515 510 510 q 901 694 765 526 l 901 966 l 1020 966 l 1020 136 l 901 136 l 901 570 q 564 423 754 418 l 553 423 q 369 727 353 445 l 369 966 z "},"Ш":{"ha":1389,"x_min":222,"x_max":1139,"o":"m 222 966 l 342 966 l 342 255 l 635 255 l 635 966 l 749 966 l 749 255 l 1025 255 l 1025 966 l 1139 966 l 1139 136 l 222 136 l 222 966 z "},"Щ":{"ha":1389,"x_min":217,"x_max":1194,"o":"m 217 966 l 336 966 l 336 255 l 613 255 l 613 966 l 727 966 l 727 255 l 1009 255 l 1009 966 l 1123 966 l 1123 255 l 1194 255 l 1194 -76 l 1080 -76 l 1080 136 l 217 136 l 217 966 z "},"Ъ":{"ha":1389,"x_min":309,"x_max":1069,"o":"m 309 966 l 618 966 l 618 640 l 852 640 q 1069 396 1053 613 l 1069 347 q 716 136 1036 114 l 499 136 l 499 868 l 309 868 l 309 966 m 618 537 l 618 239 l 836 239 q 944 418 960 266 q 635 537 949 553 l 618 537 z "},"Ы":{"ha":1389,"x_min":271,"x_max":1107,"o":"m 271 966 l 391 966 l 391 640 l 608 640 q 836 401 814 624 l 836 347 q 510 136 819 119 l 271 136 l 271 966 m 391 537 l 391 239 l 608 239 q 722 363 722 260 l 722 418 q 559 537 711 548 l 391 537 m 987 966 l 1107 966 l 1107 136 l 987 136 l 987 966 z "},"Ь":{"ha":1389,"x_min":418,"x_max":982,"o":"m 418 966 l 532 966 l 532 640 l 765 640 q 982 401 982 613 l 982 347 q 700 136 960 119 l 418 136 l 418 966 m 532 537 l 532 239 l 760 239 q 863 407 873 260 q 689 537 857 548 l 532 537 z "},"Э":{"ha":1389,"x_min":353,"x_max":1036,"o":"m 640 982 q 993 749 868 998 q 1025 494 1036 635 q 825 174 1009 260 q 353 201 570 65 l 401 293 q 667 228 472 222 q 906 450 873 260 l 906 499 l 591 499 l 591 608 l 906 608 l 906 624 q 716 863 879 825 q 418 830 586 906 l 380 911 q 559 977 439 944 l 640 982 z "},"Ю":{"ha":1389,"x_min":163,"x_max":1259,"o":"m 868 987 q 1177 819 1074 982 q 1242 499 1259 684 q 998 136 1215 222 q 825 114 944 109 q 505 418 597 130 l 488 499 l 260 499 l 260 136 l 163 136 l 163 966 l 260 966 l 260 613 l 488 613 q 743 971 521 895 q 868 987 792 987 m 857 890 q 597 543 602 863 q 770 233 597 315 q 901 217 825 206 q 1134 564 1128 260 q 971 868 1139 781 q 857 890 928 890 z "},"Я":{"ha":1389,"x_min":380,"x_max":998,"o":"m 732 966 l 998 966 l 998 136 l 884 136 l 884 467 l 694 467 l 521 136 l 380 136 l 602 510 q 456 732 456 586 q 602 944 472 895 q 732 966 629 966 m 700 852 q 575 760 586 846 q 651 597 559 640 q 830 581 651 575 l 884 581 l 884 852 l 700 852 z "},"а":{"ha":1389,"x_min":429,"x_max":955,"o":"m 700 722 q 863 651 814 727 q 884 271 895 640 l 884 239 q 944 222 873 212 l 955 222 l 955 136 l 819 136 q 781 190 781 152 q 559 125 684 125 l 543 125 q 429 288 429 136 q 781 499 429 467 q 770 608 787 548 q 505 581 727 684 l 467 651 q 700 722 570 711 m 765 407 l 613 380 q 510 293 537 358 l 510 282 q 575 206 505 233 q 781 277 678 201 l 781 407 l 765 407 z "},"б":{"ha":1389,"x_min":401,"x_max":966,"o":"m 678 977 l 803 955 q 901 977 841 949 l 901 879 q 732 879 836 846 l 673 895 q 499 581 526 879 q 787 684 618 722 q 955 380 966 629 q 765 125 928 168 q 651 119 749 119 q 418 543 401 179 q 488 852 412 678 q 667 977 548 966 l 678 977 m 711 608 q 505 429 526 575 q 651 206 515 255 l 716 206 q 873 434 873 228 q 770 602 868 564 l 711 608 z "},"в":{"ha":1389,"x_min":467,"x_max":933,"o":"m 467 711 l 749 711 q 901 597 879 694 q 836 456 911 494 l 825 450 q 933 320 933 412 l 933 282 q 656 136 933 125 l 467 136 l 467 711 m 564 624 l 564 477 l 754 477 q 819 537 798 483 l 819 570 q 564 624 808 640 m 564 391 l 564 222 l 776 222 q 852 288 819 222 l 852 320 q 564 391 852 401 z "},"г":{"ha":1389,"x_min":483,"x_max":895,"o":"m 483 711 l 895 711 l 895 613 l 581 613 l 581 136 l 483 136 l 483 711 z "},"д":{"ha":1389,"x_min":391,"x_max":987,"o":"m 586 711 l 922 711 l 922 228 l 987 228 l 987 -11 l 890 -11 l 890 136 l 483 136 l 483 -11 l 391 -11 l 391 228 q 472 277 450 212 q 586 694 564 467 l 586 711 m 667 618 q 570 277 646 450 l 548 228 l 830 228 l 830 618 l 667 618 z "},"е":{"ha":1389,"x_min":439,"x_max":949,"o":"m 684 727 q 944 391 949 711 l 532 391 q 646 222 543 271 q 890 266 727 190 l 922 190 q 727 125 841 141 l 662 125 q 439 439 445 174 q 624 716 450 635 l 684 727 m 689 635 q 532 488 570 635 l 532 472 l 841 472 l 841 505 q 716 629 836 602 l 689 635 z "},"ж":{"ha":1389,"x_min":271,"x_max":1107,"o":"m 288 716 l 385 716 q 488 548 456 732 q 646 467 510 461 l 646 711 l 738 711 l 738 467 l 760 467 q 922 651 895 456 q 1090 716 917 732 l 1090 629 l 1020 629 q 966 505 998 635 q 890 434 944 450 q 1096 152 982 439 l 1107 136 l 993 136 l 906 298 q 738 369 863 369 l 738 136 l 646 136 l 646 369 l 618 369 q 429 217 494 380 l 385 136 l 271 136 l 401 380 q 494 434 423 418 q 374 618 407 445 q 293 629 380 635 l 288 629 l 288 716 z "},"з":{"ha":1389,"x_min":467,"x_max":906,"o":"m 673 722 q 884 597 841 722 q 819 429 906 477 l 803 423 q 906 326 879 412 l 906 271 q 618 125 863 109 q 477 174 553 130 l 467 179 l 510 250 q 678 206 575 201 q 819 277 776 201 l 825 315 q 591 369 781 401 l 591 461 q 722 461 591 450 q 803 532 776 467 l 803 564 q 532 602 760 689 l 488 673 q 673 722 570 716 z "},"и":{"ha":1389,"x_min":456,"x_max":917,"o":"m 456 711 l 553 711 l 553 282 l 825 711 l 917 711 l 917 136 l 825 136 l 825 559 l 553 136 l 456 136 l 456 711 z "},"й":{"ha":1389,"x_min":456,"x_max":917,"o":"m 505 901 l 591 901 q 656 830 602 836 l 722 825 q 787 890 776 836 l 787 901 l 873 901 l 873 884 q 667 765 852 765 q 510 884 532 781 l 505 901 m 456 711 l 553 711 l 553 282 l 825 711 l 917 711 l 917 136 l 825 136 l 825 559 l 553 136 l 456 136 l 456 711 z "},"к":{"ha":1389,"x_min":488,"x_max":906,"o":"m 488 711 l 586 711 l 586 450 l 765 711 l 890 711 l 722 477 l 906 136 l 798 136 l 662 401 l 586 293 l 586 136 l 488 136 l 488 711 z "},"л":{"ha":1389,"x_min":429,"x_max":922,"o":"m 510 711 l 922 711 l 922 136 l 830 136 l 830 624 l 608 624 l 608 233 q 445 130 618 130 l 429 130 l 429 222 q 510 293 515 201 l 510 711 z "},"м":{"ha":1389,"x_min":418,"x_max":960,"o":"m 418 711 l 548 711 l 689 293 l 830 711 l 960 711 l 960 136 l 868 136 l 868 559 l 738 136 l 656 136 l 510 564 l 510 136 l 418 136 l 418 711 z "},"н":{"ha":1389,"x_min":450,"x_max":922,"o":"m 450 711 l 548 711 l 548 483 l 830 483 l 830 711 l 922 711 l 922 136 l 830 136 l 830 396 l 548 396 l 548 136 l 450 136 l 450 711 z "},"о":{"ha":1389,"x_min":429,"x_max":960,"o":"m 689 722 q 939 532 857 727 q 949 374 960 461 q 770 136 922 179 q 656 125 738 119 q 429 401 456 146 l 429 439 q 575 694 439 624 q 689 722 613 716 m 684 635 q 521 472 553 629 q 624 222 494 288 q 722 212 651 206 q 863 461 879 250 q 711 635 836 613 l 684 635 z "},"п":{"ha":1389,"x_min":456,"x_max":922,"o":"m 456 711 l 922 711 l 922 136 l 830 136 l 830 624 l 553 624 l 553 136 l 456 136 l 456 711 z "},"р":{"ha":1389,"x_min":445,"x_max":966,"o":"m 727 716 q 949 380 966 678 q 776 136 933 184 q 543 201 635 103 l 543 -163 l 445 -163 l 445 711 l 543 711 l 543 629 q 727 716 624 722 m 694 640 q 543 537 618 640 l 543 288 q 716 212 613 190 q 868 461 879 228 q 754 629 857 597 l 694 640 z "},"с":{"ha":1389,"x_min":467,"x_max":911,"o":"m 749 722 q 901 673 830 716 l 868 602 q 743 640 814 646 q 553 461 597 646 q 662 222 537 288 q 868 255 770 184 l 911 179 q 662 130 808 109 q 472 380 488 195 l 467 429 q 656 711 488 646 q 749 722 678 722 z "},"т":{"ha":1389,"x_min":418,"x_max":966,"o":"m 418 711 l 966 711 l 966 624 l 738 624 l 738 136 l 646 136 l 646 624 l 418 624 l 418 711 z "},"у":{"ha":1389,"x_min":418,"x_max":949,"o":"m 418 711 l 521 711 l 684 326 l 846 711 l 949 711 l 602 -130 q 439 -163 591 -174 l 445 -65 l 521 -60 q 586 76 532 -65 l 635 206 l 418 711 z "},"ф":{"ha":1389,"x_min":309,"x_max":1096,"o":"m 646 971 l 738 971 l 738 651 q 939 700 846 754 q 1069 347 1096 597 q 906 130 1047 168 q 738 163 819 103 l 738 -163 l 646 -163 l 646 168 q 494 125 602 119 q 309 401 320 152 l 309 412 q 439 694 309 591 q 624 678 559 749 l 646 656 l 646 971 m 521 640 q 391 385 391 602 q 505 206 396 244 q 646 260 570 174 l 646 564 q 521 640 624 635 m 852 646 q 738 559 770 640 l 738 255 q 868 201 781 190 q 987 456 1004 233 q 895 640 982 575 l 852 646 z "},"х":{"ha":1389,"x_min":423,"x_max":955,"o":"m 434 711 l 548 711 l 689 515 l 830 711 l 944 711 l 749 429 l 955 136 l 841 136 l 689 342 l 543 136 l 423 136 l 629 429 l 434 711 z "},"ц":{"ha":1389,"x_min":439,"x_max":944,"o":"m 439 711 l 532 711 l 532 222 l 798 222 l 798 711 l 890 711 l 890 222 l 944 222 l 944 -33 l 852 -33 l 852 136 l 439 136 l 439 711 z "},"ч":{"ha":1389,"x_min":429,"x_max":933,"o":"m 439 711 l 537 711 l 537 461 q 656 401 553 380 q 841 510 754 418 l 841 711 l 933 711 l 933 136 l 841 136 l 841 423 q 564 320 743 320 q 439 548 429 342 l 439 711 z "},"ш":{"ha":1389,"x_min":288,"x_max":1096,"o":"m 288 711 l 385 711 l 385 222 l 646 222 l 646 711 l 738 711 l 738 222 l 998 222 l 998 711 l 1096 711 l 1096 136 l 288 136 l 288 711 z "},"щ":{"ha":1389,"x_min":298,"x_max":1118,"o":"m 298 711 l 396 711 l 396 222 l 640 222 l 640 711 l 732 711 l 732 222 l 982 222 l 982 711 l 1080 711 l 1080 222 l 1118 222 l 1118 -27 l 1025 -27 l 1025 136 l 298 136 l 298 711 z "},"ъ":{"ha":1389,"x_min":423,"x_max":955,"o":"m 423 711 l 651 711 l 651 477 l 803 477 q 955 336 939 456 l 955 277 q 749 136 933 125 l 553 136 l 553 624 l 423 624 l 423 711 m 651 391 l 651 222 l 808 222 q 873 288 863 239 l 873 326 q 765 391 846 396 l 651 391 z "},"ы":{"ha":1389,"x_min":380,"x_max":993,"o":"m 380 711 l 472 711 l 472 477 l 646 477 q 787 336 760 461 l 787 282 q 629 136 770 136 l 380 136 l 380 711 m 472 391 l 472 222 l 624 222 q 700 282 689 222 l 700 326 q 597 391 689 391 l 472 391 m 895 711 l 993 711 l 993 136 l 895 136 l 895 711 z "},"ь":{"ha":1389,"x_min":499,"x_max":906,"o":"m 499 711 l 597 711 l 597 477 l 749 477 q 906 336 890 467 l 906 277 q 743 136 890 136 l 499 136 l 499 711 m 597 391 l 597 222 l 749 222 q 825 282 808 222 l 825 326 q 711 391 808 396 l 597 391 z "},"э":{"ha":1389,"x_min":461,"x_max":911,"o":"m 640 722 q 884 548 792 727 q 906 391 911 472 q 738 136 895 206 q 472 174 602 98 l 510 244 q 635 212 548 217 l 662 212 q 798 353 770 228 l 803 380 l 586 380 l 586 477 l 803 477 q 624 635 765 640 q 510 608 570 635 l 499 602 l 461 673 q 640 722 548 722 z "},"ю":{"ha":1389,"x_min":288,"x_max":1139,"o":"m 852 722 q 1112 483 1058 716 q 982 152 1139 250 q 814 119 906 114 q 591 342 651 136 l 586 380 l 385 380 l 385 136 l 288 136 l 288 711 l 385 711 l 385 467 l 586 467 q 819 722 618 678 l 852 722 m 846 635 q 662 412 684 618 q 825 206 673 244 l 857 206 q 1036 445 1042 233 q 857 635 1020 602 l 846 635 z "},"я":{"ha":1389,"x_min":439,"x_max":933,"o":"m 705 711 l 933 711 l 933 136 l 841 136 l 841 369 l 722 369 l 553 136 l 439 136 l 635 396 q 526 537 532 439 l 526 548 q 667 705 553 684 l 705 711 m 711 624 q 624 553 635 618 l 624 537 q 689 456 629 472 l 841 456 l 841 624 l 711 624 z "},"ё":{"ha":1389,"x_min":439,"x_max":944,"o":"m 684 722 q 944 391 944 716 l 532 391 q 646 222 548 271 q 890 266 727 190 l 922 190 q 727 125 841 141 l 662 125 q 439 439 445 163 q 629 716 456 651 l 684 722 m 689 635 q 532 488 570 635 l 532 472 l 841 472 l 841 505 q 716 629 836 602 l 689 635 m 873 884 l 873 781 l 770 781 l 770 884 l 873 884 m 608 884 l 608 781 l 505 781 l 505 884 l 608 884 z "},"‐":{"ha":1389,"x_min":521,"x_max":895,"o":"m 895 456 l 521 456 l 521 548 l 895 548 l 895 456 z "},"–":{"ha":1389,"x_min":450,"x_max":955,"o":"m 450 543 l 955 543 l 955 461 l 450 461 l 450 543 z "},"—":{"ha":1389,"x_min":0,"x_max":1383,"o":"m 1383 543 l 1383 461 l 0 461 l 0 543 l 1383 543 z "},"―":{"ha":1389,"x_min":136,"x_max":1264,"o":"m 136 548 l 1264 548 l 1264 467 l 136 467 l 136 548 z "},"‖":{"ha":1389,"x_min":505,"x_max":879,"o":"m 505 1177 l 581 1177 l 581 -174 l 505 -174 l 505 1177 m 803 1177 l 879 1177 l 879 -174 l 803 -174 l 803 1177 z "},"‘":{"ha":1389,"x_min":1085,"x_max":1264,"o":"m 1242 1112 l 1242 1036 q 1172 879 1161 1009 l 1264 879 l 1264 700 l 1085 700 l 1085 928 q 1237 1107 1118 1085 l 1242 1112 z "},"’":{"ha":1389,"x_min":114,"x_max":293,"o":"m 114 1112 l 293 1112 l 293 873 q 152 700 266 743 l 130 700 l 130 770 q 206 933 212 803 l 114 933 l 114 1112 z "},"“":{"ha":1389,"x_min":781,"x_max":1264,"o":"m 939 1112 l 939 1036 q 868 879 857 1009 l 955 879 l 955 700 l 781 700 l 781 928 q 933 1107 808 1085 l 939 1112 m 1242 1112 l 1242 1036 q 1172 879 1161 1009 l 1264 879 l 1264 700 l 1085 700 l 1085 928 q 1237 1107 1118 1085 l 1242 1112 z "},"”":{"ha":1389,"x_min":114,"x_max":608,"o":"m 114 1112 l 293 1112 l 293 873 q 152 700 266 743 l 130 700 l 130 770 q 206 933 212 803 l 114 933 l 114 1112 m 434 1112 l 608 1112 l 608 873 q 472 700 586 743 l 450 700 l 450 770 q 521 933 532 803 l 434 933 l 434 1112 z "},"‥":{"ha":1389,"x_min":336,"x_max":1047,"o":"m 336 591 l 526 591 l 526 407 l 336 407 l 336 591 m 863 591 l 1047 591 l 1047 407 l 863 407 l 863 591 z "},"…":{"ha":1389,"x_min":130,"x_max":1242,"o":"m 130 608 l 342 608 l 342 396 l 130 396 l 130 608 m 586 608 l 798 608 l 798 396 l 586 396 l 586 608 m 1031 608 l 1242 608 l 1242 396 l 1031 396 l 1031 608 z "},"‰":{"ha":1389,"x_min":98,"x_max":1308,"o":"m 190 -16 l 125 16 l 917 1080 l 982 1047 l 190 -16 m 1213 445 q 1241 431 1213 445 q 1289 358 1270 418 q 1308 214 1308 298 q 1280 62 1308 130 q 1202 -24 1253 -5 q 1093 -24 1150 -43 q 1006 62 1036 -5 q 977 212 977 130 q 1004 358 977 293 q 1093 448 1031 423 q 1213 445 1156 472 m 1218 90 q 1227 113 1218 90 q 1237 217 1237 136 q 1218 342 1237 298 q 1147 385 1199 385 q 1072 342 1096 385 q 1047 217 1047 298 q 1072 90 1047 136 q 1147 43 1096 43 q 1218 90 1199 43 m 334 1015 q 362 1001 334 1015 q 410 928 391 987 q 429 784 429 868 q 401 632 429 700 q 323 545 374 564 q 214 545 271 526 q 127 632 157 564 q 98 781 98 700 q 125 928 98 863 q 214 1017 152 993 q 334 1015 277 1042 m 339 659 q 349 682 339 659 q 358 787 358 705 q 339 911 358 868 q 269 955 320 955 q 193 911 217 955 q 168 787 168 868 q 193 659 168 705 q 269 613 217 613 q 339 659 320 613 m 559 358 q 572 391 559 358 q 648 448 586 423 q 768 445 711 472 q 844 358 825 418 q 863 214 863 298 q 836 62 863 130 q 757 -24 808 -5 q 648 -24 705 -43 q 562 62 591 -5 q 532 212 532 130 q 559 358 532 293 m 773 90 q 783 113 773 90 q 792 217 792 136 q 773 342 792 298 q 703 385 754 385 q 627 342 651 385 q 602 217 602 298 q 627 90 602 136 q 703 43 651 43 q 773 90 754 43 z "},"′":{"ha":1389,"x_min":212,"x_max":499,"o":"m 391 1047 l 499 993 l 266 613 l 212 635 l 391 1047 z "},"″":{"ha":1389,"x_min":92,"x_max":586,"o":"m 271 1112 l 380 1058 l 146 678 l 92 700 l 271 1112 m 477 1036 l 586 982 l 353 608 l 298 629 l 477 1036 z "},"‵":{"ha":1389,"x_min":543,"x_max":760,"o":"m 656 1112 l 760 716 l 711 689 l 543 1069 l 656 1112 z "},"※":{"ha":1389,"x_min":141,"x_max":1253,"o":"m 201 1069 l 694 570 l 1194 1069 l 1253 1015 l 754 510 l 1253 5 l 1194 -43 l 694 456 l 201 -43 l 141 11 l 640 515 l 141 1015 l 201 1069 m 684 1047 q 825 944 798 1036 l 830 884 q 711 765 803 787 l 662 765 q 548 901 553 803 l 548 917 q 673 1047 543 1009 l 684 1047 m 298 646 q 429 548 401 640 l 434 488 q 315 369 407 391 l 266 369 q 152 505 157 407 l 152 521 q 277 646 146 613 l 298 646 m 1090 646 q 1226 548 1199 640 l 1226 488 q 1112 369 1199 391 l 1058 369 q 944 505 949 407 l 944 521 q 1069 646 939 613 l 1090 646 m 689 250 q 825 152 798 244 l 830 87 q 711 -27 803 -5 l 662 -27 q 548 103 553 11 l 548 125 q 673 250 543 212 l 689 250 z "},"€":{"ha":1389,"x_min":260,"x_max":1069,"o":"m 776 993 q 1069 895 949 1004 l 1047 781 q 841 884 971 868 l 760 890 q 461 602 521 879 l 1036 602 l 1015 543 l 456 543 q 456 439 450 461 l 998 439 l 977 380 l 467 380 q 667 130 499 201 q 798 114 705 109 q 1004 184 928 136 l 1042 206 l 1063 98 l 1015 71 q 798 11 917 22 l 716 11 q 456 146 537 43 q 358 380 374 250 l 266 380 l 282 439 l 347 439 q 353 543 347 499 l 260 543 l 277 602 l 358 602 q 597 949 385 836 q 776 993 651 987 z "},"℃":{"ha":1389,"x_min":98,"x_max":1280,"o":"m 228 1096 q 363 982 326 1090 l 363 933 q 255 830 336 846 l 212 830 q 98 966 109 841 q 222 1096 103 1069 l 228 1096 m 222 1053 q 141 966 146 1031 q 206 873 146 895 l 239 868 q 320 971 326 895 l 320 977 q 250 1053 298 1036 l 222 1053 m 873 960 q 1248 716 1166 944 l 1253 705 l 1150 662 q 933 846 1085 836 l 852 852 q 532 439 543 836 q 754 92 548 168 q 895 76 798 71 q 1172 315 1080 98 l 1172 320 l 1280 298 l 1280 293 q 884 -27 1156 -16 l 808 -27 q 456 255 521 22 q 429 456 429 331 q 646 895 445 770 q 852 960 732 955 l 873 960 z "},"℅":{"ha":1389,"x_min":119,"x_max":1275,"o":"m 385 1096 q 629 960 559 1096 l 640 928 l 564 911 q 385 1015 526 1020 q 206 841 250 1020 q 298 629 190 689 q 423 613 315 613 q 575 732 526 629 l 640 705 l 640 694 q 347 532 586 526 q 125 727 152 570 l 119 814 q 304 1085 136 1020 l 385 1096 m 1232 1053 l 1275 1009 l 168 -65 l 125 -22 l 1232 1053 m 987 515 q 1226 363 1161 515 q 1248 201 1253 298 q 1074 -27 1226 11 q 960 -38 1020 -43 q 727 179 781 -38 l 722 244 q 911 510 743 450 l 987 515 m 982 434 q 803 282 852 439 l 803 228 q 928 49 814 76 q 1015 43 944 38 q 1166 266 1172 60 q 1031 434 1145 412 l 982 434 z "},"℉":{"ha":1389,"x_min":92,"x_max":1280,"o":"m 228 1096 q 363 982 326 1090 l 363 933 q 255 825 336 846 l 206 825 q 98 971 92 852 q 222 1096 109 1069 l 228 1096 m 222 1063 q 125 966 136 1042 q 206 857 130 879 l 250 857 q 331 966 331 884 l 331 977 q 250 1063 309 1047 l 222 1063 m 553 977 l 1280 977 l 1280 879 l 656 879 l 656 537 l 1134 537 l 1134 439 l 656 439 l 656 49 l 553 49 l 553 977 z "},"№":{"ha":1389,"x_min":141,"x_max":1242,"o":"m 271 1031 l 575 195 l 575 1031 l 684 1031 l 684 43 l 515 43 l 244 830 l 244 43 l 141 43 l 141 1031 l 271 1031 m 1009 656 q 868 467 879 646 q 1015 260 873 260 q 1145 467 1150 271 q 1009 656 1139 646 m 803 141 l 1204 141 l 1204 49 l 803 49 l 803 141 m 1009 727 q 1232 467 1221 716 q 1020 184 1242 201 q 781 467 792 184 q 1009 727 798 716 z "},"℡":{"ha":1389,"x_min":244,"x_max":1107,"o":"m 971 825 l 1107 825 l 1107 760 l 895 760 l 895 1063 l 971 1063 l 971 825 m 656 1004 l 656 944 l 781 944 l 781 884 l 656 884 l 656 819 l 803 819 l 803 760 l 581 760 l 581 1063 l 798 1063 l 798 1004 l 656 1004 m 412 760 l 336 760 l 336 998 l 244 998 l 244 1063 l 510 1063 l 510 998 l 412 998 l 412 760 z "},"Ⅰ":{"ha":1389,"x_min":646,"x_max":743,"o":"m 646 987 l 743 987 l 743 49 l 646 49 l 646 987 z "},"Ⅱ":{"ha":1389,"x_min":434,"x_max":949,"o":"m 434 987 l 532 987 l 532 49 l 434 49 l 434 987 m 852 987 l 949 987 l 949 49 l 852 49 l 852 987 z "},"Ⅲ":{"ha":1389,"x_min":315,"x_max":1080,"o":"m 315 987 l 418 987 l 418 49 l 315 49 l 315 987 m 646 987 l 743 987 l 743 49 l 646 49 l 646 987 m 977 987 l 1080 987 l 1080 49 l 977 49 l 977 987 z "},"Ⅳ":{"ha":1389,"x_min":233,"x_max":1145,"o":"m 233 987 l 336 987 l 336 49 l 233 49 l 233 987 m 423 987 l 526 987 l 776 195 l 1042 987 l 1145 987 l 825 49 l 727 49 l 423 987 z "},"Ⅴ":{"ha":1389,"x_min":260,"x_max":1118,"o":"m 260 987 l 380 987 l 694 206 l 998 987 l 1118 987 l 743 49 l 646 49 l 260 987 z "},"Ⅵ":{"ha":1389,"x_min":222,"x_max":1139,"o":"m 222 987 l 331 987 l 586 195 l 852 987 l 955 987 l 635 49 l 537 49 l 222 987 m 1042 987 l 1139 987 l 1139 49 l 1042 49 l 1042 987 z "},"Ⅶ":{"ha":1389,"x_min":130,"x_max":1232,"o":"m 130 987 l 233 987 l 445 217 l 656 987 l 760 987 l 499 49 l 401 49 l 130 987 m 841 987 l 939 987 l 939 49 l 841 49 l 841 987 m 1128 987 l 1232 987 l 1232 49 l 1128 49 l 1128 987 z "},"Ⅷ":{"ha":1389,"x_min":98,"x_max":1280,"o":"m 98 987 l 195 987 l 391 217 l 591 987 l 684 987 l 439 49 l 342 49 l 98 987 m 754 987 l 857 987 l 857 49 l 754 49 l 754 987 m 966 987 l 1069 987 l 1069 49 l 966 49 l 966 987 m 1177 987 l 1280 987 l 1280 49 l 1177 49 l 1177 987 z "},"Ⅸ":{"ha":1389,"x_min":217,"x_max":1150,"o":"m 217 987 l 315 987 l 315 49 l 217 49 l 217 987 m 467 987 l 581 987 l 792 646 l 982 987 l 1112 987 l 852 537 l 1150 49 l 1015 49 l 792 439 l 559 49 l 439 49 l 732 543 l 467 987 z "},"Ⅹ":{"ha":1389,"x_min":293,"x_max":1085,"o":"m 326 987 l 439 987 l 684 624 l 689 624 l 928 987 l 1047 987 l 749 532 l 1085 27 l 955 27 l 689 439 l 412 27 l 293 27 l 629 532 l 326 987 z "},"Ⅺ":{"ha":1389,"x_min":174,"x_max":1107,"o":"m 1009 987 l 1107 987 l 1107 49 l 1009 49 l 1009 987 m 195 987 l 315 987 l 526 646 l 727 987 l 846 987 l 586 537 l 884 49 l 760 49 l 526 445 l 293 49 l 174 49 l 467 543 l 195 987 z "},"Ⅻ":{"ha":1389,"x_min":76,"x_max":1204,"o":"m 863 987 l 960 987 l 960 49 l 863 49 l 863 987 m 98 987 l 217 987 l 429 646 l 629 987 l 749 987 l 488 537 l 787 49 l 673 49 l 429 445 l 195 49 l 76 49 l 369 543 l 98 987 m 1107 987 l 1204 987 l 1204 49 l 1107 49 l 1107 987 z "},"ⅰ":{"ha":1389,"x_min":656,"x_max":743,"o":"m 656 825 l 656 911 l 743 911 l 743 825 l 656 825 m 656 673 l 743 673 l 743 60 l 656 60 l 656 673 z "},"ⅱ":{"ha":1389,"x_min":445,"x_max":917,"o":"m 836 673 l 917 673 l 917 60 l 836 60 l 836 673 m 445 825 l 445 911 l 532 911 l 532 825 l 445 825 m 445 673 l 532 673 l 532 60 l 445 60 l 445 673 m 830 825 l 830 911 l 917 911 l 917 825 l 830 825 z "},"ⅲ":{"ha":1389,"x_min":347,"x_max":1020,"o":"m 347 673 l 434 673 l 434 60 l 347 60 l 347 673 m 640 673 l 727 673 l 727 60 l 640 60 l 640 673 m 928 673 l 1015 673 l 1015 60 l 928 60 l 928 673 m 933 825 l 933 911 l 1020 911 l 1020 825 l 933 825 m 640 825 l 640 911 l 727 911 l 727 825 l 640 825 m 347 825 l 347 911 l 434 911 l 434 825 l 347 825 z "},"ⅳ":{"ha":1389,"x_min":326,"x_max":1118,"o":"m 326 673 l 412 673 l 412 60 l 326 60 l 326 673 m 526 673 l 618 673 l 825 190 l 1025 673 l 1118 673 l 857 60 l 798 60 l 526 673 m 326 825 l 326 911 l 412 911 l 412 825 l 326 825 z "},"ⅴ":{"ha":1389,"x_min":358,"x_max":1031,"o":"m 358 673 l 456 673 l 694 168 l 928 673 l 1031 673 l 743 60 l 662 60 l 358 673 z "},"ⅵ":{"ha":1389,"x_min":266,"x_max":1069,"o":"m 266 673 l 358 673 l 570 190 l 770 673 l 863 673 l 602 60 l 543 60 l 266 673 m 977 673 l 1063 673 l 1063 60 l 977 60 l 977 673 m 982 825 l 982 911 l 1069 911 l 1069 825 l 982 825 z "},"ⅶ":{"ha":1389,"x_min":195,"x_max":1139,"o":"m 195 673 l 277 673 l 467 190 l 651 673 l 732 673 l 499 60 l 439 60 l 195 673 m 841 673 l 922 673 l 922 60 l 841 60 l 841 673 m 1053 673 l 1134 673 l 1134 60 l 1053 60 l 1053 673 m 1053 825 l 1053 911 l 1139 911 l 1139 825 l 1053 825 m 836 825 l 836 911 l 922 911 l 922 825 l 836 825 z "},"ⅷ":{"ha":1389,"x_min":195,"x_max":1188,"o":"m 195 673 l 271 673 l 418 195 l 559 673 l 640 673 l 450 60 l 385 60 l 195 673 m 716 673 l 798 673 l 798 60 l 716 60 l 716 673 m 911 673 l 993 673 l 993 60 l 911 60 l 911 673 m 1107 673 l 1183 673 l 1183 60 l 1107 60 l 1107 673 m 1101 825 l 1101 911 l 1188 911 l 1188 825 l 1101 825 m 911 825 l 911 911 l 998 911 l 998 825 l 911 825 m 716 825 l 716 911 l 803 911 l 803 825 l 716 825 z "},"ⅸ":{"ha":1389,"x_min":326,"x_max":1096,"o":"m 331 673 l 412 673 l 412 60 l 331 60 l 331 673 m 532 673 l 624 673 l 808 434 l 993 673 l 1085 673 l 857 369 l 1096 60 l 1004 60 l 808 309 l 618 65 l 526 65 l 760 374 l 532 673 m 326 825 l 326 911 l 412 911 l 412 825 l 326 825 z "},"ⅹ":{"ha":1389,"x_min":363,"x_max":1020,"o":"m 374 673 l 483 673 l 689 434 l 694 434 l 895 673 l 1009 673 l 749 369 l 1020 60 l 906 60 l 694 304 l 689 304 l 477 60 l 363 60 l 635 369 l 374 673 z "},"←":{"ha":1389,"x_min":184,"x_max":1291,"o":"m 532 928 l 532 591 l 1291 591 l 1291 412 l 532 412 l 532 87 l 184 505 l 532 928 z "},"↑":{"ha":1389,"x_min":266,"x_max":1107,"o":"m 689 1009 l 1107 662 l 781 662 l 781 -98 l 602 -98 l 602 662 l 266 662 l 689 1009 z "},"→":{"ha":1389,"x_min":87,"x_max":1188,"o":"m 846 928 l 1188 499 l 846 87 l 846 412 l 87 412 l 87 591 l 846 591 l 846 928 z "},"↓":{"ha":1389,"x_min":266,"x_max":1107,"o":"m 602 1107 l 781 1107 l 781 347 l 1107 347 l 689 5 l 266 347 l 602 347 l 602 1107 z "},"↖":{"ha":1389,"x_min":277,"x_max":1101,"o":"m 884 917 l 640 673 l 1101 212 l 982 92 l 521 553 l 277 309 l 336 857 l 884 917 z "},"↗":{"ha":1389,"x_min":277,"x_max":1096,"o":"m 499 917 l 1042 852 l 1096 309 l 857 553 l 396 92 l 277 212 l 738 673 l 499 917 z "},"↘":{"ha":1389,"x_min":277,"x_max":1096,"o":"m 396 917 l 857 456 l 1096 694 l 1042 152 l 499 98 l 738 336 l 277 798 l 396 917 z "},"↙":{"ha":1389,"x_min":277,"x_max":1101,"o":"m 982 917 l 1101 798 l 640 336 l 884 98 l 857 98 l 336 152 l 277 694 l 521 456 l 982 917 z "},"∈":{"ha":1389,"x_min":244,"x_max":1118,"o":"m 1118 890 l 1118 808 l 651 808 q 418 738 488 808 q 336 548 347 667 l 1118 548 l 1118 467 l 336 467 q 429 269 353 342 q 667 195 505 195 l 1118 195 l 1118 114 l 608 114 q 342 220 439 114 q 244 510 244 326 q 347 792 244 694 q 608 890 450 890 l 1118 890 z "},"∏":{"ha":1389,"x_min":152,"x_max":1232,"o":"m 1232 1004 l 1232 939 l 1063 939 l 1063 -22 l 966 -22 l 966 939 l 418 939 l 418 -22 l 320 -22 l 320 939 l 152 939 l 152 1004 l 1232 1004 z "},"∑":{"ha":1389,"x_min":212,"x_max":1063,"o":"m 1063 60 l 1063 -27 l 222 -27 l 581 439 l 212 1004 l 1058 1004 l 1058 917 l 385 917 l 700 434 l 396 60 l 1063 60 z "},"∕":{"ha":1389,"x_min":363,"x_max":1009,"o":"m 955 1139 l 1009 1112 l 418 -136 l 363 -109 l 955 1139 z "},"√":{"ha":1389,"x_min":385,"x_max":1112,"o":"m 1112 982 l 781 -11 l 499 358 l 423 288 l 385 326 l 521 467 l 760 179 l 1036 1020 l 1112 982 z "},"∝":{"ha":1389,"x_min":152,"x_max":1232,"o":"m 743 575 q 987 735 830 700 q 1232 711 1145 770 l 1215 646 q 1072 665 1128 673 q 936 624 1015 656 q 787 510 857 591 q 947 391 890 412 q 1069 372 1004 369 q 1215 407 1134 374 l 1226 320 q 963 285 1090 260 q 738 445 836 309 q 629 334 705 385 q 439 282 553 282 q 239 350 326 282 q 155 515 152 418 q 231 667 157 613 q 374 735 304 722 q 502 741 445 749 q 627 692 559 732 q 743 575 694 651 m 684 510 q 581 610 651 559 q 426 656 510 662 q 298 610 342 651 q 250 524 255 570 q 290 431 244 477 q 404 374 336 385 q 543 391 472 363 q 684 510 613 418 z "},"∞":{"ha":1389,"x_min":103,"x_max":1286,"o":"m 374 743 q 689 575 543 749 q 863 716 760 667 q 1183 684 1053 776 q 1270 472 1286 586 q 1074 277 1237 320 q 689 445 852 239 q 575 336 640 385 q 363 277 483 266 q 125 423 174 298 q 109 515 103 467 q 304 738 130 694 l 374 743 m 369 673 q 195 537 250 684 q 293 363 179 418 q 396 336 326 342 l 423 336 q 635 510 521 358 q 380 673 553 651 l 369 673 m 971 673 q 760 537 884 678 l 743 510 q 868 380 792 439 q 1015 336 922 336 l 1025 336 q 1188 532 1188 358 q 993 673 1134 673 l 971 673 z "},"∟":{"ha":1389,"x_min":239,"x_max":1134,"o":"m 239 928 l 326 928 l 326 168 l 1134 168 l 1134 81 l 239 81 l 239 928 z "},"∠":{"ha":1389,"x_min":244,"x_max":1194,"o":"m 1134 928 l 1194 868 l 439 168 l 1134 168 l 1134 81 l 244 81 l 1134 928 z "},"∣":{"ha":1389,"x_min":656,"x_max":727,"o":"m 656 1177 l 727 1177 l 727 -174 l 656 -174 l 656 1177 z "},"∥":{"ha":1389,"x_min":212,"x_max":1199,"o":"m 798 966 l 293 11 l 212 38 l 716 993 l 798 966 m 1199 966 l 694 11 l 608 33 l 1118 993 l 1199 966 z "},"∧":{"ha":1389,"x_min":190,"x_max":1199,"o":"m 705 1063 l 1199 -43 l 1107 -65 l 705 884 l 266 -65 l 190 -33 l 694 1063 l 705 1063 z "},"∨":{"ha":1389,"x_min":174,"x_max":1215,"o":"m 694 -60 l 174 982 l 239 1031 l 700 119 l 1139 1025 l 1215 982 l 711 -60 l 694 -60 z "},"∩":{"ha":1389,"x_min":298,"x_max":1085,"o":"m 694 1004 q 1047 852 922 1009 q 1085 673 1085 792 l 1085 49 l 998 49 l 998 722 q 689 917 977 895 q 407 787 494 922 q 385 575 380 770 l 385 49 l 298 49 l 298 700 q 618 1004 298 944 l 694 1004 z "},"∪":{"ha":1389,"x_min":293,"x_max":1085,"o":"m 298 960 l 385 960 l 385 309 q 738 103 401 76 q 993 250 933 109 q 998 401 998 255 l 998 960 l 1085 960 l 1085 277 q 640 16 1053 -5 q 320 190 396 22 q 298 564 293 260 l 298 960 z "},"∫":{"ha":1389,"x_min":412,"x_max":977,"o":"m 732 591 q 732 499 732 591 q 732 109 732 407 q 670 -57 727 -16 q 543 -87 613 -98 q 434 -11 456 -76 q 445 141 412 54 l 526 119 q 510 27 494 65 q 572 -11 526 -11 q 637 30 618 -11 q 656 141 656 71 q 656 380 656 212 q 656 879 656 548 q 719 1053 662 1009 q 846 1085 776 1096 q 955 998 933 1063 q 944 846 977 933 l 863 868 q 879 966 895 928 q 817 1004 863 1004 q 751 963 770 1004 q 732 849 732 922 q 732 591 732 776 z "},"∮":{"ha":1389,"x_min":412,"x_max":977,"o":"m 732 336 q 846 418 814 342 q 849 572 879 494 q 732 662 819 651 l 732 336 m 656 662 q 545 567 581 646 q 548 418 510 488 q 656 336 586 347 l 656 662 m 656 260 q 475 388 521 282 q 477 605 429 494 q 656 732 526 716 l 656 895 q 719 1055 662 1015 q 846 1085 776 1096 q 955 1006 933 1069 q 944 863 977 944 l 863 884 q 879 974 895 939 q 817 1009 863 1009 q 751 971 770 1009 q 732 865 732 933 q 732 738 732 798 q 917 605 863 716 q 920 382 971 494 q 732 255 868 271 l 732 98 q 670 -60 727 -22 q 543 -87 613 -98 q 434 -14 456 -76 q 445 130 412 49 l 526 109 q 510 19 494 54 q 572 -16 526 -16 q 637 22 618 -16 q 656 260 656 60 z "},"∴":{"ha":1389,"x_min":250,"x_max":1139,"o":"m 602 895 l 781 895 l 781 716 l 602 716 l 602 895 m 250 282 l 429 282 l 429 103 l 250 103 l 250 282 m 960 282 l 1139 282 l 1139 103 l 960 103 l 960 282 z "},"∵":{"ha":1389,"x_min":250,"x_max":1139,"o":"m 787 103 l 608 103 l 608 282 l 787 282 l 787 103 m 1139 716 l 960 716 l 960 895 l 1139 895 l 1139 716 m 429 716 l 250 716 l 250 895 l 429 895 l 429 716 z "},"∶":{"ha":1389,"x_min":602,"x_max":781,"o":"m 602 868 l 781 868 l 781 689 l 602 689 l 602 868 m 602 336 l 781 336 l 781 157 l 602 157 l 602 336 z "},"∷":{"ha":1389,"x_min":255,"x_max":1123,"o":"m 255 255 l 445 255 l 445 65 l 255 65 l 255 255 m 255 933 l 445 933 l 445 743 l 255 743 l 255 933 m 933 255 l 1123 255 l 1123 65 l 933 65 l 933 255 m 933 933 l 1123 933 l 1123 743 l 933 743 l 933 933 z "},"∽":{"ha":1389,"x_min":141,"x_max":1253,"o":"m 385 635 q 277 594 315 624 q 241 505 239 564 q 290 415 244 445 q 407 391 336 385 q 548 456 477 396 q 670 575 618 515 q 798 689 722 635 q 985 746 873 743 q 1175 678 1096 749 q 1245 502 1253 608 q 1158 347 1237 396 q 966 304 1080 298 l 966 391 q 1090 423 1047 385 q 1137 518 1134 461 q 1088 618 1139 575 q 966 656 1036 662 q 819 583 895 651 q 686 453 743 515 q 559 347 629 391 q 382 304 488 304 q 209 363 277 304 q 141 510 141 423 q 212 659 141 597 q 385 716 282 722 l 385 635 z "},"≈":{"ha":1389,"x_min":157,"x_max":1232,"o":"m 1232 347 q 1085 239 1172 282 q 903 214 998 195 q 713 293 808 233 q 532 391 618 353 q 366 404 445 429 q 157 260 288 380 l 157 363 q 315 480 239 445 q 475 499 391 515 q 686 410 559 483 q 892 309 814 336 q 1053 323 971 282 q 1232 450 1134 363 l 1232 347 m 1232 646 q 1085 537 1172 581 q 903 513 998 494 q 713 591 808 532 q 532 689 618 651 q 366 703 445 727 q 157 559 288 678 l 157 662 q 315 779 239 743 q 475 798 391 814 q 686 708 559 781 q 892 608 814 635 q 1053 621 971 581 q 1232 749 1134 662 l 1232 646 z "},"≌":{"ha":1389,"x_min":157,"x_max":1259,"o":"m 1226 136 l 1226 60 l 157 60 l 157 136 l 1226 136 m 401 781 q 293 749 336 781 q 252 659 250 716 q 298 567 255 602 q 418 529 342 532 q 562 594 494 526 q 673 722 629 662 q 784 830 716 781 q 971 887 852 879 q 1175 819 1090 895 q 1253 646 1259 743 q 1172 496 1248 548 q 982 450 1096 445 l 982 532 q 1109 564 1063 526 q 1156 659 1156 602 q 1093 762 1156 716 q 952 803 1031 808 q 806 724 873 798 q 686 591 738 651 q 570 486 635 532 q 399 442 505 439 q 225 507 293 445 q 157 656 157 570 q 228 806 157 743 q 401 863 298 868 l 401 781 m 1232 374 l 1232 298 l 163 298 l 163 374 l 1232 374 z "},"≒":{"ha":1389,"x_min":212,"x_max":1156,"o":"m 212 700 l 1156 700 l 1156 597 l 212 597 l 212 700 m 212 412 l 1156 412 l 1156 309 l 212 309 l 212 412 m 873 174 l 1020 174 l 1020 38 l 873 38 l 873 174 m 358 960 l 505 960 l 505 825 l 358 825 l 358 960 z "},"≠":{"ha":1389,"x_min":212,"x_max":1156,"o":"m 776 949 l 863 928 l 792 700 l 1156 700 l 1156 602 l 765 602 l 705 412 l 1156 412 l 1156 315 l 673 315 l 597 65 l 510 87 l 581 315 l 212 315 l 212 412 l 608 412 l 667 602 l 212 602 l 212 700 l 700 700 l 776 949 z "},"≡":{"ha":1389,"x_min":212,"x_max":1156,"o":"m 212 836 l 1156 836 l 1156 743 l 212 743 l 212 836 m 212 543 l 1156 543 l 1156 450 l 212 450 l 212 543 m 212 266 l 1156 266 l 1156 174 l 212 174 l 212 266 z "},"≤":{"ha":1389,"x_min":152,"x_max":1232,"o":"m 1232 60 l 1215 -16 l 152 342 l 168 412 l 1232 60 m 1232 949 l 331 646 l 1232 353 l 1215 271 l 152 635 l 152 662 l 1210 1020 l 1232 949 z "},"≥":{"ha":1389,"x_min":190,"x_max":1237,"o":"m 228 -5 l 212 71 l 1221 412 l 1237 342 l 228 -5 m 190 380 l 1036 651 l 201 955 l 222 1025 l 1232 667 l 1232 640 l 212 304 l 190 380 z "},"≦":{"ha":1389,"x_min":212,"x_max":1145,"o":"m 1118 1042 l 1134 960 l 472 743 l 1145 521 l 1128 445 l 212 743 l 1118 1042 m 228 380 l 1145 380 l 1145 298 l 228 298 l 228 380 m 228 184 l 1145 184 l 1145 103 l 228 103 l 228 184 z "},"≧":{"ha":1389,"x_min":222,"x_max":1166,"o":"m 255 1042 l 1166 743 l 244 445 l 222 521 l 911 743 l 233 966 l 255 1042 m 228 380 l 1145 380 l 1145 298 l 228 298 l 228 380 m 228 184 l 1145 184 l 1145 103 l 228 103 l 228 184 z "},"≮":{"ha":1389,"x_min":152,"x_max":1232,"o":"m 1232 808 l 684 613 l 684 391 l 1226 206 l 1226 114 l 684 304 l 684 -33 l 597 -33 l 597 326 l 152 483 l 152 515 l 597 673 l 597 1047 l 684 1047 l 684 694 l 1232 890 l 1232 808 m 597 597 l 326 499 l 597 412 l 597 597 z "},"≯":{"ha":1389,"x_min":157,"x_max":1232,"o":"m 157 201 l 700 396 l 700 613 l 163 798 l 163 890 l 700 700 l 700 1036 l 787 1036 l 787 678 l 1232 521 l 1232 494 l 787 336 l 787 -38 l 700 -38 l 700 315 l 157 119 l 157 201 m 787 418 l 1042 499 l 787 591 l 787 418 z "},"⊕":{"ha":1389,"x_min":195,"x_max":1210,"o":"m 678 998 q 1123 760 982 987 q 1194 450 1210 629 q 884 38 1172 174 q 640 5 781 -5 q 233 298 336 49 q 195 510 195 385 l 195 515 q 477 955 201 792 q 678 998 564 998 m 640 944 q 266 629 385 917 l 250 553 l 662 553 l 662 944 l 640 944 m 727 944 l 727 553 l 1139 553 l 1139 570 q 781 939 1101 841 l 727 944 m 250 488 l 250 450 q 564 76 282 184 l 662 60 l 662 488 l 250 488 m 727 488 l 727 60 q 1118 358 1004 87 q 1139 488 1139 407 l 727 488 z "},"⊙":{"ha":1389,"x_min":152,"x_max":1226,"o":"m 279 152 q 224 214 279 152 q 160 483 168 277 q 271 830 152 689 q 553 1012 391 971 q 865 1004 716 1053 q 1120 819 1015 955 q 1221 486 1226 684 q 1107 157 1215 288 q 844 -14 998 27 q 540 -14 689 -54 q 279 152 391 27 m 1161 515 q 1158 605 1161 515 q 1053 808 1156 694 q 822 958 949 922 q 562 955 694 993 q 326 803 429 917 q 220 505 222 689 q 323 195 217 320 q 564 38 429 71 q 833 43 700 5 q 1066 209 966 81 q 1161 515 1166 336 m 795 488 q 791 461 795 488 q 730 410 787 434 q 624 420 673 385 q 583 515 575 456 q 651 597 591 575 q 757 581 711 618 q 795 488 803 543 z "},"⊥":{"ha":1389,"x_min":239,"x_max":1134,"o":"m 646 928 l 732 928 l 732 168 l 1134 168 l 1134 81 l 239 81 l 239 168 l 646 168 l 646 928 z "},"⊿":{"ha":1389,"x_min":244,"x_max":1134,"o":"m 1134 928 l 1134 81 l 244 81 l 1134 928 m 1053 749 l 418 168 l 1053 168 l 1053 749 z "},"⌒":{"ha":1389,"x_min":163,"x_max":1221,"o":"m 163 499 q 288 757 179 624 q 551 928 396 890 q 860 917 705 966 q 1118 746 1015 868 q 1221 499 1221 624 l 1150 499 q 1053 722 1150 608 q 827 871 955 836 q 564 868 700 906 q 336 722 429 830 q 222 499 244 613 l 163 499 z "},"①":{"ha":1389,"x_min":54,"x_max":1340,"o":"m 724 -141 q 585 -149 724 -141 q 252 33 445 -157 q 57 477 60 222 q 190 901 54 732 q 507 1118 326 1069 q 868 1123 689 1166 q 1194 909 1047 1080 q 1335 486 1340 738 q 1166 54 1329 233 q 724 -141 1004 -125 m 1164 155 q 1222 232 1164 155 q 1270 537 1280 309 q 1090 930 1259 765 q 681 1088 922 1096 q 277 906 439 1080 q 119 496 114 732 q 263 114 125 260 q 559 -68 401 -33 q 882 -52 716 -103 q 1164 155 1047 0 m 640 743 q 450 591 564 667 l 450 705 q 689 955 597 808 l 749 955 l 749 60 l 640 60 l 640 743 z "},"②":{"ha":1389,"x_min":54,"x_max":1340,"o":"m 724 -141 q 585 -149 724 -141 q 252 33 445 -157 q 57 477 60 222 q 190 901 54 732 q 507 1118 326 1069 q 868 1123 689 1166 q 1194 909 1047 1080 q 1335 486 1340 738 q 1166 54 1329 233 q 724 -141 1004 -125 m 1164 155 q 1222 232 1164 155 q 1270 537 1280 309 q 1090 930 1259 765 q 681 1088 922 1096 q 277 906 439 1080 q 119 496 114 732 q 263 114 125 260 q 559 -68 401 -33 q 882 -52 716 -103 q 1164 155 1047 0 m 423 60 q 515 214 429 125 q 689 418 602 304 q 808 610 776 532 q 830 749 841 689 q 779 836 819 808 q 678 857 738 863 q 575 811 618 852 q 499 673 532 770 l 391 689 q 494 873 423 803 q 662 955 564 944 q 770 949 722 960 q 863 909 819 939 q 933 825 906 879 q 949 689 960 770 q 863 491 939 608 q 602 163 787 374 l 966 163 l 966 60 l 423 60 z "},"③":{"ha":1389,"x_min":54,"x_max":1340,"o":"m 724 -141 q 585 -149 724 -141 q 252 33 445 -157 q 57 477 60 222 q 190 901 54 732 q 507 1118 326 1069 q 868 1123 689 1166 q 1194 909 1047 1080 q 1335 486 1340 738 q 1166 54 1329 233 q 724 -141 1004 -125 m 1164 155 q 1222 232 1164 155 q 1270 537 1280 309 q 1090 930 1259 765 q 681 1088 922 1096 q 277 906 439 1080 q 119 496 114 732 q 263 114 125 260 q 559 -68 401 -33 q 882 -52 716 -103 q 1164 155 1047 0 m 396 298 l 505 309 q 556 195 510 244 q 694 149 602 146 q 836 206 787 152 q 876 331 884 260 q 808 442 868 401 q 629 488 749 483 l 629 570 q 811 621 754 575 q 863 743 868 667 q 784 852 857 819 q 632 860 711 884 q 499 700 553 836 l 396 722 q 494 887 429 830 q 656 955 559 944 q 836 933 754 966 q 949 827 917 901 q 968 675 982 754 q 846 526 955 597 q 966 415 933 483 q 977 247 998 347 q 873 95 955 146 q 684 43 792 43 q 494 100 575 43 q 396 298 412 157 z "},"④":{"ha":1389,"x_min":54,"x_max":1340,"o":"m 724 -141 q 585 -149 724 -141 q 252 33 445 -157 q 57 477 60 222 q 190 901 54 732 q 507 1118 326 1069 q 868 1123 689 1166 q 1194 909 1047 1080 q 1335 486 1340 738 q 1166 54 1329 233 q 724 -141 1004 -125 m 1164 155 q 1222 232 1164 155 q 1270 537 1280 309 q 1090 930 1259 765 q 681 1088 922 1096 q 277 906 439 1080 q 119 496 114 732 q 263 114 125 260 q 559 -68 401 -33 q 882 -52 716 -103 q 1164 155 1047 0 m 749 266 l 315 266 l 315 353 l 776 955 l 857 955 l 857 353 l 1025 353 l 1025 266 l 857 266 l 857 60 l 749 60 l 749 266 m 749 353 l 749 765 l 423 353 l 749 353 z "},"⑤":{"ha":1389,"x_min":54,"x_max":1340,"o":"m 724 -141 q 585 -149 724 -141 q 252 33 445 -157 q 57 477 60 222 q 190 901 54 732 q 507 1118 326 1069 q 868 1123 689 1166 q 1194 909 1047 1080 q 1335 486 1340 738 q 1166 54 1329 233 q 724 -141 1004 -125 m 1164 155 q 1222 232 1164 155 q 1270 537 1280 309 q 1090 930 1259 765 q 681 1088 922 1096 q 277 906 439 1080 q 119 496 114 732 q 263 114 125 260 q 559 -68 401 -33 q 882 -52 716 -103 q 1164 155 1047 0 m 483 309 q 616 155 521 179 q 770 160 711 130 q 860 252 830 190 q 882 377 890 315 q 838 486 873 439 q 746 545 803 532 q 621 545 689 559 q 505 483 553 532 l 418 483 l 510 939 l 960 939 l 960 852 l 597 852 q 548 618 570 711 q 814 640 711 684 q 955 515 917 597 q 990 358 993 434 q 963 225 987 282 q 898 127 939 168 q 795 62 857 87 q 643 43 732 38 q 480 106 553 49 q 380 277 407 163 l 483 309 z "},"⑥":{"ha":1389,"x_min":54,"x_max":1340,"o":"m 724 -141 q 585 -149 724 -141 q 252 33 445 -157 q 57 477 60 222 q 190 901 54 732 q 507 1118 326 1069 q 868 1123 689 1166 q 1194 909 1047 1080 q 1335 486 1340 738 q 1166 54 1329 233 q 724 -141 1004 -125 m 1164 155 q 1222 232 1164 155 q 1270 537 1280 309 q 1090 930 1259 765 q 681 1088 922 1096 q 277 906 439 1080 q 119 496 114 732 q 263 114 125 260 q 559 -68 401 -33 q 882 -52 716 -103 q 1164 155 1047 0 m 380 353 q 382 388 380 353 q 412 475 385 423 q 488 613 439 526 l 700 955 l 808 955 l 597 608 q 841 589 760 635 q 952 483 922 543 q 985 355 982 423 q 966 222 987 288 q 882 103 944 157 q 694 43 819 49 q 502 81 570 38 q 404 203 434 125 q 380 353 374 282 m 534 187 q 557 161 534 187 q 673 136 581 136 q 819 190 765 136 q 873 347 873 244 q 800 494 873 450 q 640 524 727 537 q 515 448 553 510 q 483 312 477 385 q 534 187 488 239 z "},"⑦":{"ha":1389,"x_min":54,"x_max":1340,"o":"m 724 -141 q 585 -149 724 -141 q 252 33 445 -157 q 57 477 60 222 q 190 901 54 732 q 507 1118 326 1069 q 868 1123 689 1166 q 1194 909 1047 1080 q 1335 486 1340 738 q 1166 54 1329 233 q 724 -141 1004 -125 m 1164 155 q 1222 232 1164 155 q 1270 537 1280 309 q 1090 930 1259 765 q 681 1088 922 1096 q 277 906 439 1080 q 119 496 114 732 q 263 114 125 260 q 559 -68 401 -33 q 882 -52 716 -103 q 1164 155 1047 0 m 559 60 q 863 841 656 472 l 418 841 l 418 939 l 987 939 l 987 852 q 689 60 770 472 l 559 60 z "},"⑧":{"ha":1389,"x_min":54,"x_max":1340,"o":"m 724 -141 q 585 -149 724 -141 q 252 33 445 -157 q 57 477 60 222 q 190 901 54 732 q 507 1118 326 1069 q 868 1123 689 1166 q 1194 909 1047 1080 q 1335 486 1340 738 q 1166 54 1329 233 q 724 -141 1004 -125 m 1164 155 q 1222 232 1164 155 q 1270 537 1280 309 q 1090 930 1259 765 q 681 1088 922 1096 q 277 906 439 1080 q 119 496 114 732 q 263 114 125 260 q 559 -68 401 -33 q 882 -52 716 -103 q 1164 155 1047 0 m 399 317 q 400 349 399 317 q 437 434 401 380 q 543 532 472 488 q 439 659 461 586 q 439 795 418 732 q 502 892 461 857 q 589 941 543 928 q 692 955 635 955 q 800 941 749 955 q 892 895 852 928 q 955 808 933 863 q 960 673 977 754 q 841 526 944 591 q 963 429 928 483 q 1001 309 998 374 q 966 176 1004 244 q 857 76 928 109 q 684 43 787 43 q 513 87 581 43 q 420 193 445 130 q 399 317 396 255 m 505 320 q 502 290 505 320 q 532 214 499 260 q 629 152 564 168 q 768 155 694 136 q 868 231 841 174 q 884 345 895 288 q 814 439 873 401 q 684 472 754 477 q 562 423 613 467 q 505 320 510 380 m 532 727 q 532 703 532 727 q 572 629 532 678 q 694 581 613 581 q 822 629 776 581 q 865 735 868 678 q 811 827 863 792 q 681 857 760 863 q 567 814 602 852 q 532 727 532 776 z "},"⑨":{"ha":1389,"x_min":54,"x_max":1340,"o":"m 724 -141 q 585 -149 724 -141 q 252 33 445 -157 q 57 477 60 222 q 190 901 54 732 q 507 1118 326 1069 q 868 1123 689 1166 q 1194 909 1047 1080 q 1335 486 1340 738 q 1166 54 1329 233 q 724 -141 1004 -125 m 1164 155 q 1222 232 1164 155 q 1270 537 1280 309 q 1090 930 1259 765 q 681 1088 922 1096 q 277 906 439 1080 q 119 496 114 732 q 263 114 125 260 q 559 -68 401 -33 q 882 -52 716 -103 q 1164 155 1047 0 m 543 43 q 754 391 667 239 q 524 431 608 369 q 423 594 439 494 q 429 760 407 694 q 494 868 450 825 q 589 933 537 911 q 705 955 640 955 q 833 939 776 955 q 933 879 890 922 q 996 787 977 836 q 1009 665 1015 738 q 947 488 1004 591 q 667 43 890 385 l 543 43 m 526 621 q 532 587 526 621 q 583 515 537 553 q 694 477 629 477 q 808 505 760 477 q 884 591 857 532 q 895 727 911 667 q 833 825 879 787 q 716 863 787 863 q 624 846 678 868 q 543 757 570 825 q 526 621 515 689 z "},"⑩":{"ha":1389,"x_min":54,"x_max":1340,"o":"m 724 -141 q 585 -149 724 -141 q 252 33 445 -157 q 57 477 60 222 q 190 901 54 732 q 507 1118 326 1069 q 868 1123 689 1166 q 1194 909 1047 1080 q 1335 486 1340 738 q 1166 54 1329 233 q 724 -141 1004 -125 m 1164 155 q 1222 232 1164 155 q 1270 537 1280 309 q 1090 930 1259 765 q 681 1088 922 1096 q 277 906 439 1080 q 119 496 114 732 q 263 114 125 260 q 559 -68 401 -33 q 882 -52 716 -103 q 1164 155 1047 0 m 429 749 q 266 624 374 689 l 266 738 q 477 955 385 814 l 526 955 l 526 60 l 429 60 l 429 749 m 624 629 q 629 689 624 629 q 675 830 635 749 q 789 947 716 911 q 939 947 863 982 q 1053 833 1015 911 q 1101 632 1090 754 q 1101 385 1112 510 q 1050 179 1090 260 q 936 62 1009 98 q 789 62 863 27 q 678 182 716 98 q 627 388 640 266 q 624 629 613 510 m 724 665 q 718 590 724 665 q 724 374 711 515 q 800 168 738 233 q 928 168 863 103 q 1001 374 993 233 q 1001 665 1009 515 q 928 860 993 814 q 800 860 863 906 q 724 665 738 814 z "},"⑴":{"ha":1389,"x_min":43,"x_max":1340,"o":"m 651 808 q 472 673 581 743 l 472 776 q 694 987 608 868 l 760 987 l 760 49 l 651 49 l 651 808 m 1199 987 q 1340 505 1329 830 q 1204 -16 1340 179 l 1139 16 q 1270 505 1264 228 q 1139 955 1264 781 l 1199 987 m 244 955 q 114 505 119 781 q 244 16 119 228 l 179 -16 q 43 505 54 179 q 179 987 54 830 l 244 955 z "},"⑵":{"ha":1389,"x_min":43,"x_max":1340,"o":"m 412 76 q 491 222 418 157 q 667 420 564 288 q 803 618 770 553 q 836 749 836 684 q 784 852 836 814 q 675 887 732 890 q 570 841 618 884 q 494 716 521 798 l 396 738 q 505 922 434 863 q 662 987 575 982 q 770 982 722 993 q 863 941 819 971 q 936 854 906 911 q 952 703 966 798 q 865 502 939 608 q 570 152 792 396 l 966 152 l 966 49 l 412 49 l 412 76 m 244 955 q 114 505 119 781 q 244 16 119 228 l 179 -16 q 43 505 54 179 q 179 987 54 830 l 244 955 m 1199 987 q 1340 505 1329 830 q 1204 -16 1340 179 l 1139 16 q 1270 505 1264 228 q 1139 955 1264 781 l 1199 987 z "},"⑶":{"ha":1389,"x_min":43,"x_max":1340,"o":"m 412 288 l 515 304 q 556 193 515 239 q 689 144 597 146 q 825 195 781 141 q 863 323 868 250 q 806 445 857 396 q 640 505 754 494 l 640 581 q 803 637 754 586 q 846 765 852 689 q 776 876 841 841 q 640 884 711 911 q 521 732 570 857 l 423 743 q 513 914 450 846 q 665 990 575 982 q 827 963 754 998 q 930 854 901 928 q 947 697 960 781 q 836 537 933 613 q 958 423 922 488 q 966 247 993 358 q 860 84 939 136 q 686 35 781 33 q 513 98 591 38 q 412 288 434 157 m 1199 987 q 1340 505 1329 830 q 1204 -16 1340 179 l 1139 16 q 1270 505 1264 228 q 1139 955 1264 781 l 1199 987 m 244 955 q 114 505 119 781 q 244 16 119 228 l 179 -16 q 43 505 54 179 q 179 987 54 830 l 244 955 z "},"⑷":{"ha":1389,"x_min":43,"x_max":1340,"o":"m 770 255 l 358 255 l 358 347 l 798 982 l 873 982 l 873 347 l 1020 347 l 1020 255 l 873 255 l 873 49 l 770 49 l 770 255 m 770 347 l 770 765 l 477 347 l 770 347 m 1199 987 q 1340 505 1329 830 q 1204 -11 1340 179 l 1139 16 q 1270 505 1264 228 q 1139 955 1264 781 l 1199 987 m 244 955 q 114 505 119 781 q 244 16 119 228 l 179 -11 q 43 505 54 179 q 179 987 54 830 l 244 955 z "},"⑸":{"ha":1389,"x_min":43,"x_max":1340,"o":"m 488 304 q 618 144 526 163 q 768 160 711 125 q 849 252 825 195 q 868 377 873 309 q 830 494 863 445 q 743 559 798 543 q 621 559 689 575 q 510 488 553 543 l 418 494 q 521 971 429 526 l 944 971 l 944 868 l 602 868 q 548 629 575 727 q 697 665 624 667 q 836 632 770 662 q 930 551 901 602 q 974 450 960 499 q 985 342 987 401 q 958 222 982 282 q 892 122 933 163 q 789 54 852 81 q 646 33 727 27 q 491 95 564 38 q 391 277 418 152 l 488 304 m 1199 987 q 1340 505 1329 830 q 1204 -16 1340 179 l 1139 16 q 1270 505 1264 228 q 1139 955 1264 781 l 1199 987 m 244 955 q 114 505 119 781 q 244 16 119 228 l 179 -16 q 43 505 54 179 q 179 987 54 830 l 244 955 z "},"⑹":{"ha":1389,"x_min":43,"x_max":1340,"o":"m 385 366 q 388 406 385 366 q 415 499 391 445 q 488 635 439 553 l 711 987 l 830 987 l 608 624 q 836 613 749 662 q 955 502 922 564 q 987 366 987 439 q 966 222 987 293 q 882 95 944 152 q 705 33 819 38 q 515 73 591 27 q 410 203 439 119 q 385 366 380 288 m 548 187 q 572 161 548 187 q 681 130 597 136 q 819 184 765 125 q 873 358 873 244 q 806 515 873 472 q 654 548 738 559 q 532 467 570 537 q 496 317 494 396 q 548 187 499 239 m 1199 1015 q 1340 532 1329 857 q 1204 11 1340 206 l 1139 43 q 1270 532 1264 255 q 1139 982 1264 808 l 1199 1015 m 244 982 q 114 532 119 808 q 244 43 119 255 l 179 11 q 43 532 54 206 q 179 1015 54 857 l 244 982 z "},"⑺":{"ha":1389,"x_min":43,"x_max":1340,"o":"m 537 49 q 879 873 635 472 l 418 873 l 418 971 l 998 971 l 998 879 q 662 49 743 472 l 537 49 m 1199 1015 q 1340 532 1329 857 q 1204 11 1340 206 l 1139 43 q 1270 532 1264 255 q 1139 982 1264 808 l 1199 1015 m 244 982 q 114 532 119 808 q 244 43 119 255 l 179 11 q 43 532 54 206 q 179 1015 54 857 l 244 982 z "},"⑻":{"ha":1389,"x_min":43,"x_max":1340,"o":"m 401 315 q 401 350 401 315 q 437 442 401 385 q 543 548 472 499 q 450 632 472 586 q 426 735 429 678 q 442 838 423 792 q 502 922 461 884 q 589 974 543 960 q 689 987 635 987 q 798 974 743 987 q 890 928 852 960 q 949 841 928 895 q 955 697 971 787 q 830 543 939 608 q 955 450 917 505 q 993 317 993 396 q 968 187 993 239 q 906 103 944 136 q 822 52 868 71 q 694 33 776 33 q 553 54 613 33 q 464 111 494 76 q 418 195 434 146 q 401 315 401 244 m 507 326 q 506 293 507 326 q 534 209 505 260 q 627 144 564 157 q 760 146 689 130 q 863 225 830 163 q 882 347 895 288 q 808 448 868 407 q 678 483 749 488 q 559 434 608 477 q 507 326 510 391 m 532 746 q 532 720 532 746 q 570 646 532 694 q 689 597 608 597 q 817 646 770 597 q 860 760 863 694 q 806 860 857 825 q 675 890 754 895 q 564 841 597 884 q 532 746 532 798 m 1199 1015 q 1340 532 1329 857 q 1204 11 1340 206 l 1139 43 q 1270 532 1264 255 q 1139 982 1264 808 l 1199 1015 m 244 982 q 114 532 119 808 q 244 43 119 255 l 179 11 q 43 532 54 206 q 179 1015 54 857 l 244 982 z "},"⑼":{"ha":1389,"x_min":43,"x_max":1340,"o":"m 526 33 q 738 385 651 217 q 499 426 581 363 q 401 600 418 488 q 407 779 385 711 q 469 892 429 846 q 559 963 510 939 q 673 987 608 987 q 806 971 749 993 q 906 903 863 949 q 968 806 949 857 q 985 681 987 754 q 925 494 982 608 q 656 33 868 380 l 526 33 m 507 632 q 511 595 507 632 q 562 515 515 559 q 670 472 608 472 q 781 505 732 472 q 852 597 830 537 q 863 741 879 678 q 800 844 846 803 q 689 890 754 884 q 602 871 656 895 q 524 776 548 846 q 507 632 499 705 m 1199 1015 q 1340 532 1329 857 q 1204 11 1340 206 l 1139 43 q 1270 532 1264 255 q 1139 982 1264 808 l 1199 1015 m 244 982 q 114 532 119 808 q 244 43 119 255 l 179 11 q 43 532 54 206 q 179 1015 54 857 l 244 982 z "},"⑽":{"ha":1389,"x_min":43,"x_max":1340,"o":"m 401 798 q 298 711 353 738 l 298 808 q 445 987 369 852 l 488 987 l 488 49 l 401 49 l 401 798 m 662 646 q 667 708 662 646 q 713 854 673 770 q 819 974 754 939 q 955 974 884 1009 q 1058 854 1025 939 q 1099 646 1090 770 q 1099 391 1107 521 q 1055 174 1090 260 q 952 52 1020 87 q 817 52 884 16 q 713 174 749 87 q 665 391 678 260 q 662 646 651 521 m 754 681 q 749 604 754 681 q 754 377 743 526 q 825 160 765 228 q 944 160 884 92 q 1012 377 1004 228 q 1012 681 1020 526 q 944 884 1004 836 q 825 884 884 933 q 754 681 765 836 m 1199 1015 q 1340 532 1329 857 q 1204 11 1340 206 l 1139 43 q 1270 532 1264 255 q 1139 982 1264 808 l 1199 1015 m 244 982 q 114 532 119 808 q 244 43 119 255 l 179 11 q 43 532 54 206 q 179 1015 54 857 l 244 982 z "},"⑾":{"ha":1389,"x_min":43,"x_max":1340,"o":"m 439 798 q 336 711 391 738 l 336 808 q 483 987 407 852 l 532 987 l 532 49 l 439 49 l 439 798 m 911 798 q 803 711 857 738 l 803 808 q 949 987 873 852 l 998 987 l 998 49 l 911 49 l 911 798 m 1199 1015 q 1340 532 1329 857 q 1204 11 1340 206 l 1139 43 q 1270 532 1264 255 q 1139 982 1264 808 l 1199 1015 m 244 982 q 114 532 119 808 q 244 43 119 255 l 179 11 q 43 532 54 206 q 179 1015 54 857 l 244 982 z "},"⑿":{"ha":1389,"x_min":43,"x_max":1340,"o":"m 1199 1015 q 1340 532 1329 857 q 1204 11 1340 206 l 1139 43 q 1270 532 1264 255 q 1139 982 1264 808 l 1199 1015 m 244 982 q 114 532 119 808 q 244 43 119 255 l 179 11 q 43 532 54 206 q 179 1015 54 857 l 244 982 m 646 71 q 708 212 651 152 q 846 412 765 271 q 949 624 928 553 q 971 757 971 694 q 939 857 971 819 q 857 890 906 895 q 770 838 808 884 q 705 727 732 792 l 624 760 q 716 925 662 868 q 846 987 770 982 q 922 985 884 993 q 1001 947 960 977 q 1063 863 1042 917 q 1077 719 1085 808 q 1006 505 1069 629 q 776 146 944 380 l 1080 146 l 1080 49 l 646 49 l 646 71 m 385 798 q 282 711 336 738 l 282 808 q 429 987 353 852 l 477 987 l 477 49 l 385 49 l 385 798 z "},"⒀":{"ha":1389,"x_min":43,"x_max":1340,"o":"m 602 271 l 694 288 q 735 179 700 228 q 846 127 770 130 q 960 179 922 125 q 993 312 998 233 q 939 434 987 391 q 803 483 890 477 l 803 564 q 941 624 901 570 q 979 757 982 678 q 928 873 977 836 q 811 884 879 911 q 700 738 743 857 l 613 760 q 692 917 640 852 q 822 990 743 982 q 968 966 901 998 q 1069 865 1036 933 q 1085 697 1101 798 q 977 526 1069 597 q 1090 404 1063 472 q 1101 241 1118 336 q 1017 90 1085 146 q 849 35 949 33 q 686 92 749 38 q 602 271 624 146 m 1199 1015 q 1340 532 1329 857 q 1204 11 1340 206 l 1139 43 q 1270 532 1264 255 q 1139 982 1264 808 l 1199 1015 m 244 982 q 114 532 119 808 q 244 43 119 255 l 179 11 q 43 532 54 206 q 179 1015 54 857 l 244 982 m 385 798 q 282 711 336 738 l 282 808 q 429 987 353 852 l 477 987 l 477 49 l 385 49 l 385 798 z "},"⒁":{"ha":1389,"x_min":43,"x_max":1340,"o":"m 933 255 l 586 255 l 586 353 l 949 987 l 1025 987 l 1025 336 l 1128 336 l 1128 255 l 1025 255 l 1025 49 l 933 49 l 933 255 m 928 336 l 928 760 l 678 336 l 928 336 m 1199 1015 q 1340 532 1329 857 q 1204 11 1340 206 l 1139 43 q 1270 532 1264 255 q 1139 982 1264 808 l 1199 1015 m 244 982 q 114 532 119 808 q 244 43 119 255 l 179 11 q 43 532 54 206 q 179 1015 54 857 l 244 982 m 385 798 q 282 711 336 738 l 282 808 q 429 987 353 852 l 477 987 l 477 49 l 385 49 l 385 798 z "},"⒂":{"ha":1389,"x_min":43,"x_max":1340,"o":"m 689 288 q 795 136 716 152 q 920 152 873 119 q 982 239 966 184 q 993 361 998 293 q 960 475 987 429 q 890 534 933 521 q 795 534 846 548 q 700 467 743 521 l 624 472 q 705 971 629 521 l 1058 971 l 1058 884 l 787 884 q 738 602 754 716 q 860 635 798 635 q 971 608 922 635 q 1050 529 1020 581 q 1088 429 1080 477 q 1093 320 1096 380 q 1072 206 1090 260 q 1017 111 1053 152 q 928 49 982 71 q 803 35 873 27 q 678 98 732 43 q 602 260 624 152 l 689 288 m 1199 1015 q 1340 532 1329 857 q 1204 11 1340 206 l 1139 43 q 1270 532 1264 255 q 1139 982 1264 808 l 1199 1015 m 244 982 q 114 532 119 808 q 244 43 119 255 l 179 11 q 43 532 54 206 q 179 1015 54 857 l 244 982 m 385 798 q 282 711 336 738 l 282 808 q 429 987 353 852 l 477 987 l 477 49 l 385 49 l 385 798 z "},"⒃":{"ha":1389,"x_min":43,"x_max":1340,"o":"m 594 355 q 598 400 594 355 q 624 496 602 445 q 684 618 646 548 l 895 987 l 998 987 l 781 608 q 963 597 879 635 q 1077 496 1047 559 q 1107 355 1107 434 q 1088 212 1107 277 q 1012 92 1069 146 q 860 33 955 38 q 700 71 765 27 q 610 190 635 114 q 594 355 586 266 m 732 174 q 751 149 732 174 q 841 125 770 125 q 958 176 911 125 q 1001 342 1004 228 q 944 499 998 456 q 819 529 890 543 q 722 453 749 515 q 694 307 694 391 q 732 174 694 222 m 1199 1015 q 1340 532 1329 857 q 1204 11 1340 206 l 1139 43 q 1270 532 1264 255 q 1139 982 1264 808 l 1199 1015 m 244 982 q 114 532 119 808 q 244 43 119 255 l 179 11 q 43 532 54 206 q 179 1015 54 857 l 244 982 m 385 798 q 282 711 336 738 l 282 808 q 429 987 353 852 l 477 987 l 477 49 l 385 49 l 385 798 z "},"⒄":{"ha":1389,"x_min":43,"x_max":1340,"o":"m 716 49 q 998 884 798 418 l 651 884 l 651 971 l 1096 971 l 1096 884 q 808 49 890 418 l 716 49 m 1199 1015 q 1340 532 1329 857 q 1204 11 1340 206 l 1139 43 q 1270 532 1264 255 q 1139 982 1264 808 l 1199 1015 m 244 982 q 114 532 119 808 q 244 43 119 255 l 179 11 q 43 532 54 206 q 179 1015 54 857 l 244 982 m 385 798 q 282 711 336 738 l 282 808 q 429 987 353 852 l 477 987 l 477 49 l 385 49 l 385 798 z "},"⒅":{"ha":1389,"x_min":43,"x_max":1340,"o":"m 589 336 q 590 380 589 336 q 629 472 591 423 q 727 553 667 521 q 632 694 651 613 q 632 841 613 776 q 708 947 651 906 q 860 987 765 987 q 1006 952 955 987 q 1088 857 1058 917 q 1099 705 1118 798 q 998 553 1080 613 q 1101 472 1069 515 q 1139 334 1134 429 q 1104 157 1145 239 q 958 46 1063 76 q 757 52 852 16 q 624 168 662 87 q 589 336 586 250 m 716 751 q 716 718 716 751 q 754 637 716 684 q 857 589 792 591 q 963 632 922 586 q 1004 751 1004 678 q 963 860 1004 825 q 857 895 922 895 q 754 857 792 895 q 716 751 716 819 m 681 315 q 680 250 681 315 q 770 141 678 184 q 952 141 863 98 q 1042 315 1042 184 q 952 486 1042 445 q 773 486 863 526 q 681 315 684 445 m 1199 1015 q 1340 532 1329 857 q 1204 11 1340 206 l 1139 43 q 1270 532 1264 255 q 1139 982 1264 808 l 1199 1015 m 244 982 q 114 532 119 808 q 244 43 119 255 l 179 11 q 43 532 54 206 q 179 1015 54 857 l 244 982 m 385 798 q 282 711 336 738 l 282 808 q 429 987 353 852 l 477 987 l 477 49 l 385 49 l 385 798 z "},"⒆":{"ha":1389,"x_min":43,"x_max":1340,"o":"m 711 33 q 906 385 830 228 q 703 437 781 374 q 608 605 624 499 q 613 781 591 711 q 670 898 635 852 q 754 966 705 944 q 857 987 803 987 q 963 974 911 987 q 1058 911 1015 960 q 1115 819 1101 863 q 1123 703 1128 776 q 1069 507 1118 629 q 825 33 1020 385 l 711 33 m 705 637 q 708 598 705 637 q 757 518 711 559 q 854 477 803 477 q 939 510 906 477 q 998 621 971 543 q 1012 762 1025 700 q 960 857 998 825 q 879 895 922 890 q 792 876 836 901 q 724 784 749 852 q 705 637 700 716 m 1199 1015 q 1340 532 1329 857 q 1204 11 1340 206 l 1139 43 q 1270 532 1264 255 q 1139 982 1264 808 l 1199 1015 m 244 982 q 114 532 119 808 q 244 43 119 255 l 179 11 q 43 532 54 206 q 179 1015 54 857 l 244 982 m 385 798 q 282 711 336 738 l 282 808 q 429 987 353 852 l 477 987 l 477 49 l 385 49 l 385 798 z "},"⒇":{"ha":1389,"x_min":43,"x_max":1340,"o":"m 743 646 q 749 708 743 646 q 789 854 754 770 q 887 974 825 939 q 1015 974 949 1009 q 1109 854 1080 939 q 1147 646 1139 770 q 1147 391 1156 521 q 1107 174 1139 260 q 1012 52 1074 87 q 884 52 949 16 q 787 174 819 87 q 743 391 754 260 q 743 646 732 521 m 830 681 q 825 604 830 681 q 830 377 819 526 q 895 160 841 228 q 1001 160 949 92 q 1061 377 1053 228 q 1061 681 1069 526 q 1001 884 1053 836 q 895 884 949 933 q 830 681 841 836 m 1199 1015 q 1340 532 1329 857 q 1204 11 1340 206 l 1139 43 q 1270 532 1264 255 q 1139 982 1264 808 l 1199 1015 m 244 982 q 114 532 119 808 q 244 43 119 255 l 179 11 q 43 532 54 206 q 179 1015 54 857 l 244 982 m 282 71 q 336 203 282 136 q 467 410 391 271 q 562 621 543 548 q 581 757 581 694 q 553 854 581 819 q 477 887 526 890 q 393 838 429 884 q 336 727 358 792 l 255 749 q 347 925 293 868 q 467 987 401 982 q 543 982 505 993 q 616 939 581 971 q 667 854 651 906 q 673 711 684 803 q 608 494 662 618 q 401 146 553 369 l 678 146 l 678 49 l 282 49 l 282 71 z "},"⒈":{"ha":1389,"x_min":461,"x_max":1329,"o":"m 640 852 q 461 716 570 787 l 461 819 q 684 1042 597 911 l 765 1042 l 765 103 l 640 103 l 640 852 m 1150 298 l 1329 298 l 1329 119 l 1150 119 l 1150 298 z "},"⒉":{"ha":1389,"x_min":423,"x_max":1329,"o":"m 1150 298 l 1329 298 l 1329 119 l 1150 119 l 1150 298 m 439 125 q 518 266 445 206 q 694 464 591 326 q 830 684 798 602 q 857 822 863 765 q 811 911 852 879 q 713 941 770 944 q 602 890 656 939 q 521 770 548 841 l 423 792 q 545 977 467 917 q 694 1042 624 1036 q 798 1034 754 1042 q 884 996 841 1025 q 955 911 928 966 q 971 768 982 857 q 887 559 960 678 q 591 201 814 439 l 993 201 l 993 98 l 439 98 l 439 125 z "},"⒊":{"ha":1389,"x_min":450,"x_max":1324,"o":"m 450 342 l 553 353 q 594 244 553 293 q 727 193 635 195 q 863 247 819 190 q 901 377 906 304 q 844 499 895 450 q 678 559 792 548 l 678 629 q 841 689 792 635 q 884 819 890 743 q 814 930 879 895 q 678 939 749 966 q 559 792 608 911 l 461 803 q 551 966 488 901 q 703 1039 613 1031 q 865 1015 792 1047 q 968 909 939 982 q 985 749 998 836 q 873 586 971 662 q 996 477 960 543 q 1004 298 1031 412 q 898 136 977 184 q 724 90 819 87 q 551 149 629 92 q 450 342 472 206 m 1145 298 l 1324 298 l 1324 119 l 1145 119 l 1145 298 z "},"⒋":{"ha":1389,"x_min":391,"x_max":1329,"o":"m 803 293 l 391 293 l 391 391 l 830 1042 l 906 1042 l 906 391 l 1020 391 l 1020 293 l 906 293 l 906 81 l 803 81 l 803 293 m 803 391 l 803 825 l 510 391 l 803 391 m 1150 298 l 1329 298 l 1329 119 l 1150 119 l 1150 298 z "},"⒌":{"ha":1389,"x_min":412,"x_max":1329,"o":"m 510 358 q 640 198 548 217 q 789 217 732 179 q 871 307 846 255 q 892 429 895 358 q 854 548 890 499 q 765 616 819 597 q 643 616 711 635 q 532 543 575 597 l 439 553 q 543 1025 450 581 l 971 1025 l 971 922 l 624 922 q 570 684 597 781 q 722 724 651 727 q 854 697 792 722 q 952 621 917 673 q 998 513 987 570 q 1006 401 1009 456 q 982 285 1004 347 q 917 179 960 222 q 811 111 873 136 q 667 92 749 87 q 513 152 586 98 q 412 336 439 206 l 510 358 m 1150 298 l 1329 298 l 1329 119 l 1150 119 l 1150 298 z "},"⒍":{"ha":1389,"x_min":407,"x_max":1329,"o":"m 412 415 q 415 454 412 415 q 442 551 418 494 q 515 684 467 608 l 738 1042 l 857 1042 l 635 673 q 863 667 776 716 q 982 553 949 618 q 1015 415 1015 488 q 993 274 1015 342 q 909 146 971 206 q 732 81 846 87 q 543 122 618 76 q 437 252 467 168 q 412 415 407 336 m 575 239 q 600 212 575 239 q 708 179 624 184 q 846 236 792 174 q 901 410 901 298 q 833 567 901 521 q 681 600 765 613 q 559 518 597 586 q 524 372 521 450 q 575 239 526 293 m 1150 298 l 1329 298 l 1329 119 l 1150 119 l 1150 298 z "},"⒎":{"ha":1389,"x_min":439,"x_max":1329,"o":"m 559 92 q 901 928 656 521 l 439 928 l 439 1025 l 1020 1025 l 1020 933 q 684 92 765 515 l 559 92 m 1150 298 l 1329 298 l 1329 119 l 1150 119 l 1150 298 z "},"⒏":{"ha":1389,"x_min":407,"x_max":1329,"o":"m 407 355 q 407 395 407 355 q 448 502 407 434 q 553 608 488 570 q 461 689 483 646 q 437 789 439 732 q 453 892 434 846 q 513 977 472 939 q 600 1028 553 1015 q 700 1042 646 1042 q 808 1028 754 1042 q 901 982 863 1015 q 960 890 939 949 q 966 746 982 830 q 841 602 949 662 q 966 505 928 559 q 1004 372 1004 450 q 979 241 1004 293 q 917 157 955 190 q 833 106 879 125 q 705 87 787 87 q 548 119 624 87 q 439 214 472 152 q 407 355 407 277 m 518 380 q 517 347 518 380 q 545 263 515 315 q 637 198 575 212 q 770 201 700 184 q 873 279 841 217 q 892 401 906 342 q 819 502 879 461 q 689 537 760 543 q 570 488 618 532 q 518 380 521 445 m 543 800 q 543 774 543 800 q 581 703 543 749 q 700 656 618 656 q 827 703 781 656 q 871 814 873 749 q 817 914 868 879 q 686 944 765 949 q 575 895 608 939 q 543 800 543 852 m 1150 304 l 1329 304 l 1329 125 l 1150 125 l 1150 304 z "},"⒐":{"ha":1389,"x_min":418,"x_max":1329,"o":"m 570 92 q 770 439 689 271 q 532 480 613 418 q 434 654 450 543 q 439 833 418 765 q 502 947 461 901 q 591 1017 543 993 q 705 1042 640 1042 q 838 1025 781 1047 q 939 958 895 1004 q 1001 860 982 911 q 1017 735 1020 808 q 958 548 1015 662 q 694 92 901 434 l 570 92 m 540 686 q 544 650 540 686 q 594 570 548 613 q 703 526 640 526 q 814 559 765 526 q 884 651 863 591 q 895 795 911 732 q 833 898 879 857 q 722 944 787 939 q 635 925 689 949 q 556 830 581 901 q 540 686 532 760 m 1150 298 l 1329 298 l 1329 119 l 1150 119 l 1150 298 z "},"⒑":{"ha":1389,"x_min":174,"x_max":1329,"o":"m 564 697 q 570 761 564 697 q 621 909 575 825 q 746 1028 667 993 q 911 1028 825 1063 q 1039 909 998 993 q 1085 697 1080 825 q 1085 439 1090 570 q 1036 220 1080 309 q 909 95 993 130 q 743 95 825 60 q 621 220 662 130 q 567 439 581 309 q 564 697 553 570 m 673 732 q 665 654 673 732 q 673 426 656 575 q 757 206 689 277 q 895 206 825 136 q 977 426 966 277 q 979 732 987 575 q 901 939 971 890 q 760 939 830 987 q 673 732 689 890 m 304 863 q 174 770 233 792 l 174 868 q 347 1042 260 928 l 407 1042 l 407 98 l 304 98 l 304 863 m 1150 298 l 1329 298 l 1329 119 l 1150 119 l 1150 298 z "},"⒒":{"ha":1389,"x_min":212,"x_max":1329,"o":"m 320 863 q 212 770 250 792 l 212 868 q 363 1042 277 928 l 423 1042 l 423 92 l 320 92 l 320 863 m 808 863 q 700 770 738 792 l 700 868 q 852 1042 770 928 l 917 1042 l 917 92 l 808 92 l 808 863 m 1150 298 l 1329 298 l 1329 119 l 1150 119 l 1150 298 z "},"⒓":{"ha":1389,"x_min":212,"x_max":1329,"o":"m 543 119 q 616 260 548 201 q 787 467 684 320 q 917 681 890 613 q 944 811 944 749 q 901 911 944 873 q 795 944 857 949 q 686 892 732 939 q 624 781 640 846 l 521 798 q 629 979 564 922 q 781 1042 694 1036 q 879 1039 830 1047 q 971 1001 928 1031 q 1044 911 1015 971 q 1061 762 1074 852 q 974 556 1047 673 q 694 195 901 439 l 1069 195 l 1069 98 l 543 98 l 543 119 m 320 863 q 212 770 250 792 l 212 868 q 363 1042 277 928 l 423 1042 l 423 92 l 320 92 l 320 863 m 1150 304 l 1329 304 l 1329 125 l 1150 125 l 1150 304 z "},"⒔":{"ha":1389,"x_min":212,"x_max":1329,"o":"m 537 331 l 629 347 q 675 233 635 277 q 803 187 716 190 q 928 236 890 184 q 960 366 966 288 q 906 491 955 445 q 760 553 857 537 l 760 624 q 906 686 857 635 q 952 817 955 738 q 884 930 949 895 q 751 939 819 966 q 640 781 684 911 l 548 792 q 637 966 581 901 q 781 1042 694 1031 q 936 1017 868 1053 q 1036 909 1004 982 q 1050 743 1069 836 q 939 586 1031 651 q 1053 467 1015 537 q 1069 290 1090 396 q 968 130 1047 184 q 798 81 890 76 q 632 141 705 87 q 537 331 559 195 m 1150 304 l 1329 304 l 1329 125 l 1150 125 l 1150 304 m 320 863 q 212 770 250 792 l 212 868 q 363 1042 277 928 l 423 1042 l 423 92 l 320 92 l 320 863 z "},"⒕":{"ha":1389,"x_min":212,"x_max":1329,"o":"m 917 293 l 510 293 l 510 396 l 944 1042 l 1020 1042 l 1020 396 l 1128 396 l 1128 293 l 1020 293 l 1020 76 l 917 76 l 917 293 m 917 396 l 917 830 l 629 396 l 917 396 m 1150 304 l 1329 304 l 1329 125 l 1150 125 l 1150 304 m 320 863 q 212 770 250 792 l 212 868 q 363 1042 277 928 l 423 1042 l 423 92 l 320 92 l 320 863 z "},"⒖":{"ha":1389,"x_min":212,"x_max":1329,"o":"m 624 358 q 743 195 656 212 q 879 214 830 179 q 944 307 928 250 q 960 434 960 363 q 933 553 960 505 q 854 618 906 602 q 743 618 803 635 q 640 543 684 602 l 559 553 q 651 1025 570 586 l 1042 1025 l 1042 928 l 727 928 q 678 689 700 781 q 814 724 749 727 q 936 694 879 722 q 1025 616 993 667 q 1066 510 1058 564 q 1072 396 1074 456 q 1050 277 1069 336 q 990 168 1031 217 q 892 100 949 119 q 762 87 836 81 q 624 146 689 92 q 537 331 559 201 l 624 358 m 1150 304 l 1329 304 l 1329 125 l 1150 125 l 1150 304 m 320 863 q 212 770 250 792 l 212 868 q 363 1042 277 928 l 423 1042 l 423 92 l 320 92 l 320 863 z "},"⒗":{"ha":1389,"x_min":212,"x_max":1329,"o":"m 526 418 q 529 456 526 418 q 556 548 532 494 q 624 678 581 602 l 836 1042 l 955 1042 l 738 667 q 949 656 868 705 q 1061 548 1031 608 q 1093 418 1090 488 q 1074 279 1096 347 q 993 155 1053 212 q 827 95 933 98 q 651 136 722 92 q 551 260 581 179 q 526 418 521 342 m 681 244 q 704 220 681 244 q 806 190 727 195 q 933 241 884 184 q 982 410 982 298 q 917 562 982 521 q 773 594 852 602 q 662 515 694 586 q 632 369 629 445 q 681 244 635 293 m 1150 304 l 1329 304 l 1329 125 l 1150 125 l 1150 304 m 320 863 q 212 770 250 792 l 212 868 q 363 1042 277 928 l 423 1042 l 423 92 l 320 92 l 320 863 z "},"⒘":{"ha":1389,"x_min":212,"x_max":1329,"o":"m 689 92 q 1009 928 781 526 l 575 928 l 575 1025 l 1118 1025 l 1118 933 q 803 92 879 526 l 689 92 m 1150 304 l 1329 304 l 1329 125 l 1150 125 l 1150 304 m 320 863 q 212 770 250 792 l 212 868 q 363 1042 277 928 l 423 1042 l 423 92 l 320 92 l 320 863 z "},"⒙":{"ha":1389,"x_min":212,"x_max":1329,"o":"m 537 366 q 537 397 537 366 q 570 491 537 429 q 673 597 602 553 q 586 684 613 629 q 559 795 559 738 q 578 898 559 852 q 635 979 597 944 q 713 1028 673 1015 q 808 1042 754 1042 q 911 1028 863 1042 q 996 985 960 1015 q 1053 901 1031 955 q 1058 749 1074 846 q 939 597 1042 651 q 1055 505 1020 559 q 1090 374 1090 450 q 1069 244 1090 298 q 1012 157 1047 190 q 933 109 977 125 q 819 92 890 92 q 694 114 749 92 q 605 168 640 136 q 553 252 570 201 q 537 366 537 304 m 637 382 q 636 351 637 382 q 662 269 635 320 q 749 201 689 217 q 873 201 808 184 q 968 279 939 217 q 987 404 998 342 q 920 505 977 467 q 798 540 863 543 q 686 491 732 537 q 637 382 640 445 m 659 806 q 658 777 659 806 q 697 700 656 749 q 811 651 738 651 q 925 705 884 651 q 963 822 966 760 q 911 920 960 884 q 792 949 863 955 q 692 903 722 944 q 659 806 662 863 m 1150 304 l 1329 304 l 1329 125 l 1150 125 l 1150 304 m 320 863 q 212 770 250 792 l 212 868 q 363 1042 277 928 l 423 1042 l 423 92 l 320 92 l 320 863 z "},"⒚":{"ha":1389,"x_min":212,"x_max":1329,"o":"m 662 81 q 852 434 770 266 q 629 477 705 418 q 540 648 553 537 q 545 830 526 760 q 602 944 564 901 q 686 1015 640 987 q 792 1042 732 1042 q 917 1023 863 1047 q 1012 955 971 998 q 1069 860 1053 911 q 1082 732 1085 808 q 1028 543 1080 656 q 781 81 977 429 l 662 81 m 643 681 q 647 647 643 681 q 692 570 651 613 q 795 524 732 526 q 890 551 857 521 q 949 646 922 581 q 966 795 977 732 q 914 898 955 857 q 808 939 873 939 q 727 925 770 949 q 659 825 684 901 q 643 681 635 749 m 1150 304 l 1329 304 l 1329 125 l 1150 125 l 1150 304 m 320 863 q 212 770 250 792 l 212 868 q 363 1042 277 928 l 423 1042 l 423 92 l 320 92 l 320 863 z "},"⒛":{"ha":1389,"x_min":103,"x_max":1329,"o":"m 119 125 q 190 279 125 206 q 328 475 255 353 q 429 675 401 597 q 456 822 456 754 q 418 920 456 890 q 336 947 380 949 q 258 903 293 944 q 195 781 222 863 l 103 798 q 193 979 136 922 q 320 1042 250 1036 q 420 1036 374 1047 q 502 993 467 1025 q 556 906 537 960 q 562 768 575 852 q 486 562 548 684 q 250 201 423 439 l 570 201 l 570 103 l 119 103 l 119 125 m 618 700 q 624 762 618 700 q 667 909 629 825 q 773 1028 705 993 q 914 1028 841 1063 q 1020 909 987 993 q 1061 700 1053 825 q 1061 445 1069 575 q 1017 228 1053 315 q 914 106 982 141 q 776 106 846 71 q 670 228 705 141 q 621 445 635 315 q 618 700 608 575 m 719 735 q 712 658 719 735 q 719 431 705 581 q 789 214 732 282 q 901 214 846 146 q 966 431 955 282 q 963 735 977 581 q 898 939 949 890 q 789 939 846 987 q 719 735 732 890 m 1150 304 l 1329 304 l 1329 125 l 1150 125 l 1150 304 z "},"─":{"ha":1389,"x_min":0,"x_max":1383,"o":"m 0 553 l 1383 553 l 1383 450 l 0 450 l 0 553 z "},"━":{"ha":1389,"x_min":0,"x_max":1383,"o":"m 0 586 l 1383 586 l 1383 418 l 0 418 l 0 586 z "},"│":{"ha":1389,"x_min":640,"x_max":743,"o":"m 640 1194 l 743 1194 l 743 -190 l 640 -190 l 640 1194 z "},"┃":{"ha":1389,"x_min":608,"x_max":776,"o":"m 608 1194 l 776 1194 l 776 -190 l 608 -190 l 608 1194 z "},"┄":{"ha":1389,"x_min":0,"x_max":1383,"o":"m 0 553 l 336 553 l 336 450 l 0 450 l 0 553 m 515 553 l 857 553 l 857 450 l 515 450 l 515 553 m 1036 553 l 1383 553 l 1383 450 l 1036 450 l 1036 553 z "},"┅":{"ha":1389,"x_min":0,"x_max":1383,"o":"m 0 586 l 342 586 l 342 418 l 0 418 l 0 586 m 521 586 l 863 586 l 863 418 l 521 418 l 521 586 m 1042 586 l 1383 586 l 1383 418 l 1042 418 l 1042 586 z "},"┆":{"ha":1389,"x_min":640,"x_max":743,"o":"m 640 152 l 743 152 l 743 -190 l 640 -190 l 640 152 m 640 673 l 743 673 l 743 331 l 640 331 l 640 673 m 640 1194 l 743 1194 l 743 852 l 640 852 l 640 1194 z "},"┇":{"ha":1389,"x_min":608,"x_max":776,"o":"m 608 152 l 776 152 l 776 -190 l 608 -190 l 608 152 m 608 673 l 776 673 l 776 331 l 608 331 l 608 673 m 608 1194 l 776 1194 l 776 852 l 608 852 l 608 1194 z "},"┈":{"ha":1389,"x_min":0,"x_max":1383,"o":"m 0 553 l 288 553 l 288 450 l 0 450 l 0 553 m 369 553 l 656 553 l 656 450 l 369 450 l 369 553 m 727 553 l 1015 553 l 1015 450 l 727 450 l 727 553 m 1096 553 l 1383 553 l 1383 450 l 1096 450 l 1096 553 z "},"┉":{"ha":1389,"x_min":0,"x_max":1383,"o":"m 0 586 l 288 586 l 288 418 l 0 418 l 0 586 m 369 586 l 656 586 l 656 418 l 369 418 l 369 586 m 727 586 l 1015 586 l 1015 418 l 727 418 l 727 586 m 1096 586 l 1383 586 l 1383 418 l 1096 418 l 1096 586 z "},"┊":{"ha":1389,"x_min":640,"x_max":743,"o":"m 640 98 l 743 98 l 743 -190 l 640 -190 l 640 98 m 640 467 l 743 467 l 743 179 l 640 179 l 640 467 m 640 825 l 743 825 l 743 537 l 640 537 l 640 825 m 640 1194 l 743 1194 l 743 906 l 640 906 l 640 1194 z "},"┋":{"ha":1389,"x_min":608,"x_max":776,"o":"m 608 98 l 776 98 l 776 -190 l 608 -190 l 608 98 m 608 467 l 776 467 l 776 179 l 608 179 l 608 467 m 608 825 l 776 825 l 776 537 l 608 537 l 608 825 m 608 1194 l 776 1194 l 776 906 l 608 906 l 608 1194 z "},"┌":{"ha":1389,"x_min":640,"x_max":1383,"o":"m 1383 553 l 1383 450 l 743 450 l 743 -190 l 640 -190 l 640 553 l 1383 553 z "},"┍":{"ha":1389,"x_min":640,"x_max":1383,"o":"m 1383 586 l 1383 418 l 743 418 l 743 -190 l 640 -190 l 640 586 l 1383 586 z "},"┎":{"ha":1389,"x_min":608,"x_max":1383,"o":"m 1383 553 l 1383 450 l 776 450 l 776 -190 l 608 -190 l 608 553 l 1383 553 z "},"┏":{"ha":1389,"x_min":608,"x_max":1383,"o":"m 1383 586 l 1383 418 l 776 418 l 776 -190 l 608 -190 l 608 586 l 1383 586 z "},"┐":{"ha":1389,"x_min":0,"x_max":743,"o":"m 0 553 l 743 553 l 743 -190 l 640 -190 l 640 450 l 0 450 l 0 553 z "},"┑":{"ha":1389,"x_min":0,"x_max":743,"o":"m 0 586 l 743 586 l 743 -190 l 640 -190 l 640 418 l 0 418 l 0 586 z "},"┒":{"ha":1389,"x_min":0,"x_max":776,"o":"m 0 553 l 776 553 l 776 -190 l 608 -190 l 608 450 l 0 450 l 0 553 z "},"┓":{"ha":1389,"x_min":0,"x_max":776,"o":"m 0 586 l 776 586 l 776 -190 l 608 -190 l 608 418 l 0 418 l 0 586 z "},"└":{"ha":1389,"x_min":640,"x_max":1383,"o":"m 640 1194 l 743 1194 l 743 553 l 1383 553 l 1383 450 l 640 450 l 640 1194 z "},"┕":{"ha":1389,"x_min":640,"x_max":1383,"o":"m 640 1194 l 743 1194 l 743 586 l 1383 586 l 1383 418 l 640 418 l 640 1194 z "},"┖":{"ha":1389,"x_min":608,"x_max":1383,"o":"m 608 1194 l 776 1194 l 776 553 l 1383 553 l 1383 450 l 608 450 l 608 1194 z "},"┗":{"ha":1389,"x_min":608,"x_max":1383,"o":"m 608 1194 l 776 1194 l 776 586 l 1383 586 l 1383 418 l 608 418 l 608 1194 z "},"┘":{"ha":1389,"x_min":0,"x_max":743,"o":"m 640 1194 l 743 1194 l 743 450 l 0 450 l 0 553 l 640 553 l 640 1194 z "},"┙":{"ha":1389,"x_min":0,"x_max":743,"o":"m 640 1194 l 743 1194 l 743 418 l 0 418 l 0 586 l 640 586 l 640 1194 z "},"┚":{"ha":1389,"x_min":0,"x_max":776,"o":"m 608 1194 l 776 1194 l 776 450 l 0 450 l 0 553 l 608 553 l 608 1194 z "},"┛":{"ha":1389,"x_min":0,"x_max":776,"o":"m 608 1194 l 776 1194 l 776 418 l 0 418 l 0 586 l 608 586 l 608 1194 z "},"├":{"ha":1389,"x_min":640,"x_max":1383,"o":"m 640 1194 l 743 1194 l 743 553 l 1383 553 l 1383 450 l 743 450 l 743 -190 l 640 -190 l 640 1194 z "},"┝":{"ha":1389,"x_min":640,"x_max":1383,"o":"m 640 1194 l 743 1194 l 743 586 l 1383 586 l 1383 418 l 743 418 l 743 -190 l 640 -190 l 640 1194 z "},"┞":{"ha":1389,"x_min":608,"x_max":1383,"o":"m 608 1194 l 776 1194 l 776 553 l 1383 553 l 1383 450 l 743 450 l 743 -190 l 640 -190 l 640 450 l 608 450 l 608 1194 z "},"┟":{"ha":1389,"x_min":608,"x_max":1383,"o":"m 640 1194 l 743 1194 l 743 553 l 1383 553 l 1383 450 l 776 450 l 776 -190 l 608 -190 l 608 548 l 640 548 l 640 1194 z "},"┠":{"ha":1389,"x_min":608,"x_max":1383,"o":"m 608 1194 l 776 1194 l 776 553 l 1383 553 l 1383 450 l 776 450 l 776 -190 l 608 -190 l 608 1194 z "},"┡":{"ha":1389,"x_min":608,"x_max":1383,"o":"m 608 1194 l 776 1194 l 776 586 l 1383 586 l 1383 418 l 743 418 l 743 -190 l 640 -190 l 640 418 l 608 418 l 608 1194 z "},"┢":{"ha":1389,"x_min":608,"x_max":1383,"o":"m 640 1194 l 743 1194 l 743 586 l 1383 586 l 1383 418 l 776 418 l 776 -190 l 608 -190 l 608 581 l 640 581 l 640 1194 z "},"┣":{"ha":1389,"x_min":608,"x_max":1383,"o":"m 608 1194 l 776 1194 l 776 586 l 1383 586 l 1383 418 l 776 418 l 776 -190 l 608 -190 l 608 1194 z "},"┤":{"ha":1389,"x_min":0,"x_max":743,"o":"m 640 1194 l 743 1194 l 743 -190 l 640 -190 l 640 450 l 0 450 l 0 553 l 640 553 l 640 1194 z "},"┥":{"ha":1389,"x_min":0,"x_max":743,"o":"m 743 1194 l 743 -190 l 640 -190 l 640 418 l 0 418 l 0 586 l 640 586 l 640 1194 l 743 1194 z "},"┦":{"ha":1389,"x_min":0,"x_max":776,"o":"m 608 1194 l 776 1194 l 776 450 l 743 450 l 743 -190 l 640 -190 l 640 450 l 0 450 l 0 553 l 608 553 l 608 1194 z "},"┧":{"ha":1389,"x_min":0,"x_max":776,"o":"m 640 1194 l 743 1194 l 743 553 l 776 553 l 776 -190 l 608 -190 l 608 450 l 0 450 l 0 553 l 640 553 l 640 1194 z "},"┨":{"ha":1389,"x_min":0,"x_max":776,"o":"m 608 1194 l 776 1194 l 776 -190 l 608 -190 l 608 450 l 0 450 l 0 553 l 608 553 l 608 1194 z "},"┩":{"ha":1389,"x_min":0,"x_max":776,"o":"m 608 1194 l 776 1194 l 776 418 l 743 418 l 743 -190 l 640 -190 l 640 418 l 0 418 l 0 586 l 608 586 l 608 1194 z "},"┪":{"ha":1389,"x_min":0,"x_max":776,"o":"m 640 1194 l 743 1194 l 743 581 l 776 581 l 776 -190 l 608 -190 l 608 418 l 0 418 l 0 586 l 640 586 l 640 1194 z "},"┫":{"ha":1389,"x_min":0,"x_max":776,"o":"m 776 1194 l 776 -190 l 608 -190 l 608 418 l 0 418 l 0 586 l 608 586 l 608 1194 l 776 1194 z "},"┬":{"ha":1389,"x_min":0,"x_max":1383,"o":"m 0 553 l 1383 553 l 1383 450 l 743 450 l 743 -190 l 640 -190 l 640 450 l 0 450 l 0 553 z "},"┭":{"ha":1389,"x_min":0,"x_max":1383,"o":"m 0 586 l 743 586 l 743 553 l 1383 553 l 1383 450 l 743 450 l 743 -190 l 640 -190 l 640 418 l 0 418 l 0 586 z "},"┮":{"ha":1389,"x_min":0,"x_max":1383,"o":"m 1383 586 l 1383 418 l 743 418 l 743 -190 l 640 -190 l 640 450 l 0 450 l 0 553 l 640 553 l 640 586 l 1383 586 z "},"┯":{"ha":1389,"x_min":0,"x_max":1383,"o":"m 0 586 l 1383 586 l 1383 418 l 743 418 l 743 -190 l 640 -190 l 640 418 l 0 418 l 0 586 z "},"┰":{"ha":1389,"x_min":0,"x_max":1383,"o":"m 0 553 l 1383 553 l 1383 450 l 776 450 l 776 -190 l 608 -190 l 608 450 l 0 450 l 0 553 z "},"┱":{"ha":1389,"x_min":0,"x_max":1383,"o":"m 0 586 l 776 586 l 776 553 l 1383 553 l 1383 450 l 776 450 l 776 -190 l 608 -190 l 608 418 l 0 418 l 0 586 z "},"┲":{"ha":1389,"x_min":0,"x_max":1383,"o":"m 1383 586 l 1383 418 l 776 418 l 776 -190 l 608 -190 l 608 450 l 0 450 l 0 553 l 608 553 l 608 586 l 1383 586 z "},"┳":{"ha":1389,"x_min":0,"x_max":1383,"o":"m 0 586 l 1383 586 l 1383 418 l 776 418 l 776 -190 l 608 -190 l 608 418 l 0 418 l 0 586 z "},"┴":{"ha":1389,"x_min":0,"x_max":1383,"o":"m 640 1194 l 743 1194 l 743 553 l 1383 553 l 1383 450 l 0 450 l 0 553 l 640 553 l 640 1194 z "},"┵":{"ha":1389,"x_min":0,"x_max":1383,"o":"m 640 1194 l 743 1194 l 743 553 l 1383 553 l 1383 450 l 743 450 l 743 418 l 0 418 l 0 586 l 640 586 l 640 1194 z "},"┶":{"ha":1389,"x_min":0,"x_max":1383,"o":"m 640 1194 l 743 1194 l 743 586 l 1383 586 l 1383 418 l 646 418 l 646 450 l 0 450 l 0 553 l 640 553 l 640 1194 z "},"┷":{"ha":1389,"x_min":0,"x_max":1383,"o":"m 640 1194 l 743 1194 l 743 586 l 1383 586 l 1383 418 l 0 418 l 0 586 l 640 586 l 640 1194 z "},"┸":{"ha":1389,"x_min":0,"x_max":1383,"o":"m 608 1194 l 776 1194 l 776 553 l 1383 553 l 1383 450 l 0 450 l 0 553 l 608 553 l 608 1194 z "},"┹":{"ha":1389,"x_min":0,"x_max":1383,"o":"m 608 1194 l 776 1194 l 776 553 l 1383 553 l 1383 450 l 776 450 l 776 418 l 0 418 l 0 586 l 608 586 l 608 1194 z "},"┺":{"ha":1389,"x_min":0,"x_max":1383,"o":"m 608 1194 l 776 1194 l 776 586 l 1383 586 l 1383 418 l 608 418 l 608 450 l 0 450 l 0 553 l 608 553 l 608 1194 z "},"┻":{"ha":1389,"x_min":0,"x_max":1383,"o":"m 608 1194 l 776 1194 l 776 586 l 1383 586 l 1383 418 l 0 418 l 0 586 l 608 586 l 608 1194 z "},"┼":{"ha":1389,"x_min":0,"x_max":1383,"o":"m 640 1194 l 743 1194 l 743 553 l 1383 553 l 1383 450 l 743 450 l 743 -190 l 640 -190 l 640 450 l 0 450 l 0 553 l 640 553 l 640 1194 z "},"┽":{"ha":1389,"x_min":0,"x_max":1383,"o":"m 640 1194 l 743 1194 l 743 553 l 1383 553 l 1383 450 l 743 450 l 743 -190 l 640 -190 l 640 418 l 0 418 l 0 586 l 640 586 l 640 1194 z "},"┾":{"ha":1389,"x_min":0,"x_max":1383,"o":"m 640 1194 l 743 1194 l 743 586 l 1383 586 l 1383 418 l 743 418 l 743 -190 l 640 -190 l 640 450 l 0 450 l 0 553 l 640 553 l 640 1194 z "},"┿":{"ha":1389,"x_min":0,"x_max":1383,"o":"m 640 1194 l 743 1194 l 743 586 l 1383 586 l 1383 418 l 743 418 l 743 -190 l 640 -190 l 640 418 l 0 418 l 0 586 l 640 586 l 640 1194 z "},"╀":{"ha":1389,"x_min":0,"x_max":1383,"o":"m 608 1194 l 776 1194 l 776 553 l 1383 553 l 1383 450 l 743 450 l 743 -190 l 640 -190 l 640 450 l 0 450 l 0 553 l 608 553 l 608 1194 z "},"╁":{"ha":1389,"x_min":0,"x_max":1383,"o":"m 640 1194 l 743 1194 l 743 553 l 1383 553 l 1383 450 l 776 450 l 776 -190 l 608 -190 l 608 450 l 0 450 l 0 553 l 640 553 l 640 1194 z "},"╂":{"ha":1389,"x_min":0,"x_max":1383,"o":"m 608 1194 l 776 1194 l 776 553 l 1383 553 l 1383 450 l 776 450 l 776 -190 l 608 -190 l 608 450 l 0 450 l 0 553 l 608 553 l 608 1194 z "},"╃":{"ha":1389,"x_min":0,"x_max":1383,"o":"m 608 1194 l 776 1194 l 776 553 l 1383 553 l 1383 450 l 743 450 l 743 -190 l 640 -190 l 640 418 l 0 418 l 0 586 l 608 586 l 608 1194 z "},"╄":{"ha":1389,"x_min":0,"x_max":1383,"o":"m 608 1194 l 776 1194 l 776 586 l 1383 586 l 1383 418 l 743 418 l 743 -190 l 640 -190 l 640 450 l 0 450 l 0 553 l 608 553 l 608 1194 z "},"╅":{"ha":1389,"x_min":0,"x_max":1383,"o":"m 640 1194 l 743 1194 l 743 553 l 1383 553 l 1383 450 l 776 450 l 776 -190 l 608 -190 l 608 418 l 0 418 l 0 586 l 640 586 l 640 1194 z "},"╆":{"ha":1389,"x_min":0,"x_max":1383,"o":"m 640 1194 l 743 1194 l 743 586 l 1383 586 l 1383 418 l 776 418 l 776 -190 l 608 -190 l 608 450 l 0 450 l 0 553 l 640 553 l 640 1194 z "},"╇":{"ha":1389,"x_min":0,"x_max":1383,"o":"m 608 1194 l 776 1194 l 776 586 l 1383 586 l 1383 418 l 743 418 l 743 -190 l 640 -190 l 640 418 l 0 418 l 0 586 l 608 586 l 608 1194 z "},"╈":{"ha":1389,"x_min":0,"x_max":1383,"o":"m 640 1194 l 743 1194 l 743 586 l 1383 586 l 1383 418 l 776 418 l 776 -190 l 608 -190 l 608 418 l 0 418 l 0 586 l 640 586 l 640 1194 z "},"╉":{"ha":1389,"x_min":0,"x_max":1383,"o":"m 608 1194 l 776 1194 l 776 553 l 1383 553 l 1383 450 l 776 450 l 776 -190 l 608 -190 l 608 418 l 0 418 l 0 586 l 608 586 l 608 1194 z "},"╊":{"ha":1389,"x_min":0,"x_max":1383,"o":"m 608 1194 l 776 1194 l 776 586 l 1383 586 l 1383 418 l 776 418 l 776 -190 l 608 -190 l 608 450 l 0 450 l 0 553 l 608 553 l 608 1194 z "},"╋":{"ha":1389,"x_min":0,"x_max":1383,"o":"m 608 1194 l 776 1194 l 776 586 l 1383 586 l 1383 418 l 776 418 l 776 -190 l 608 -190 l 608 418 l 0 418 l 0 586 l 608 586 l 608 1194 z "},"═":{"ha":1389,"x_min":0,"x_max":1383,"o":"m 0 412 l 0 472 l 1383 472 l 1383 412 l 0 412 m 0 532 l 0 591 l 1383 591 l 1383 532 l 0 532 z "},"║":{"ha":1389,"x_min":602,"x_max":781,"o":"m 602 1194 l 662 1194 l 662 -190 l 602 -190 l 602 1194 m 722 1194 l 781 1194 l 781 -190 l 722 -190 l 722 1194 z "},"╒":{"ha":1389,"x_min":662,"x_max":1383,"o":"m 722 -190 l 662 -190 l 662 591 l 1383 591 l 1383 532 l 722 532 l 722 472 l 1383 472 l 1383 412 l 722 412 l 722 -190 z "},"╓":{"ha":1389,"x_min":602,"x_max":1383,"o":"m 662 472 l 662 -190 l 602 -190 l 602 532 l 1383 532 l 1383 472 l 781 472 l 781 -190 l 722 -190 l 722 472 l 662 472 z "},"╔":{"ha":1389,"x_min":602,"x_max":1383,"o":"m 602 591 l 1383 591 l 1383 532 l 662 532 l 662 -190 l 602 -190 l 602 591 m 722 472 l 1383 472 l 1383 412 l 781 412 l 781 -190 l 722 -190 l 722 472 z "},"╕":{"ha":1389,"x_min":0,"x_max":722,"o":"m 0 412 l 0 472 l 662 472 l 662 532 l 0 532 l 0 591 l 722 591 l 722 -190 l 662 -190 l 662 412 l 0 412 z "},"╖":{"ha":1389,"x_min":0,"x_max":781,"o":"m 0 472 l 0 532 l 781 532 l 781 -190 l 722 -190 l 722 472 l 662 472 l 662 -190 l 602 -190 l 602 472 l 0 472 z "},"╗":{"ha":1389,"x_min":0,"x_max":781,"o":"m 781 591 l 781 -190 l 722 -190 l 722 532 l 0 532 l 0 591 l 781 591 m 662 477 l 662 -190 l 602 -190 l 602 418 l 0 418 l 0 477 l 662 477 z "},"╘":{"ha":1389,"x_min":662,"x_max":1383,"o":"m 722 472 l 1383 472 l 1383 412 l 662 412 l 662 1194 l 722 1194 l 722 591 l 1383 591 l 1383 532 l 722 532 l 722 472 z "},"╙":{"ha":1389,"x_min":602,"x_max":1383,"o":"m 1383 532 l 1383 472 l 602 472 l 602 1194 l 662 1194 l 662 532 l 722 532 l 722 1194 l 781 1194 l 781 532 l 1383 532 z "},"╚":{"ha":1389,"x_min":602,"x_max":1383,"o":"m 602 412 l 602 1194 l 662 1194 l 662 472 l 1383 472 l 1383 412 l 602 412 m 781 591 l 1383 591 l 1383 532 l 722 532 l 722 1194 l 781 1194 l 781 591 z "},"╛":{"ha":1389,"x_min":0,"x_max":722,"o":"m 662 1194 l 722 1194 l 722 412 l 0 412 l 0 472 l 662 472 l 662 532 l 0 532 l 0 591 l 662 591 l 662 1194 z "},"╜":{"ha":1389,"x_min":0,"x_max":781,"o":"m 722 532 l 722 1194 l 781 1194 l 781 472 l 0 472 l 0 532 l 602 532 l 602 1194 l 662 1194 l 662 532 l 722 532 z "},"╝":{"ha":1389,"x_min":0,"x_max":781,"o":"m 781 412 l 0 412 l 0 472 l 722 472 l 722 1194 l 781 1194 l 781 412 m 662 532 l 0 532 l 0 591 l 602 591 l 602 1194 l 662 1194 l 662 532 z "},"╞":{"ha":1389,"x_min":662,"x_max":1383,"o":"m 1383 591 l 1383 532 l 722 532 l 722 472 l 1383 472 l 1383 412 l 722 412 l 722 -190 l 662 -190 l 662 1194 l 722 1194 l 722 591 l 1383 591 z "},"╟":{"ha":1389,"x_min":602,"x_max":1383,"o":"m 1383 532 l 1383 472 l 781 472 l 781 -190 l 722 -190 l 722 1194 l 781 1194 l 781 532 l 1383 532 m 602 1194 l 662 1194 l 662 -190 l 602 -190 l 602 1194 z "},"╠":{"ha":1389,"x_min":602,"x_max":1383,"o":"m 602 1194 l 662 1194 l 662 -190 l 602 -190 l 602 1194 m 722 472 l 1383 472 l 1383 412 l 781 412 l 781 -190 l 722 -190 l 722 472 m 722 532 l 722 1194 l 781 1194 l 781 591 l 1383 591 l 1383 532 l 722 532 z "},"╡":{"ha":1389,"x_min":0,"x_max":722,"o":"m 0 412 l 0 472 l 662 472 l 662 532 l 0 532 l 0 591 l 662 591 l 662 1194 l 722 1194 l 722 -190 l 662 -190 l 662 412 l 0 412 z "},"╢":{"ha":1389,"x_min":0,"x_max":781,"o":"m 722 1194 l 781 1194 l 781 -190 l 722 -190 l 722 1194 m 0 472 l 0 532 l 602 532 l 602 1194 l 662 1194 l 662 -190 l 602 -190 l 602 472 l 0 472 z "},"╣":{"ha":1389,"x_min":0,"x_max":781,"o":"m 722 1194 l 781 1194 l 781 -190 l 722 -190 l 722 1194 m 662 532 l 0 532 l 0 591 l 602 591 l 602 1194 l 662 1194 l 662 532 m 662 472 l 662 -190 l 602 -190 l 602 412 l 0 412 l 0 472 l 662 472 z "},"╤":{"ha":1389,"x_min":0,"x_max":1383,"o":"m 0 532 l 0 591 l 1383 591 l 1383 532 l 0 532 m 722 -190 l 662 -190 l 662 412 l 0 412 l 0 472 l 1383 472 l 1383 412 l 722 412 l 722 -190 z "},"╥":{"ha":1389,"x_min":0,"x_max":1383,"o":"m 781 -190 l 722 -190 l 722 472 l 662 472 l 662 -190 l 602 -190 l 602 472 l 0 472 l 0 532 l 1383 532 l 1383 472 l 781 472 l 781 -190 z "},"╦":{"ha":1389,"x_min":0,"x_max":1383,"o":"m 0 532 l 0 591 l 1383 591 l 1383 532 l 0 532 m 602 412 l 0 412 l 0 472 l 662 472 l 662 -190 l 602 -190 l 602 412 m 781 412 l 781 -190 l 722 -190 l 722 472 l 1383 472 l 1383 412 l 781 412 z "},"╧":{"ha":1389,"x_min":0,"x_max":1383,"o":"m 0 412 l 0 472 l 1383 472 l 1383 412 l 0 412 m 662 1194 l 722 1194 l 722 591 l 1383 591 l 1383 532 l 0 532 l 0 591 l 662 591 l 662 1194 z "},"╨":{"ha":1389,"x_min":0,"x_max":1383,"o":"m 602 1194 l 662 1194 l 662 532 l 722 532 l 722 1194 l 781 1194 l 781 532 l 1383 532 l 1383 472 l 0 472 l 0 532 l 602 532 l 602 1194 z "},"╩":{"ha":1389,"x_min":0,"x_max":1383,"o":"m 0 412 l 0 472 l 1383 472 l 1383 412 l 0 412 m 602 591 l 602 1194 l 662 1194 l 662 532 l 0 532 l 0 591 l 602 591 m 781 591 l 1383 591 l 1383 532 l 722 532 l 722 1194 l 781 1194 l 781 591 z "},"╪":{"ha":1389,"x_min":0,"x_max":1383,"o":"m 0 532 l 0 591 l 662 591 l 662 1194 l 722 1194 l 722 591 l 1383 591 l 1383 532 l 722 532 l 722 472 l 1383 472 l 1383 412 l 722 412 l 722 -190 l 662 -190 l 662 412 l 0 412 l 0 472 l 662 472 l 662 532 l 0 532 z "},"╫":{"ha":1389,"x_min":0,"x_max":1383,"o":"m 722 1194 l 781 1194 l 781 532 l 1383 532 l 1383 472 l 781 472 l 781 -190 l 722 -190 l 722 472 l 662 472 l 662 -190 l 602 -190 l 602 472 l 0 472 l 0 532 l 602 532 l 602 1194 l 662 1194 l 662 532 l 722 532 l 722 1194 z "},"╬":{"ha":1389,"x_min":0,"x_max":1383,"o":"m 602 412 l 0 412 l 0 472 l 662 472 l 662 -190 l 602 -190 l 602 412 m 602 591 l 602 1194 l 662 1194 l 662 532 l 0 532 l 0 591 l 602 591 m 781 412 l 781 -190 l 722 -190 l 722 472 l 1383 472 l 1383 412 l 781 412 m 781 591 l 1383 591 l 1383 532 l 722 532 l 722 1194 l 781 1194 l 781 591 z "},"╭":{"ha":1389,"x_min":656,"x_max":1383,"o":"m 903 304 q 856 258 903 304 q 762 95 808 212 q 722 -190 716 -22 l 662 -190 q 705 114 656 -22 q 865 350 754 250 q 1101 494 977 450 q 1383 532 1226 537 l 1383 472 q 1107 437 1215 477 q 903 304 998 396 z "},"╮":{"ha":1389,"x_min":0,"x_max":722,"o":"m 483 288 q 439 334 483 288 q 282 429 396 380 q 0 472 168 477 l 0 532 q 307 480 168 537 q 545 312 445 423 q 684 87 646 201 q 722 -190 722 -27 l 656 -190 q 613 84 656 -27 q 483 288 570 195 z "},"╯":{"ha":1389,"x_min":0,"x_max":722,"o":"m 467 689 q 510 727 467 689 q 608 882 553 765 q 662 1194 662 998 l 722 1194 q 670 871 722 998 q 515 651 618 743 q 279 513 412 559 q 0 472 146 467 l 0 532 q 271 570 163 526 q 467 689 380 613 z "},"╰":{"ha":1389,"x_min":656,"x_max":1383,"o":"m 895 700 q 949 646 895 700 q 1120 559 1004 591 q 1383 532 1237 526 l 1383 472 q 1118 499 1226 472 q 887 627 1009 526 q 711 873 765 727 q 662 1194 656 1020 l 722 1194 q 751 939 716 1069 q 895 700 787 808 z "},"╱":{"ha":1389,"x_min":5,"x_max":1378,"o":"m 43 -184 l 5 -146 l 1340 1188 l 1378 1150 l 43 -184 z "},"╲":{"ha":1389,"x_min":5,"x_max":1378,"o":"m 5 1150 l 49 1188 l 1378 -141 l 1340 -184 l 5 1150 z "},"╳":{"ha":1389,"x_min":5,"x_max":1378,"o":"m 43 1188 l 694 537 l 1335 1188 l 1378 1150 l 732 499 l 1378 -136 l 1340 -184 l 694 456 l 38 -184 l 5 -146 l 656 494 l 5 1150 l 43 1188 z "},"▁":{"ha":1389,"x_min":43,"x_max":1340,"o":"m 43 -146 l 43 16 l 1340 16 l 1340 -146 l 43 -146 z "},"▂":{"ha":1389,"x_min":43,"x_max":1340,"o":"m 43 -146 l 43 179 l 1340 179 l 1340 -146 l 43 -146 z "},"▃":{"ha":1389,"x_min":43,"x_max":1340,"o":"m 43 -146 l 43 342 l 1340 342 l 1340 -146 l 43 -146 z "},"▄":{"ha":1389,"x_min":43,"x_max":1340,"o":"m 43 -146 l 43 505 l 1340 505 l 1340 -146 l 43 -146 z "},"▅":{"ha":1389,"x_min":43,"x_max":1340,"o":"m 43 -146 l 43 667 l 1340 667 l 1340 -146 l 43 -146 z "},"▆":{"ha":1389,"x_min":43,"x_max":1340,"o":"m 43 -146 l 43 830 l 1340 830 l 1340 -146 l 43 -146 z "},"▇":{"ha":1389,"x_min":43,"x_max":1340,"o":"m 43 -146 l 43 993 l 1340 993 l 1340 -146 l 43 -146 z "},"█":{"ha":1389,"x_min":43,"x_max":1340,"o":"m 43 -146 l 43 1150 l 1340 1150 l 1340 -146 l 43 -146 z "},"▉":{"ha":1389,"x_min":43,"x_max":1177,"o":"m 43 -146 l 43 1150 l 1177 1150 l 1177 -146 l 43 -146 z "},"▊":{"ha":1389,"x_min":43,"x_max":1015,"o":"m 43 -146 l 43 1150 l 1015 1150 l 1015 -146 l 43 -146 z "},"▋":{"ha":1389,"x_min":43,"x_max":852,"o":"m 43 -146 l 43 1150 l 852 1150 l 852 -146 l 43 -146 z "},"▌":{"ha":1389,"x_min":43,"x_max":689,"o":"m 43 -146 l 43 1150 l 689 1150 l 689 -146 l 43 -146 z "},"▍":{"ha":1389,"x_min":43,"x_max":526,"o":"m 43 -146 l 43 1150 l 526 1150 l 526 -146 l 43 -146 z "},"▎":{"ha":1389,"x_min":43,"x_max":363,"o":"m 43 -146 l 43 1150 l 363 1150 l 363 -146 l 43 -146 z "},"▏":{"ha":1389,"x_min":43,"x_max":201,"o":"m 43 -146 l 43 1150 l 201 1150 l 201 -146 l 43 -146 z "},"▓":{"ha":1389,"x_min":114,"x_max":1270,"o":"m 260 873 l 260 781 l 396 781 l 396 873 l 260 873 m 260 505 l 260 412 l 396 412 l 396 505 l 260 505 m 260 136 l 260 43 l 396 43 l 396 136 l 260 136 m 407 1058 l 407 966 l 543 966 l 543 1058 l 407 1058 m 553 873 l 553 781 l 689 781 l 689 873 l 553 873 m 407 689 l 407 597 l 543 597 l 543 689 l 407 689 m 553 505 l 553 412 l 689 412 l 689 505 l 553 505 m 407 320 l 407 228 l 543 228 l 543 320 l 407 320 m 553 136 l 553 43 l 689 43 l 689 136 l 553 136 m 700 1058 l 700 966 l 836 966 l 836 1058 l 700 1058 m 846 873 l 846 781 l 982 781 l 982 873 l 846 873 m 700 689 l 700 597 l 836 597 l 836 689 l 700 689 m 846 505 l 846 412 l 982 412 l 982 505 l 846 505 m 700 320 l 700 228 l 836 228 l 836 320 l 700 320 m 846 136 l 846 43 l 982 43 l 982 136 l 846 136 m 998 1058 l 998 966 l 1134 966 l 1134 1058 l 998 1058 m 998 689 l 998 597 l 1134 597 l 1134 689 l 998 689 m 998 320 l 998 228 l 1134 228 l 1134 320 l 998 320 m 836 -146 l 836 -54 l 700 -54 l 700 -146 l 543 -146 l 543 -54 l 407 -54 l 407 -146 l 250 -146 l 250 -54 l 114 -54 l 114 228 l 250 228 l 250 320 l 114 320 l 114 597 l 250 597 l 250 689 l 114 689 l 114 966 l 250 966 l 250 1058 l 114 1058 l 114 1150 l 1270 1150 l 1270 873 l 1134 873 l 1134 781 l 1270 781 l 1270 505 l 1134 505 l 1134 412 l 1270 412 l 1270 136 l 1134 136 l 1134 43 l 1270 43 l 1270 -146 l 1134 -146 l 1134 -54 l 998 -54 l 998 -146 l 836 -146 z "},"▔":{"ha":1389,"x_min":43,"x_max":1340,"o":"m 43 987 l 43 1150 l 1340 1150 l 1340 987 l 43 987 z "},"▕":{"ha":1389,"x_min":1177,"x_max":1340,"o":"m 1177 -146 l 1177 1150 l 1340 1150 l 1340 -146 l 1177 -146 z "},"■":{"ha":1389,"x_min":119,"x_max":1248,"o":"m 119 1074 l 1248 1074 l 1248 -60 l 119 -60 l 119 1074 z "},"□":{"ha":1389,"x_min":119,"x_max":1242,"o":"m 119 1074 l 1242 1074 l 1242 -60 l 119 -60 l 119 1074 m 195 998 l 195 16 l 1166 16 l 1166 998 l 195 998 z "},"▲":{"ha":1389,"x_min":103,"x_max":1280,"o":"m 689 1058 l 1280 -5 l 103 -5 l 689 1058 z "},"△":{"ha":1389,"x_min":98,"x_max":1286,"o":"m 689 1053 l 1286 -5 l 98 -5 l 689 1053 m 228 65 l 1156 65 l 694 901 l 228 65 z "},"▼":{"ha":1389,"x_min":168,"x_max":1221,"o":"m 168 1015 l 1221 1015 l 673 136 l 168 1015 z "},"▽":{"ha":1389,"x_min":152,"x_max":1237,"o":"m 152 1020 l 1237 1020 l 689 125 l 152 1020 m 1145 977 l 233 977 l 689 222 l 1145 977 z "},"◆":{"ha":1389,"x_min":43,"x_max":1329,"o":"m 684 1139 l 1329 505 l 684 -136 l 43 505 l 684 1139 z "},"◇":{"ha":1389,"x_min":60,"x_max":1318,"o":"m 689 1134 l 1318 499 l 694 -125 l 60 505 l 689 1134 m 689 1020 l 174 505 l 689 -11 l 1204 505 l 689 1020 z "},"○":{"ha":1389,"x_min":65,"x_max":1318,"o":"m 684 1150 q 1253 787 1118 1118 q 1308 477 1318 640 q 971 -27 1253 125 q 629 -92 808 -103 q 119 266 271 -38 q 65 543 71 358 q 391 1074 65 884 q 684 1150 548 1150 m 662 1069 q 217 803 353 1031 q 146 510 141 662 q 445 49 141 233 q 716 -11 581 -16 q 1145 239 971 -5 q 1226 581 1237 401 q 901 1025 1177 911 q 662 1069 787 1074 z "},"◎":{"ha":1389,"x_min":71,"x_max":1324,"o":"m 684 1123 q 1221 836 1047 1112 q 1308 450 1324 662 q 928 -71 1286 119 q 640 -114 798 -125 q 146 206 336 -87 q 76 559 71 326 q 418 1063 125 928 q 684 1123 532 1123 m 662 1047 q 206 743 331 1009 q 152 483 152 629 q 461 11 146 195 q 749 -38 570 -43 q 1177 260 993 -27 q 1232 521 1232 358 l 1232 559 q 917 993 1188 873 q 662 1047 830 1042 m 694 906 q 1058 656 971 873 q 1090 456 1096 581 q 765 114 1053 190 l 651 109 q 320 380 391 157 q 298 505 304 423 l 298 515 q 543 879 304 754 q 694 906 624 906 m 678 841 q 401 651 467 819 q 363 494 358 586 q 597 190 401 250 q 732 174 640 168 q 1009 412 949 222 q 1025 543 1031 450 q 727 836 966 792 l 678 841 z "},"●":{"ha":1389,"x_min":60,"x_max":1324,"o":"m 684 1123 q 1221 836 1047 1112 q 1308 450 1324 662 q 971 -49 1253 98 q 640 -114 846 -119 q 114 260 320 -98 q 65 510 71 336 l 65 515 q 423 1063 60 846 q 684 1123 553 1123 z "},"◢":{"ha":1389,"x_min":0,"x_max":1383,"o":"m 1383 1194 l 1383 -190 l 0 -190 l 1383 1194 z "},"◣":{"ha":1389,"x_min":0,"x_max":1383,"o":"m 0 1194 l 1383 -190 l 0 -190 l 0 1194 z "},"◤":{"ha":1389,"x_min":0,"x_max":1383,"o":"m 1383 1194 l 0 -190 l 0 1194 l 1383 1194 z "},"◥":{"ha":1389,"x_min":0,"x_max":1383,"o":"m 0 1194 l 1383 1194 l 1383 -190 l 0 1194 z "},"★":{"ha":1389,"x_min":76,"x_max":1308,"o":"m 1096 -87 l 689 206 l 293 -81 l 439 369 l 76 640 l 537 640 l 694 1096 l 846 640 l 1308 640 l 944 369 l 1096 -87 z "},"☆":{"ha":1389,"x_min":76,"x_max":1308,"o":"m 1096 -87 l 689 206 l 293 -81 l 439 369 l 76 640 l 537 640 l 694 1096 l 846 640 l 1308 640 l 944 369 l 1096 -87 m 857 401 l 1101 581 l 798 581 l 694 868 l 586 581 l 288 581 l 521 401 l 429 103 l 689 298 l 949 109 l 857 401 z "},"☉":{"ha":1389,"x_min":195,"x_max":1210,"o":"m 689 998 q 1123 760 993 987 q 1194 450 1210 629 q 868 33 1166 168 q 640 5 781 -5 q 233 298 336 49 q 195 510 195 385 l 195 515 q 494 960 212 825 q 689 998 553 993 m 673 949 q 288 689 391 917 q 244 488 244 618 q 510 92 271 195 q 743 54 613 43 q 1118 342 1004 87 q 1139 537 1145 423 l 1139 548 q 868 911 1096 825 q 673 949 798 949 m 689 602 q 781 543 765 602 l 787 488 q 684 423 754 412 l 673 423 q 608 515 608 434 q 689 602 608 591 z "},"♀":{"ha":1389,"x_min":298,"x_max":1074,"o":"m 689 1063 q 949 830 911 1042 l 949 760 q 727 537 906 575 l 727 401 l 1074 401 l 1074 326 l 727 326 l 727 -54 l 656 -54 l 656 326 l 298 326 l 298 401 l 656 401 l 656 537 q 434 754 494 548 l 434 814 q 629 1058 450 993 l 689 1063 m 684 987 q 505 825 537 977 l 505 781 q 646 608 526 651 l 722 608 q 879 781 868 656 l 879 825 q 716 987 857 949 l 684 987 z "},"♂":{"ha":1389,"x_min":391,"x_max":998,"o":"m 689 1063 l 998 656 l 971 635 l 727 901 l 727 467 q 944 244 895 429 l 944 168 q 727 -54 911 -16 l 656 -54 q 434 168 467 -22 l 434 222 q 656 467 477 445 l 656 901 l 412 635 l 391 662 l 689 1063 m 684 396 q 505 222 543 396 l 505 195 q 656 22 515 49 l 727 22 q 873 195 863 54 l 873 233 q 716 396 836 363 l 684 396 z "},"⺁":{"ha":1389,"x_min":76,"x_max":1058,"o":"m 342 917 q 334 461 342 586 q 298 193 326 336 q 184 -136 271 49 q 76 -81 141 -103 q 203 236 168 65 q 241 632 239 407 q 233 1004 244 857 q 499 1015 358 1004 q 760 1042 640 1025 q 998 1096 879 1058 q 1058 966 1020 1020 q 735 941 922 960 q 342 917 548 922 z "},"⺄":{"ha":1389,"x_min":174,"x_max":1324,"o":"m 407 911 q 174 901 288 911 l 174 1031 q 401 1025 288 1025 l 998 1025 q 996 537 977 738 q 1042 233 1015 336 q 1115 73 1069 130 q 1175 57 1161 16 q 1194 206 1188 98 q 1324 125 1253 136 q 1185 -122 1270 -136 q 1025 -5 1101 -109 q 911 296 949 98 q 873 911 873 494 l 407 911 z "},"⺈":{"ha":1389,"x_min":71,"x_max":1020,"o":"m 787 640 q 656 662 738 651 q 808 873 738 770 l 456 873 q 184 646 342 760 q 71 727 146 689 q 315 895 212 792 q 483 1118 418 998 q 640 1063 553 1085 q 581 1017 608 1042 q 521 960 553 993 l 1020 960 q 787 640 906 836 z "},"⺋":{"ha":1389,"x_min":217,"x_max":1221,"o":"m 1004 591 q 990 407 993 505 q 979 260 987 309 q 922 190 971 212 q 705 141 873 168 q 656 271 689 201 q 844 282 808 266 q 884 380 879 298 l 884 499 l 326 499 l 326 76 q 439 -11 326 -11 l 960 -11 q 1053 11 1036 -11 q 1085 152 1069 33 q 1221 92 1145 103 q 1145 -68 1177 -33 q 1020 -103 1112 -103 l 363 -103 q 222 33 222 -103 l 222 363 q 217 591 222 494 l 1004 591 z "},"⺌":{"ha":1389,"x_min":190,"x_max":1204,"o":"m 190 879 q 288 949 239 911 q 461 673 369 825 q 358 602 418 640 q 190 879 271 776 m 629 602 q 635 830 635 738 q 629 1036 635 922 l 749 1036 q 743 849 743 960 q 749 602 743 738 l 629 602 m 1025 597 q 928 656 971 635 q 1080 960 1015 787 q 1204 895 1145 922 q 1120 773 1161 852 q 1025 597 1080 694 z "},"⺗":{"ha":1389,"x_min":141,"x_max":1248,"o":"m 353 331 q 461 266 407 293 q 353 130 412 222 q 228 -49 293 38 q 141 11 184 -16 q 353 331 260 141 m 667 532 q 662 380 662 467 l 662 27 q 610 -92 662 -76 q 477 -119 559 -109 q 439 0 467 -54 q 537 3 515 -5 q 559 54 559 11 l 559 391 q 553 532 559 461 l 667 532 m 760 244 q 836 309 792 277 q 1031 49 922 190 q 949 -27 987 16 q 760 244 857 119 m 977 271 q 1053 336 1015 304 q 1248 76 1134 222 q 1166 0 1199 49 q 977 271 1080 141 z "},"⺧":{"ha":1389,"x_min":98,"x_max":1291,"o":"m 369 1096 q 515 1047 445 1063 q 461 977 483 1015 q 412 890 439 939 l 656 890 l 656 971 q 651 1112 656 1031 l 776 1112 q 770 982 770 1036 l 770 890 l 1020 890 q 1161 895 1080 890 l 1161 792 q 1025 798 1080 798 l 770 798 l 770 602 l 1128 602 q 1291 608 1204 602 l 1291 505 q 1134 510 1204 510 l 266 510 q 98 505 179 510 l 98 608 q 260 602 179 602 l 656 602 l 656 798 l 358 798 q 260 662 315 722 q 146 711 222 684 q 274 879 217 781 q 369 1096 331 977 z "},"⺪":{"ha":1389,"x_min":54,"x_max":640,"o":"m 125 1020 q 298 1015 228 1015 l 618 1015 l 618 928 q 461 749 532 852 l 461 564 l 640 564 l 640 477 l 461 477 l 461 179 q 635 222 526 195 q 624 119 624 168 q 307 49 418 81 q 98 -22 195 16 q 54 98 76 49 q 130 109 87 98 l 130 494 q 125 651 130 575 l 239 651 q 228 483 233 597 l 228 125 q 363 152 315 141 l 363 613 q 358 770 363 705 q 488 933 434 852 l 298 933 q 125 928 228 933 l 125 1020 z "},"⺮":{"ha":1389,"x_min":87,"x_max":1297,"o":"m 293 1101 q 423 1042 358 1058 q 353 955 385 1009 l 526 955 q 705 960 635 955 l 705 868 q 559 873 646 873 l 521 873 q 591 705 553 798 q 483 662 532 684 q 418 873 461 770 l 309 873 q 174 662 239 760 q 87 738 136 711 q 203 901 152 803 q 293 1101 255 998 m 884 873 q 781 678 830 760 q 678 722 727 705 q 787 903 743 808 q 857 1096 830 998 q 982 1047 911 1069 q 922 955 944 1004 l 1123 955 q 1297 960 1177 955 l 1297 868 q 1112 873 1199 873 q 1183 705 1150 787 q 1080 662 1128 684 q 1015 873 1053 781 l 884 873 z "},"⺳":{"ha":1389,"x_min":168,"x_max":1204,"o":"m 1204 1036 q 1199 922 1199 982 q 1204 803 1199 863 l 1090 803 l 1090 944 l 288 944 l 288 798 l 168 798 q 174 922 174 863 q 168 1036 174 982 l 1204 1036 m 597 890 q 518 635 581 705 q 309 499 456 564 q 222 608 277 559 q 407 689 342 640 q 477 890 472 738 l 597 890 m 1188 646 q 1150 548 1156 597 l 911 548 q 781 667 781 548 l 781 890 l 890 890 l 890 711 q 971 640 890 640 q 1188 646 1074 640 z "},"⺶":{"ha":1389,"x_min":157,"x_max":1242,"o":"m 570 781 q 581 868 575 814 l 326 868 q 222 863 271 868 l 222 955 q 331 949 271 949 l 559 949 l 776 949 q 846 1134 814 1031 q 960 1101 901 1112 q 909 1025 933 1069 q 868 949 884 982 l 1080 949 q 1183 955 1134 949 l 1183 857 q 1080 868 1134 868 l 678 868 q 667 781 673 808 l 1004 781 q 1112 781 1058 781 l 1112 700 q 1009 700 1058 700 l 651 700 q 629 618 640 640 l 1128 618 q 1242 624 1183 618 l 1242 532 q 1134 537 1183 537 l 602 537 q 458 293 548 396 q 255 103 369 190 q 157 179 206 152 q 339 309 250 233 q 499 537 429 385 l 298 537 q 168 532 239 537 l 168 624 q 293 618 212 618 l 532 618 q 553 700 543 651 l 374 700 q 250 700 309 700 l 250 781 q 374 781 309 781 l 570 781 m 434 1101 q 521 1128 472 1112 q 586 993 559 1053 q 494 960 537 982 q 434 1101 467 1036 z "},"⺷":{"ha":1389,"x_min":103,"x_max":1286,"o":"m 467 901 q 401 1080 445 987 q 505 1123 445 1096 q 575 939 559 977 q 467 901 526 928 m 765 890 q 852 1112 836 1053 q 977 1069 922 1085 q 868 890 933 1020 l 1063 890 q 1237 895 1139 890 l 1237 803 q 1063 808 1145 808 l 738 808 l 738 662 l 966 662 q 1150 667 1047 662 l 1150 575 q 966 581 1053 581 l 738 581 l 738 445 l 1090 445 q 1286 450 1183 445 l 1286 358 q 1090 363 1183 363 l 282 363 q 103 358 195 363 l 103 450 q 282 445 201 445 l 640 445 l 640 581 l 401 581 q 250 575 336 581 l 250 667 q 396 662 336 662 l 640 662 l 640 808 l 336 808 q 174 803 271 808 l 174 895 q 336 890 271 890 l 765 890 z "},"⺻":{"ha":1389,"x_min":76,"x_max":1302,"o":"m 722 705 l 987 705 l 987 770 l 722 770 l 722 705 m 347 494 q 190 488 271 494 l 190 570 q 347 564 271 564 l 624 564 l 624 635 l 412 635 q 266 629 347 635 l 266 711 q 412 705 353 705 l 624 705 l 624 770 l 228 770 q 76 765 163 770 l 76 846 q 239 841 168 841 l 624 841 l 624 911 l 434 911 q 277 906 358 911 l 277 987 q 434 982 358 982 l 624 982 q 618 1112 624 1042 l 727 1112 q 722 982 722 1042 l 1090 982 q 1085 841 1085 906 q 1302 846 1194 841 l 1302 765 q 1085 770 1199 770 q 1090 635 1085 700 l 722 635 l 722 564 l 1009 564 q 1188 570 1101 564 l 1188 488 q 1009 494 1101 494 l 347 494 m 722 841 l 987 841 l 987 911 l 722 911 l 722 841 z "},"⻊":{"ha":1389,"x_min":65,"x_max":618,"o":"m 586 1031 q 581 906 581 966 l 581 760 q 586 651 581 705 l 450 651 l 450 477 q 586 483 521 477 l 586 396 q 450 401 521 401 l 450 119 q 618 168 532 141 q 613 76 613 119 q 250 -33 326 -5 q 114 -87 174 -60 q 65 22 92 -38 q 152 38 109 27 l 152 369 q 146 521 152 439 l 244 521 q 239 380 239 429 l 239 60 q 363 92 309 76 l 363 651 l 146 651 q 152 776 152 716 l 152 906 q 146 1031 152 966 l 586 1031 m 239 727 l 494 727 l 494 955 l 239 955 l 239 727 z "},"⿰":{"ha":1389,"x_min":168,"x_max":1226,"o":"m 266 1036 l 266 1004 l 168 1004 l 168 1036 l 266 1036 m 429 1036 l 429 1004 l 331 1004 l 331 1036 l 429 1036 m 591 1036 l 591 1004 l 494 1004 l 494 1036 l 591 1036 m 754 1036 l 754 1004 l 656 1004 l 656 1036 l 754 1036 m 911 1036 l 911 1004 l 814 1004 l 814 1036 l 911 1036 m 1069 1036 l 1069 1004 l 971 1004 l 971 1036 l 1069 1036 m 1226 1036 l 1226 1004 l 1128 1004 l 1128 1036 l 1226 1036 m 266 5 l 266 -27 l 168 -27 l 168 5 l 266 5 m 423 5 l 423 -27 l 326 -27 l 326 5 l 423 5 m 586 5 l 586 -27 l 488 -27 l 488 5 l 586 5 m 754 5 l 754 -27 l 656 -27 l 656 5 l 754 5 m 917 5 l 917 -27 l 819 -27 l 819 5 l 917 5 m 1074 5 l 1074 -27 l 977 -27 l 977 5 l 1074 5 m 1226 5 l 1226 -27 l 1128 -27 l 1128 5 l 1226 5 m 168 944 l 206 944 l 206 846 l 168 846 l 168 944 m 168 792 l 206 792 l 206 694 l 168 694 l 168 792 m 168 635 l 206 635 l 206 543 l 168 543 l 168 635 m 168 483 l 206 483 l 206 391 l 168 391 l 168 483 m 168 326 l 206 326 l 206 233 l 168 233 l 168 326 m 168 163 l 206 163 l 206 71 l 168 71 l 168 163 m 678 955 l 722 955 l 722 863 l 678 863 l 678 955 m 678 803 l 722 803 l 722 711 l 678 711 l 678 803 m 678 646 l 722 646 l 722 553 l 678 553 l 678 646 m 678 483 l 722 483 l 722 391 l 678 391 l 678 483 m 678 326 l 722 326 l 722 233 l 678 233 l 678 326 m 678 163 l 722 163 l 722 71 l 678 71 l 678 163 m 1188 168 l 1226 168 l 1226 76 l 1188 76 l 1188 168 m 1188 331 l 1226 331 l 1226 239 l 1188 239 l 1188 331 m 1188 488 l 1226 488 l 1226 396 l 1188 396 l 1188 488 m 1188 646 l 1226 646 l 1226 553 l 1188 553 l 1188 646 m 1188 798 l 1226 798 l 1226 705 l 1188 705 l 1188 798 m 1188 949 l 1226 949 l 1226 852 l 1188 852 l 1188 949 z "},"⿱":{"ha":1389,"x_min":168,"x_max":1226,"o":"m 266 1036 l 266 1004 l 168 1004 l 168 1036 l 266 1036 m 429 1036 l 429 1004 l 331 1004 l 331 1036 l 429 1036 m 591 1036 l 591 1004 l 494 1004 l 494 1036 l 591 1036 m 754 1036 l 754 1004 l 656 1004 l 656 1036 l 754 1036 m 911 1036 l 911 1004 l 814 1004 l 814 1036 l 911 1036 m 1069 1036 l 1069 1004 l 971 1004 l 971 1036 l 1069 1036 m 1226 1036 l 1226 1004 l 1128 1004 l 1128 1036 l 1226 1036 m 266 5 l 266 -27 l 168 -27 l 168 5 l 266 5 m 429 5 l 429 -27 l 331 -27 l 331 5 l 429 5 m 591 5 l 591 -27 l 494 -27 l 494 5 l 591 5 m 754 5 l 754 -27 l 656 -27 l 656 5 l 754 5 m 911 5 l 911 -27 l 814 -27 l 814 5 l 911 5 m 1069 5 l 1069 -27 l 971 -27 l 971 5 l 1069 5 m 1226 5 l 1226 -27 l 1128 -27 l 1128 5 l 1226 5 m 347 526 l 347 488 l 250 488 l 250 526 l 347 526 m 510 526 l 510 488 l 412 488 l 412 526 l 510 526 m 673 526 l 673 488 l 570 488 l 570 526 l 673 526 m 830 526 l 830 488 l 732 488 l 732 526 l 830 526 m 987 526 l 987 488 l 890 488 l 890 526 l 987 526 m 1145 526 l 1145 488 l 1047 488 l 1047 526 l 1145 526 m 168 168 l 206 168 l 206 76 l 168 76 l 168 168 m 168 331 l 206 331 l 206 239 l 168 239 l 168 331 m 168 488 l 206 488 l 206 396 l 168 396 l 168 488 m 168 646 l 206 646 l 206 553 l 168 553 l 168 646 m 168 798 l 206 798 l 206 705 l 168 705 l 168 798 m 168 949 l 206 949 l 206 852 l 168 852 l 168 949 m 1188 163 l 1226 163 l 1226 71 l 1188 71 l 1188 163 m 1188 326 l 1226 326 l 1226 233 l 1188 233 l 1188 326 m 1188 483 l 1226 483 l 1226 391 l 1188 391 l 1188 483 m 1188 640 l 1226 640 l 1226 548 l 1188 548 l 1188 640 m 1188 792 l 1226 792 l 1226 700 l 1188 700 l 1188 792 m 1188 944 l 1226 944 l 1226 846 l 1188 846 l 1188 944 z "},"⿲":{"ha":1389,"x_min":168,"x_max":1226,"o":"m 266 1031 l 266 998 l 168 998 l 168 1031 l 266 1031 m 429 1031 l 429 998 l 331 998 l 331 1031 l 429 1031 m 591 1031 l 591 998 l 494 998 l 494 1031 l 591 1031 m 754 1031 l 754 998 l 656 998 l 656 1031 l 754 1031 m 911 1031 l 911 998 l 814 998 l 814 1031 l 911 1031 m 1069 1031 l 1069 998 l 971 998 l 971 1031 l 1069 1031 m 1226 1031 l 1226 998 l 1128 998 l 1128 1031 l 1226 1031 m 266 0 l 266 -33 l 168 -33 l 168 0 l 266 0 m 429 0 l 429 -33 l 331 -33 l 331 0 l 429 0 m 591 0 l 591 -33 l 494 -33 l 494 0 l 591 0 m 754 0 l 754 -33 l 656 -33 l 656 0 l 754 0 m 911 0 l 911 -33 l 814 -33 l 814 0 l 911 0 m 1069 0 l 1069 -33 l 971 -33 l 971 0 l 1069 0 m 1226 0 l 1226 -33 l 1128 -33 l 1128 0 l 1226 0 m 1188 163 l 1226 163 l 1226 71 l 1188 71 l 1188 163 m 1188 326 l 1226 326 l 1226 233 l 1188 233 l 1188 326 m 1188 483 l 1226 483 l 1226 391 l 1188 391 l 1188 483 m 1188 640 l 1226 640 l 1226 548 l 1188 548 l 1188 640 m 1188 792 l 1226 792 l 1226 700 l 1188 700 l 1188 792 m 1188 944 l 1226 944 l 1226 846 l 1188 846 l 1188 944 m 510 157 l 548 157 l 548 65 l 510 65 l 510 157 m 510 320 l 548 320 l 548 228 l 510 228 l 510 320 m 510 477 l 548 477 l 548 385 l 510 385 l 510 477 m 510 635 l 548 635 l 548 543 l 510 543 l 510 635 m 510 787 l 548 787 l 548 694 l 510 694 l 510 787 m 510 939 l 548 939 l 548 841 l 510 841 l 510 939 m 852 157 l 890 157 l 890 60 l 852 60 l 852 157 m 852 315 l 890 315 l 890 222 l 852 222 l 852 315 m 852 472 l 890 472 l 890 380 l 852 380 l 852 472 m 852 629 l 890 629 l 890 537 l 852 537 l 852 629 m 852 787 l 890 787 l 890 689 l 852 689 l 852 787 m 852 933 l 890 933 l 890 841 l 852 841 l 852 933 m 168 157 l 206 157 l 206 60 l 168 60 l 168 157 m 168 315 l 206 315 l 206 222 l 168 222 l 168 315 m 168 472 l 206 472 l 206 380 l 168 380 l 168 472 m 168 629 l 206 629 l 206 537 l 168 537 l 168 629 m 168 787 l 206 787 l 206 689 l 168 689 l 168 787 m 168 933 l 206 933 l 206 841 l 168 841 l 168 933 z "},"⿳":{"ha":1389,"x_min":168,"x_max":1226,"o":"m 266 0 l 266 -33 l 168 -33 l 168 0 l 266 0 m 429 0 l 429 -33 l 331 -33 l 331 0 l 429 0 m 591 0 l 591 -33 l 494 -33 l 494 0 l 591 0 m 754 0 l 754 -33 l 656 -33 l 656 0 l 754 0 m 911 0 l 911 -33 l 814 -33 l 814 0 l 911 0 m 1069 0 l 1069 -33 l 971 -33 l 971 0 l 1069 0 m 1226 0 l 1226 -33 l 1128 -33 l 1128 0 l 1226 0 m 347 347 l 347 309 l 250 309 l 250 347 l 347 347 m 510 347 l 510 309 l 412 309 l 412 347 l 510 347 m 673 347 l 673 309 l 570 309 l 570 347 l 673 347 m 830 347 l 830 309 l 732 309 l 732 347 l 830 347 m 987 347 l 987 309 l 890 309 l 890 347 l 987 347 m 1145 347 l 1145 309 l 1047 309 l 1047 347 l 1145 347 m 250 651 l 250 689 l 347 689 l 347 651 l 250 651 m 510 689 l 510 651 l 412 651 l 412 689 l 510 689 m 673 689 l 673 651 l 570 651 l 570 689 l 673 689 m 830 689 l 830 651 l 732 651 l 732 689 l 830 689 m 987 689 l 987 651 l 890 651 l 890 689 l 987 689 m 1145 689 l 1145 651 l 1047 651 l 1047 689 l 1145 689 m 266 1031 l 266 998 l 168 998 l 168 1031 l 266 1031 m 429 1031 l 429 998 l 331 998 l 331 1031 l 429 1031 m 591 1031 l 591 998 l 494 998 l 494 1031 l 591 1031 m 754 1031 l 754 998 l 656 998 l 656 1031 l 754 1031 m 911 1031 l 911 998 l 814 998 l 814 1031 l 911 1031 m 1069 1031 l 1069 998 l 971 998 l 971 1031 l 1069 1031 m 1226 1031 l 1226 998 l 1128 998 l 1128 1031 l 1226 1031 m 168 157 l 206 157 l 206 65 l 168 65 l 168 157 m 168 320 l 206 320 l 206 228 l 168 228 l 168 320 m 168 477 l 206 477 l 206 385 l 168 385 l 168 477 m 168 635 l 206 635 l 206 543 l 168 543 l 168 635 m 168 787 l 206 787 l 206 694 l 168 694 l 168 787 m 168 939 l 206 939 l 206 841 l 168 841 l 168 939 m 1188 157 l 1226 157 l 1226 60 l 1188 60 l 1188 157 m 1188 315 l 1226 315 l 1226 222 l 1188 222 l 1188 315 m 1188 472 l 1226 472 l 1226 380 l 1188 380 l 1188 472 m 1188 629 l 1226 629 l 1226 537 l 1188 537 l 1188 629 m 1188 787 l 1226 787 l 1226 689 l 1188 689 l 1188 787 m 1188 933 l 1226 933 l 1226 841 l 1188 841 l 1188 933 z "},"⿴":{"ha":1389,"x_min":184,"x_max":1242,"o":"m 1204 157 l 1242 157 l 1242 60 l 1204 60 l 1204 157 m 1204 315 l 1242 315 l 1242 222 l 1204 222 l 1204 315 m 1204 472 l 1242 472 l 1242 380 l 1204 380 l 1204 472 m 1204 629 l 1242 629 l 1242 537 l 1204 537 l 1204 629 m 1204 787 l 1242 787 l 1242 689 l 1204 689 l 1204 787 m 1204 933 l 1242 933 l 1242 841 l 1204 841 l 1204 933 m 184 157 l 222 157 l 222 60 l 184 60 l 184 157 m 184 315 l 222 315 l 222 222 l 184 222 l 184 315 m 184 472 l 222 472 l 222 380 l 184 380 l 184 472 m 184 629 l 222 629 l 222 537 l 184 537 l 184 629 m 184 787 l 222 787 l 222 689 l 184 689 l 184 787 m 184 933 l 222 933 l 222 841 l 184 841 l 184 933 m 418 358 l 456 358 l 456 271 l 418 271 l 418 358 m 418 488 l 456 488 l 456 407 l 418 407 l 418 488 m 418 618 l 456 618 l 456 532 l 418 532 l 418 618 m 418 738 l 456 738 l 456 656 l 418 656 l 418 738 m 282 1031 l 282 998 l 184 998 l 184 1031 l 282 1031 m 445 1031 l 445 998 l 347 998 l 347 1031 l 445 1031 m 608 1031 l 608 998 l 510 998 l 510 1031 l 608 1031 m 770 1031 l 770 998 l 673 998 l 673 1031 l 770 1031 m 928 1031 l 928 998 l 830 998 l 830 1031 l 928 1031 m 1085 1031 l 1085 998 l 987 998 l 987 1031 l 1085 1031 m 1242 1031 l 1242 998 l 1145 998 l 1145 1031 l 1242 1031 m 282 0 l 282 -33 l 184 -33 l 184 0 l 282 0 m 445 0 l 445 -33 l 347 -33 l 347 0 l 445 0 m 608 0 l 608 -33 l 510 -33 l 510 0 l 608 0 m 770 0 l 770 -33 l 673 -33 l 673 0 l 770 0 m 928 0 l 928 -33 l 830 -33 l 830 0 l 928 0 m 1085 0 l 1085 -33 l 987 -33 l 987 0 l 1085 0 m 1242 0 l 1242 -33 l 1145 -33 l 1145 0 l 1242 0 m 515 228 l 515 195 l 418 195 l 418 228 l 515 228 m 689 228 l 689 195 l 586 195 l 586 228 l 689 228 m 857 228 l 857 195 l 760 195 l 760 228 l 857 228 m 1025 228 l 1025 195 l 928 195 l 928 228 l 1025 228 m 987 358 l 1025 358 l 1025 271 l 987 271 l 987 358 m 987 488 l 1025 488 l 1025 407 l 987 407 l 987 488 m 987 618 l 1025 618 l 1025 532 l 987 532 l 987 618 m 987 738 l 1025 738 l 1025 656 l 987 656 l 987 738 m 515 803 l 515 770 l 418 770 l 418 803 l 515 803 m 689 803 l 689 770 l 586 770 l 586 803 l 689 803 m 857 803 l 857 770 l 760 770 l 760 803 l 857 803 m 1025 803 l 1025 770 l 928 770 l 928 803 l 1025 803 z "},"⿵":{"ha":1389,"x_min":168,"x_max":1226,"o":"m 266 1036 l 266 1004 l 168 1004 l 168 1036 l 266 1036 m 429 1036 l 429 1004 l 331 1004 l 331 1036 l 429 1036 m 591 1036 l 591 1004 l 494 1004 l 494 1036 l 591 1036 m 754 1036 l 754 1004 l 656 1004 l 656 1036 l 754 1036 m 911 1036 l 911 1004 l 814 1004 l 814 1036 l 911 1036 m 1069 1036 l 1069 1004 l 971 1004 l 971 1036 l 1069 1036 m 1226 1036 l 1226 1004 l 1128 1004 l 1128 1036 l 1226 1036 m 266 5 l 266 -27 l 168 -27 l 168 5 l 266 5 m 429 5 l 429 -27 l 331 -27 l 331 5 l 429 5 m 591 5 l 591 -27 l 494 -27 l 494 5 l 591 5 m 754 5 l 754 -27 l 656 -27 l 656 5 l 754 5 m 911 5 l 911 -27 l 814 -27 l 814 5 l 911 5 m 1069 5 l 1069 -27 l 971 -27 l 971 5 l 1069 5 m 1226 5 l 1226 -27 l 1128 -27 l 1128 5 l 1226 5 m 537 754 l 537 722 l 456 722 l 456 754 l 537 754 m 673 754 l 673 722 l 586 722 l 586 754 l 673 754 m 803 754 l 803 722 l 727 722 l 727 754 l 803 754 m 939 754 l 939 722 l 857 722 l 857 754 l 939 754 m 168 163 l 206 163 l 206 65 l 168 65 l 168 163 m 168 320 l 206 320 l 206 228 l 168 228 l 168 320 m 168 477 l 206 477 l 206 385 l 168 385 l 168 477 m 168 635 l 206 635 l 206 543 l 168 543 l 168 635 m 168 792 l 206 792 l 206 694 l 168 694 l 168 792 m 168 939 l 206 939 l 206 846 l 168 846 l 168 939 m 1188 163 l 1226 163 l 1226 65 l 1188 65 l 1188 163 m 1188 320 l 1226 320 l 1226 228 l 1188 228 l 1188 320 m 1188 477 l 1226 477 l 1226 385 l 1188 385 l 1188 477 m 1188 635 l 1226 635 l 1226 543 l 1188 543 l 1188 635 m 1188 792 l 1226 792 l 1226 694 l 1188 694 l 1188 792 m 1188 939 l 1226 939 l 1226 846 l 1188 846 l 1188 939 m 456 125 l 494 125 l 494 49 l 456 49 l 456 125 m 456 271 l 494 271 l 494 190 l 456 190 l 456 271 m 456 412 l 494 412 l 494 326 l 456 326 l 456 412 m 456 548 l 494 548 l 494 467 l 456 467 l 456 548 m 456 684 l 494 684 l 494 602 l 456 602 l 456 684 m 901 141 l 939 141 l 939 60 l 901 60 l 901 141 m 901 282 l 939 282 l 939 206 l 901 206 l 901 282 m 901 423 l 939 423 l 939 342 l 901 342 l 901 423 m 901 559 l 939 559 l 939 477 l 901 477 l 901 559 m 901 689 l 939 689 l 939 613 l 901 613 l 901 689 z "},"⿶":{"ha":1389,"x_min":174,"x_max":1232,"o":"m 271 1031 l 271 998 l 174 998 l 174 1031 l 271 1031 m 434 1031 l 434 998 l 336 998 l 336 1031 l 434 1031 m 597 1031 l 597 998 l 499 998 l 499 1031 l 597 1031 m 760 1031 l 760 998 l 662 998 l 662 1031 l 760 1031 m 917 1031 l 917 998 l 819 998 l 819 1031 l 917 1031 m 1074 1031 l 1074 998 l 977 998 l 977 1031 l 1074 1031 m 1232 1031 l 1232 998 l 1134 998 l 1134 1031 l 1232 1031 m 271 0 l 271 -33 l 174 -33 l 174 0 l 271 0 m 434 0 l 434 -33 l 336 -33 l 336 0 l 434 0 m 597 0 l 597 -33 l 499 -33 l 499 0 l 597 0 m 760 0 l 760 -33 l 662 -33 l 662 0 l 760 0 m 917 0 l 917 -33 l 819 -33 l 819 0 l 917 0 m 1074 0 l 1074 -33 l 977 -33 l 977 0 l 1074 0 m 1232 0 l 1232 -33 l 1134 -33 l 1134 0 l 1232 0 m 586 282 l 586 250 l 521 250 l 521 282 l 586 282 m 689 282 l 689 250 l 629 250 l 629 282 l 689 282 m 792 282 l 792 250 l 732 250 l 732 282 l 792 282 m 895 282 l 895 250 l 836 250 l 836 282 l 895 282 m 1194 157 l 1232 157 l 1232 65 l 1194 65 l 1194 157 m 1194 320 l 1232 320 l 1232 228 l 1194 228 l 1194 320 m 1194 477 l 1232 477 l 1232 385 l 1194 385 l 1194 477 m 1194 635 l 1232 635 l 1232 543 l 1194 543 l 1194 635 m 1194 787 l 1232 787 l 1232 694 l 1194 694 l 1194 787 m 1194 939 l 1232 939 l 1232 841 l 1194 841 l 1194 939 m 174 157 l 212 157 l 212 60 l 174 60 l 174 157 m 174 315 l 212 315 l 212 222 l 174 222 l 174 315 m 174 472 l 212 472 l 212 380 l 174 380 l 174 472 m 174 629 l 212 629 l 212 537 l 174 537 l 174 629 m 174 787 l 212 787 l 212 689 l 174 689 l 174 787 m 174 933 l 212 933 l 212 841 l 174 841 l 174 933 m 467 342 l 505 342 l 505 250 l 467 250 l 467 342 m 467 499 l 505 499 l 505 407 l 467 407 l 467 499 m 467 656 l 505 656 l 505 564 l 467 564 l 467 656 m 467 808 l 505 808 l 505 716 l 467 716 l 467 808 m 467 955 l 505 955 l 505 863 l 467 863 l 467 955 m 906 342 l 944 342 l 944 250 l 906 250 l 906 342 m 906 499 l 944 499 l 944 407 l 906 407 l 906 499 m 906 656 l 944 656 l 944 564 l 906 564 l 906 656 m 906 808 l 944 808 l 944 716 l 906 716 l 906 808 m 906 955 l 944 955 l 944 863 l 906 863 l 906 955 z "},"⿷":{"ha":1389,"x_min":163,"x_max":1221,"o":"m 260 1031 l 260 998 l 163 998 l 163 1031 l 260 1031 m 423 1031 l 423 998 l 326 998 l 326 1031 l 423 1031 m 586 1031 l 586 998 l 488 998 l 488 1031 l 586 1031 m 749 1031 l 749 998 l 651 998 l 651 1031 l 749 1031 m 906 1031 l 906 998 l 808 998 l 808 1031 l 906 1031 m 1063 1031 l 1063 998 l 966 998 l 966 1031 l 1063 1031 m 1221 1031 l 1221 998 l 1123 998 l 1123 1031 l 1221 1031 m 260 0 l 260 -33 l 163 -33 l 163 0 l 260 0 m 423 0 l 423 -33 l 326 -33 l 326 0 l 423 0 m 586 0 l 586 -33 l 488 -33 l 488 0 l 586 0 m 749 0 l 749 -33 l 651 -33 l 651 0 l 749 0 m 906 0 l 906 -33 l 808 -33 l 808 0 l 906 0 m 1063 0 l 1063 -33 l 966 -33 l 966 0 l 1063 0 m 1221 0 l 1221 -33 l 1123 -33 l 1123 0 l 1221 0 m 532 738 l 532 705 l 456 705 l 456 738 l 532 738 m 662 738 l 662 705 l 581 705 l 581 738 l 662 738 m 776 738 l 776 705 l 705 705 l 705 738 l 776 738 m 901 738 l 901 705 l 825 705 l 825 738 l 901 738 m 1025 738 l 1025 705 l 944 705 l 944 738 l 1025 738 m 1145 738 l 1145 705 l 1069 705 l 1069 738 l 1145 738 m 532 288 l 532 255 l 456 255 l 456 288 l 532 288 m 662 288 l 662 255 l 581 255 l 581 288 l 662 288 m 792 288 l 792 255 l 711 255 l 711 288 l 792 288 m 906 288 l 906 255 l 836 255 l 836 288 l 906 288 m 1036 288 l 1036 255 l 955 255 l 955 288 l 1036 288 m 1150 288 l 1150 255 l 1074 255 l 1074 288 l 1150 288 m 163 157 l 201 157 l 201 65 l 163 65 l 163 157 m 163 320 l 201 320 l 201 228 l 163 228 l 163 320 m 163 477 l 201 477 l 201 385 l 163 385 l 163 477 m 163 635 l 201 635 l 201 543 l 163 543 l 163 635 m 163 787 l 201 787 l 201 694 l 163 694 l 163 787 m 163 939 l 201 939 l 201 841 l 163 841 l 163 939 m 1183 157 l 1221 157 l 1221 60 l 1183 60 l 1183 157 m 1183 315 l 1221 315 l 1221 222 l 1183 222 l 1183 315 m 1183 472 l 1221 472 l 1221 380 l 1183 380 l 1183 472 m 1183 629 l 1221 629 l 1221 537 l 1183 537 l 1183 629 m 1183 787 l 1221 787 l 1221 689 l 1183 689 l 1183 787 m 1183 933 l 1221 933 l 1221 841 l 1183 841 l 1183 933 m 456 401 l 494 401 l 494 320 l 456 320 l 456 401 m 456 537 l 494 537 l 494 461 l 456 461 l 456 537 m 456 678 l 494 678 l 494 597 l 456 597 l 456 678 z "},"⿸":{"ha":1389,"x_min":163,"x_max":1221,"o":"m 260 1031 l 260 998 l 163 998 l 163 1031 l 260 1031 m 423 1031 l 423 998 l 326 998 l 326 1031 l 423 1031 m 586 1031 l 586 998 l 488 998 l 488 1031 l 586 1031 m 749 1031 l 749 998 l 651 998 l 651 1031 l 749 1031 m 906 1031 l 906 998 l 808 998 l 808 1031 l 906 1031 m 1063 1031 l 1063 998 l 966 998 l 966 1031 l 1063 1031 m 1221 1031 l 1221 998 l 1123 998 l 1123 1031 l 1221 1031 m 260 0 l 260 -33 l 163 -33 l 163 0 l 260 0 m 423 0 l 423 -33 l 326 -33 l 326 0 l 423 0 m 586 0 l 586 -33 l 488 -33 l 488 0 l 586 0 m 749 0 l 749 -33 l 651 -33 l 651 0 l 749 0 m 906 0 l 906 -33 l 808 -33 l 808 0 l 906 0 m 1063 0 l 1063 -33 l 966 -33 l 966 0 l 1063 0 m 1221 0 l 1221 -33 l 1123 -33 l 1123 0 l 1221 0 m 526 749 l 526 716 l 456 716 l 456 749 l 526 749 m 651 749 l 651 716 l 570 716 l 570 749 l 651 749 m 776 749 l 776 716 l 700 716 l 700 749 l 776 749 m 901 749 l 901 716 l 825 716 l 825 749 l 901 749 m 1025 749 l 1025 716 l 939 716 l 939 749 l 1025 749 m 1139 749 l 1139 716 l 1074 716 l 1074 749 l 1139 749 m 163 157 l 201 157 l 201 60 l 163 60 l 163 157 m 163 315 l 201 315 l 201 222 l 163 222 l 163 315 m 163 472 l 201 472 l 201 380 l 163 380 l 163 472 m 163 629 l 201 629 l 201 537 l 163 537 l 163 629 m 163 787 l 201 787 l 201 689 l 163 689 l 163 787 m 163 933 l 201 933 l 201 841 l 163 841 l 163 933 m 1183 157 l 1221 157 l 1221 65 l 1183 65 l 1183 157 m 1183 320 l 1221 320 l 1221 228 l 1183 228 l 1183 320 m 1183 477 l 1221 477 l 1221 385 l 1183 385 l 1183 477 m 1183 635 l 1221 635 l 1221 543 l 1183 543 l 1183 635 m 1183 787 l 1221 787 l 1221 694 l 1183 694 l 1183 787 m 1183 939 l 1221 939 l 1221 841 l 1183 841 l 1183 939 m 456 125 l 494 125 l 494 38 l 456 38 l 456 125 m 456 266 l 494 266 l 494 190 l 456 190 l 456 266 m 456 412 l 494 412 l 494 326 l 456 326 l 456 412 m 456 553 l 494 553 l 494 472 l 456 472 l 456 553 m 456 684 l 494 684 l 494 591 l 456 591 l 456 684 z "},"⿹":{"ha":1389,"x_min":163,"x_max":1221,"o":"m 260 1036 l 260 1004 l 163 1004 l 163 1036 l 260 1036 m 423 1036 l 423 1004 l 326 1004 l 326 1036 l 423 1036 m 586 1036 l 586 1004 l 488 1004 l 488 1036 l 586 1036 m 749 1036 l 749 1004 l 651 1004 l 651 1036 l 749 1036 m 906 1036 l 906 1004 l 808 1004 l 808 1036 l 906 1036 m 1063 1036 l 1063 1004 l 966 1004 l 966 1036 l 1063 1036 m 1221 1036 l 1221 1004 l 1123 1004 l 1123 1036 l 1221 1036 m 260 5 l 260 -27 l 163 -27 l 163 5 l 260 5 m 423 5 l 423 -27 l 326 -27 l 326 5 l 423 5 m 586 5 l 586 -27 l 488 -27 l 488 5 l 586 5 m 749 5 l 749 -27 l 651 -27 l 651 5 l 749 5 m 906 5 l 906 -27 l 808 -27 l 808 5 l 906 5 m 1063 5 l 1063 -27 l 966 -27 l 966 5 l 1063 5 m 1221 5 l 1221 -27 l 1123 -27 l 1123 5 l 1221 5 m 326 760 l 326 727 l 233 727 l 233 760 l 326 760 m 477 760 l 477 727 l 385 727 l 385 760 l 477 760 m 635 760 l 635 727 l 543 727 l 543 760 l 635 760 m 781 760 l 781 727 l 689 727 l 689 760 l 781 760 m 933 760 l 933 727 l 841 727 l 841 760 l 933 760 m 1183 163 l 1221 163 l 1221 65 l 1183 65 l 1183 163 m 1183 320 l 1221 320 l 1221 228 l 1183 228 l 1183 320 m 1183 477 l 1221 477 l 1221 385 l 1183 385 l 1183 477 m 1183 635 l 1221 635 l 1221 543 l 1183 543 l 1183 635 m 1183 792 l 1221 792 l 1221 694 l 1183 694 l 1183 792 m 1183 939 l 1221 939 l 1221 846 l 1183 846 l 1183 939 m 163 163 l 201 163 l 201 65 l 163 65 l 163 163 m 163 320 l 201 320 l 201 228 l 163 228 l 163 320 m 163 477 l 201 477 l 201 385 l 163 385 l 163 477 m 163 635 l 201 635 l 201 543 l 163 543 l 163 635 m 163 792 l 201 792 l 201 694 l 163 694 l 163 792 m 163 939 l 201 939 l 201 846 l 163 846 l 163 939 m 895 119 l 933 119 l 933 38 l 895 38 l 895 119 m 895 266 l 933 266 l 933 184 l 895 184 l 895 266 m 895 407 l 933 407 l 933 320 l 895 320 l 895 407 m 895 548 l 933 548 l 933 467 l 895 467 l 895 548 m 895 689 l 933 689 l 933 602 l 895 602 l 895 689 z "},"⿺":{"ha":1389,"x_min":179,"x_max":1237,"o":"m 277 1042 l 277 1009 l 179 1009 l 179 1042 l 277 1042 m 439 1042 l 439 1009 l 342 1009 l 342 1042 l 439 1042 m 602 1042 l 602 1009 l 505 1009 l 505 1042 l 602 1042 m 765 1042 l 765 1009 l 667 1009 l 667 1042 l 765 1042 m 922 1042 l 922 1009 l 825 1009 l 825 1042 l 922 1042 m 1080 1042 l 1080 1009 l 982 1009 l 982 1042 l 1080 1042 m 1237 1042 l 1237 1009 l 1139 1009 l 1139 1042 l 1237 1042 m 277 11 l 277 -22 l 179 -22 l 179 11 l 277 11 m 439 11 l 439 -22 l 342 -22 l 342 11 l 439 11 m 602 11 l 602 -22 l 505 -22 l 505 11 l 602 11 m 765 11 l 765 -22 l 667 -22 l 667 11 l 765 11 m 922 11 l 922 -22 l 825 -22 l 825 11 l 922 11 m 1080 11 l 1080 -22 l 982 -22 l 982 11 l 1080 11 m 1237 11 l 1237 -22 l 1139 -22 l 1139 11 l 1237 11 m 543 293 l 543 260 l 467 260 l 467 293 l 543 293 m 667 293 l 667 260 l 591 260 l 591 293 l 667 293 m 792 293 l 792 260 l 716 260 l 716 293 l 792 293 m 911 293 l 911 260 l 841 260 l 841 293 l 911 293 m 1036 293 l 1036 260 l 955 260 l 955 293 l 1036 293 m 1156 293 l 1156 260 l 1080 260 l 1080 293 l 1156 293 m 179 168 l 217 168 l 217 71 l 179 71 l 179 168 m 179 326 l 217 326 l 217 233 l 179 233 l 179 326 m 179 483 l 217 483 l 217 391 l 179 391 l 179 483 m 179 640 l 217 640 l 217 548 l 179 548 l 179 640 m 179 798 l 217 798 l 217 700 l 179 700 l 179 798 m 179 944 l 217 944 l 217 852 l 179 852 l 179 944 m 1199 168 l 1237 168 l 1237 76 l 1199 76 l 1199 168 m 1199 331 l 1237 331 l 1237 239 l 1199 239 l 1199 331 m 1199 488 l 1237 488 l 1237 396 l 1199 396 l 1199 488 m 1199 646 l 1237 646 l 1237 553 l 1199 553 l 1199 646 m 1199 798 l 1237 798 l 1237 705 l 1199 705 l 1199 798 m 1199 949 l 1237 949 l 1237 852 l 1199 852 l 1199 949 m 467 412 l 505 412 l 505 326 l 467 326 l 467 412 m 467 553 l 505 553 l 505 472 l 467 472 l 467 553 m 467 694 l 505 694 l 505 613 l 467 613 l 467 694 m 467 836 l 505 836 l 505 749 l 467 749 l 467 836 m 467 971 l 505 971 l 505 884 l 467 884 l 467 971 z "},"⿻":{"ha":1389,"x_min":184,"x_max":1204,"o":"m 255 1009 l 255 977 l 184 977 l 184 1009 l 255 1009 m 380 1009 l 380 977 l 304 977 l 304 1009 l 380 1009 m 505 1009 l 505 977 l 429 977 l 429 1009 l 505 1009 m 618 1009 l 618 977 l 548 977 l 548 1009 l 618 1009 m 738 1009 l 738 977 l 667 977 l 667 1009 l 738 1009 m 857 1009 l 857 977 l 781 977 l 781 1009 l 857 1009 m 977 1009 l 977 977 l 901 977 l 901 1009 l 977 1009 m 488 27 l 488 -5 l 412 -5 l 412 27 l 488 27 m 613 27 l 613 -5 l 537 -5 l 537 27 l 613 27 m 732 27 l 732 -5 l 662 -5 l 662 27 l 732 27 m 852 27 l 852 -5 l 776 -5 l 776 27 l 852 27 m 971 27 l 971 -5 l 895 -5 l 895 27 l 971 27 m 1090 27 l 1090 -5 l 1015 -5 l 1015 27 l 1090 27 m 1204 27 l 1204 -5 l 1134 -5 l 1134 27 l 1204 27 m 250 255 l 250 217 l 184 217 l 184 255 l 250 255 m 385 255 l 385 217 l 304 217 l 304 255 l 385 255 m 505 255 l 505 217 l 429 217 l 429 255 l 505 255 m 618 255 l 618 217 l 553 217 l 553 255 l 618 255 m 732 255 l 732 217 l 667 217 l 667 255 l 732 255 m 857 255 l 857 217 l 776 217 l 776 255 l 857 255 m 977 255 l 977 217 l 906 217 l 906 255 l 977 255 m 477 787 l 477 749 l 412 749 l 412 787 l 477 787 m 586 787 l 586 749 l 521 749 l 521 787 l 586 787 m 694 787 l 694 749 l 624 749 l 624 787 l 694 787 m 798 787 l 798 749 l 727 749 l 727 787 l 798 787 m 901 787 l 901 749 l 830 749 l 830 787 l 901 787 m 1204 787 l 1204 749 l 1118 749 l 1118 787 l 1204 787 m 1074 787 l 1074 749 l 993 749 l 993 787 l 1074 787 m 1166 141 l 1204 141 l 1204 54 l 1166 54 l 1166 141 m 1166 288 l 1204 288 l 1204 206 l 1166 206 l 1166 288 m 1166 429 l 1204 429 l 1204 347 l 1166 347 l 1166 429 m 1166 575 l 1204 575 l 1204 488 l 1166 488 l 1166 575 m 1166 716 l 1204 716 l 1204 629 l 1166 629 l 1166 716 m 184 369 l 222 369 l 222 282 l 184 282 l 184 369 m 184 515 l 222 515 l 222 429 l 184 429 l 184 515 m 184 662 l 222 662 l 222 575 l 184 575 l 184 662 m 184 803 l 222 803 l 222 716 l 184 716 l 184 803 m 184 944 l 222 944 l 222 852 l 184 852 l 184 944 m 933 369 l 977 369 l 977 277 l 933 277 l 933 369 m 933 521 l 977 521 l 977 429 l 933 429 l 933 521 m 933 662 l 977 662 l 977 575 l 933 575 l 933 662 m 933 808 l 977 808 l 977 722 l 933 722 l 933 808 m 933 949 l 977 949 l 977 863 l 933 863 l 933 949 m 412 353 l 456 353 l 456 277 l 412 277 l 412 353 m 412 477 l 456 477 l 456 401 l 412 401 l 412 477 m 412 608 l 456 608 l 456 526 l 412 526 l 412 608 m 412 732 l 456 732 l 456 651 l 412 651 l 412 732 m 412 114 l 456 114 l 456 49 l 412 49 l 412 114 m 412 206 l 456 206 l 456 136 l 412 136 l 412 206 z "},"　":{"ha":1389,"x_min":0,"x_max":0,"o":""},"、":{"ha":1389,"x_min":201,"x_max":505,"o":"m 374 -60 q 201 315 288 152 l 288 358 q 505 5 396 206 l 374 -60 z "},"。":{"ha":1389,"x_min":179,"x_max":515,"o":"m 494 212 q 505 182 494 212 q 499 95 515 152 q 439 8 483 38 q 336 -22 396 -22 q 228 27 277 -22 q 179 133 179 76 q 206 233 179 190 q 290 298 233 277 q 410 296 347 320 q 494 212 472 271 m 396 60 q 420 76 396 60 q 442 149 445 92 q 388 233 439 206 q 290 228 336 260 q 244 141 244 195 q 296 57 244 87 q 396 60 347 27 z "},"〃":{"ha":1389,"x_min":439,"x_max":933,"o":"m 618 754 l 727 700 l 494 320 l 439 342 l 618 754 m 825 678 l 933 624 l 700 250 l 646 271 l 825 678 z "},"々":{"ha":1389,"x_min":212,"x_max":1156,"o":"m 553 982 q 694 922 629 939 q 581 738 640 852 l 1058 738 l 1156 673 l 852 201 l 977 92 l 890 11 q 537 282 727 168 l 483 309 l 553 401 q 760 271 651 353 q 993 635 890 456 l 526 635 q 315 288 461 494 q 212 353 266 320 q 553 982 385 553 z "},"〆":{"ha":1389,"x_min":179,"x_max":1194,"o":"m 1107 1025 l 1194 960 l 1194 955 l 803 559 l 879 494 l 798 396 l 722 477 q 260 -60 521 260 l 179 5 l 309 483 q 515 694 358 667 q 727 629 608 716 l 1107 1025 m 515 597 q 293 146 347 581 l 646 543 q 515 597 597 597 z "},"〇":{"ha":1389,"x_min":125,"x_max":1259,"o":"m 1107 871 q 1183 791 1107 871 q 1248 480 1259 711 q 1085 106 1237 250 q 697 -38 933 -38 q 304 106 461 -38 q 136 483 146 250 q 304 887 125 716 q 719 1044 483 1058 q 1107 871 955 1031 m 385 819 q 315 754 385 819 q 250 494 244 689 q 382 184 255 298 q 694 65 510 71 q 1004 182 879 60 q 1128 499 1128 304 q 1004 819 1128 694 q 703 947 879 944 q 385 819 526 949 z "},"〈":{"ha":1389,"x_min":689,"x_max":1161,"o":"m 1096 1150 l 1161 1107 l 787 499 l 1161 -98 l 1096 -141 l 689 505 l 1096 1150 z "},"〉":{"ha":1389,"x_min":217,"x_max":689,"o":"m 288 1150 l 689 499 l 293 -141 l 217 -98 l 597 505 l 217 1107 l 288 1150 z "},"《":{"ha":1389,"x_min":689,"x_max":1291,"o":"m 1004 1161 l 1074 1134 l 776 499 l 1074 -119 l 1004 -146 l 689 505 l 1004 1161 m 1221 1161 l 1291 1134 l 987 499 l 1291 -119 l 1221 -146 l 901 505 l 1221 1161 z "},"》":{"ha":1389,"x_min":92,"x_max":689,"o":"m 163 1161 l 467 499 l 163 -146 l 92 -119 l 391 505 l 92 1134 l 163 1161 m 374 1161 l 689 499 l 374 -146 l 304 -119 l 613 505 l 304 1134 l 374 1161 z "},"「":{"ha":1389,"x_min":689,"x_max":1118,"o":"m 1118 1161 l 1118 1074 l 776 1074 l 776 -16 l 689 -16 l 689 1161 l 1118 1161 z "},"」":{"ha":1389,"x_min":255,"x_max":689,"o":"m 689 1025 l 689 -157 l 255 -157 l 255 -71 l 602 -71 l 602 1025 l 689 1025 z "},"『":{"ha":1389,"x_min":689,"x_max":1118,"o":"m 1118 1161 l 1118 977 l 873 977 l 873 -16 l 689 -16 l 689 1161 l 1118 1161 m 738 27 l 825 27 l 825 1025 l 1069 1025 l 1069 1112 l 738 1112 l 738 27 z "},"』":{"ha":1389,"x_min":255,"x_max":689,"o":"m 689 1025 l 689 -157 l 255 -157 l 255 38 l 499 38 l 499 1025 l 689 1025 m 548 -11 l 304 -11 l 304 -109 l 646 -109 l 646 977 l 548 977 l 548 -11 z "},"【":{"ha":1389,"x_min":684,"x_max":1188,"o":"m 1183 -87 l 684 -87 l 684 1090 l 1188 1090 q 901 513 911 792 q 1183 -87 890 233 z "},"】":{"ha":1389,"x_min":190,"x_max":684,"o":"m 195 1090 l 684 1090 l 684 -87 l 190 -87 q 467 496 456 222 q 195 1090 477 770 z "},"〒":{"ha":1389,"x_min":92,"x_max":1286,"o":"m 92 1053 l 1286 1053 l 1286 955 l 92 955 l 92 1053 m 92 743 l 1286 743 l 1286 646 l 743 646 l 743 -103 l 646 -103 l 646 646 l 92 646 l 92 743 z "},"〓":{"ha":1389,"x_min":109,"x_max":1275,"o":"m 1275 336 l 1275 -27 l 109 -27 l 109 336 l 1275 336 m 1275 1031 l 1275 667 l 109 667 l 109 1031 l 1275 1031 z "},"〔":{"ha":1389,"x_min":689,"x_max":1069,"o":"m 1025 1161 l 1069 1080 l 776 906 l 776 98 l 1069 -76 l 1025 -152 l 689 49 l 689 966 l 1025 1161 z "},"〕":{"ha":1389,"x_min":309,"x_max":689,"o":"m 353 1161 l 689 966 l 689 43 l 353 -152 l 309 -76 l 613 98 l 613 906 l 309 1085 l 353 1161 z "},"〖":{"ha":1389,"x_min":656,"x_max":1237,"o":"m 656 -87 l 656 1090 l 1232 1090 q 1025 852 1112 982 q 911 613 939 722 q 911 393 884 505 q 1015 160 939 282 q 1237 -87 1090 38 l 656 -87 m 1096 -33 q 941 179 1015 49 q 849 439 868 309 q 895 722 830 570 q 1101 1036 960 873 l 711 1036 l 711 -33 l 1096 -33 z "},"〗":{"ha":1389,"x_min":152,"x_max":722,"o":"m 722 1090 l 722 -76 l 157 -76 q 358 163 277 33 q 467 401 439 293 q 467 616 494 510 q 369 844 439 722 q 152 1090 298 966 l 722 1090 m 288 1036 q 442 825 374 955 q 529 570 510 694 q 488 293 548 445 q 288 -22 429 141 l 667 -22 l 667 1036 l 288 1036 z "},"〝":{"ha":1389,"x_min":792,"x_max":1280,"o":"m 1107 1112 l 1280 694 l 1226 678 l 998 1058 l 1107 1112 m 895 1036 l 1080 629 l 1025 608 l 792 982 l 895 1036 z "},"〞":{"ha":1389,"x_min":92,"x_max":586,"o":"m 271 1112 l 380 1058 l 146 678 l 92 700 l 271 1112 m 477 1036 l 586 982 l 353 608 l 298 629 l 477 1036 z "},"〡":{"ha":1389,"x_min":629,"x_max":781,"o":"m 640 1090 l 722 1090 q 754 1058 781 1090 l 738 1042 l 738 -87 q 629 -98 738 -114 l 629 1085 l 640 1090 z "},"〢":{"ha":1389,"x_min":391,"x_max":1118,"o":"m 998 1107 l 1074 1107 l 1118 1096 q 1090 1058 1118 1080 l 1090 -92 q 993 -103 1090 -119 l 993 1101 l 998 1107 m 401 966 l 477 966 l 515 955 q 494 917 521 933 l 494 38 q 391 33 488 11 l 391 960 l 401 966 z "},"〣":{"ha":1389,"x_min":222,"x_max":1221,"o":"m 1101 1118 l 1177 1118 l 1215 1107 q 1194 1069 1221 1085 l 1194 -92 q 1090 -103 1188 -119 l 1090 1112 l 1101 1118 m 228 1080 l 309 1080 l 347 1074 q 326 1031 353 1053 l 326 -60 q 222 -71 320 -87 l 222 1080 l 228 1080 m 662 998 l 738 998 l 776 987 q 754 949 781 966 l 754 27 q 651 22 749 0 l 651 993 l 662 998 z "},"〤":{"ha":1389,"x_min":228,"x_max":1112,"o":"m 711 515 q 987 1090 890 776 q 1096 1036 1042 1053 q 977 781 1063 955 q 787 445 890 608 q 1112 125 960 288 q 1025 43 1058 87 q 732 358 868 228 q 288 -81 586 146 q 228 5 271 -33 q 656 429 439 146 q 271 727 472 591 q 331 803 298 749 q 711 515 505 689 z "},"〥":{"ha":1389,"x_min":228,"x_max":1188,"o":"m 1112 1123 l 1188 1096 q 749 651 1107 819 q 1085 326 1004 559 l 1090 222 q 770 -109 1031 -16 q 635 -119 738 -119 q 304 136 369 -76 q 564 640 228 401 q 458 741 483 705 q 423 825 434 776 q 586 1025 412 917 l 646 960 q 553 901 586 933 q 510 836 521 868 q 651 689 499 781 q 1112 1123 1020 857 m 662 597 q 412 347 537 521 q 380 228 380 293 q 640 -33 391 33 q 977 157 841 -54 q 998 298 1004 206 q 662 597 949 499 z "},"〦":{"ha":1389,"x_min":92,"x_max":1308,"o":"m 662 1090 l 732 1090 q 749 1036 803 1085 l 749 738 l 1291 738 q 1291 656 1308 711 l 92 656 l 92 738 l 651 738 l 651 1085 l 662 1090 z "},"〧":{"ha":1389,"x_min":92,"x_max":1308,"o":"m 749 570 l 1291 570 q 1291 488 1308 543 l 92 488 l 92 570 l 749 570 m 662 1090 l 732 1090 q 749 1036 803 1085 l 749 792 l 1291 792 q 1291 711 1308 765 l 92 711 l 92 792 l 651 792 l 651 1085 l 662 1090 z "},"〨":{"ha":1389,"x_min":92,"x_max":1308,"o":"m 749 380 l 1291 380 q 1291 298 1308 353 l 92 298 l 92 380 l 749 380 m 749 597 l 1291 597 q 1291 515 1308 570 l 92 515 l 92 597 l 749 597 m 662 1090 l 732 1090 q 749 1036 803 1085 l 749 819 l 1291 819 q 1291 738 1308 792 l 92 738 l 92 819 l 651 819 l 651 1085 l 662 1090 z "},"〩":{"ha":1389,"x_min":146,"x_max":1232,"o":"m 591 1128 q 700 1074 640 1090 q 553 825 646 987 l 1134 825 l 1232 830 l 1232 727 l 1194 732 l 1107 732 q 868 315 1036 548 q 1156 76 1009 206 q 1058 -5 1096 49 q 798 239 863 190 q 206 -130 575 33 q 146 -38 190 -92 q 480 119 304 11 q 711 304 656 228 q 423 515 543 445 q 472 597 456 553 q 781 380 662 467 q 993 738 906 532 l 673 738 l 505 738 q 298 450 396 564 q 222 510 260 494 q 591 1128 434 749 z "},"〾":{"ha":1389,"x_min":168,"x_max":1226,"o":"m 266 1036 l 266 1004 l 168 1004 l 168 1036 l 266 1036 m 429 1036 l 429 1004 l 331 1004 l 331 1036 l 429 1036 m 591 1036 l 591 1004 l 494 1004 l 494 1036 l 591 1036 m 754 1036 l 754 1004 l 656 1004 l 656 1036 l 754 1036 m 911 1036 l 911 1004 l 814 1004 l 814 1036 l 911 1036 m 1069 1036 l 1069 1004 l 971 1004 l 971 1036 l 1069 1036 m 1226 1036 l 1226 1004 l 1128 1004 l 1128 1036 l 1226 1036 m 266 5 l 266 -27 l 168 -27 l 168 5 l 266 5 m 429 5 l 429 -27 l 331 -27 l 331 5 l 429 5 m 591 5 l 591 -27 l 494 -27 l 494 5 l 591 5 m 754 5 l 754 -27 l 656 -27 l 656 5 l 754 5 m 911 5 l 911 -27 l 814 -27 l 814 5 l 911 5 m 1069 5 l 1069 -27 l 971 -27 l 971 5 l 1069 5 m 1226 5 l 1226 -27 l 1128 -27 l 1128 5 l 1226 5 m 168 163 l 206 163 l 206 65 l 168 65 l 168 163 m 168 320 l 206 320 l 206 228 l 168 228 l 168 320 m 168 477 l 206 477 l 206 385 l 168 385 l 168 477 m 168 635 l 206 635 l 206 543 l 168 543 l 168 635 m 168 792 l 206 792 l 206 694 l 168 694 l 168 792 m 168 939 l 206 939 l 206 846 l 168 846 l 168 939 m 1188 163 l 1226 163 l 1226 65 l 1188 65 l 1188 163 m 1188 320 l 1226 320 l 1226 228 l 1188 228 l 1188 320 m 1188 477 l 1226 477 l 1226 385 l 1188 385 l 1188 477 m 1188 635 l 1226 635 l 1226 543 l 1188 543 l 1188 635 m 1188 792 l 1226 792 l 1226 694 l 1188 694 l 1188 792 m 1188 939 l 1226 939 l 1226 846 l 1188 846 l 1188 939 m 776 586 l 825 564 l 770 488 l 949 488 l 949 450 l 749 450 l 700 380 l 949 380 l 949 342 l 673 342 l 597 233 l 559 255 l 618 342 l 445 342 l 445 380 l 646 380 l 689 450 l 445 450 l 445 488 l 716 488 l 776 586 m 960 727 q 871 670 922 694 q 776 648 819 646 q 673 684 732 651 q 578 713 613 716 q 461 646 543 711 l 429 678 q 518 743 488 727 q 586 762 548 760 q 689 730 624 765 q 803 700 754 694 q 928 770 852 705 l 960 727 z "},"ぁ":{"ha":1389,"x_min":326,"x_max":1069,"o":"m 613 781 l 689 781 l 667 667 q 922 722 787 673 l 922 635 q 656 581 846 608 l 640 461 q 781 472 673 477 l 803 515 l 884 499 l 868 461 q 1069 266 1042 412 l 1069 195 q 754 -49 1063 38 l 716 33 q 987 206 928 43 l 987 255 q 830 391 971 353 l 716 212 l 662 146 l 684 71 l 624 49 l 602 92 q 472 27 559 54 l 423 27 q 331 174 326 43 q 559 445 336 342 l 575 581 l 385 586 l 385 667 l 586 662 l 613 781 m 738 396 l 640 380 q 646 250 624 326 q 743 396 673 271 l 738 396 m 553 347 q 423 217 483 320 q 434 109 391 163 q 575 174 467 76 q 553 347 553 244 z "},"あ":{"ha":1389,"x_min":212,"x_max":1210,"o":"m 586 1074 l 689 1069 l 667 917 q 987 982 792 922 l 1004 987 l 1009 879 q 646 803 884 836 l 629 651 q 814 662 689 673 l 841 722 l 944 694 l 928 651 q 1188 439 1139 591 q 1199 277 1210 363 q 776 -38 1161 49 l 722 65 q 987 157 857 71 q 1090 353 1090 228 q 873 553 1074 488 q 732 326 814 434 l 656 228 l 689 125 l 602 87 l 570 157 q 407 71 505 98 l 336 65 q 212 255 212 76 q 521 624 228 499 l 537 803 l 277 808 l 277 917 l 543 911 l 553 911 l 586 1074 m 754 559 l 624 543 q 629 363 608 461 q 765 559 694 434 l 754 559 m 505 494 q 380 401 456 472 q 315 244 315 331 q 363 174 315 195 q 537 266 461 174 q 510 494 515 331 l 505 494 z "},"ぃ":{"ha":1389,"x_min":244,"x_max":1053,"o":"m 374 705 l 450 673 q 412 336 418 515 l 423 201 q 467 114 429 157 l 488 109 q 537 260 521 125 l 618 212 q 559 60 613 163 l 515 11 l 467 5 q 374 705 244 114 m 868 602 q 1053 190 1004 472 l 955 174 q 808 548 944 358 l 792 564 l 868 602 z "},"い":{"ha":1389,"x_min":136,"x_max":1210,"o":"m 309 977 l 423 939 q 363 591 380 781 q 374 304 342 477 q 429 201 380 255 q 461 190 439 184 q 526 385 505 217 l 635 320 q 543 92 613 206 q 450 49 510 43 l 439 49 q 309 971 136 195 l 309 977 m 966 846 q 1210 298 1161 624 l 1085 277 q 884 770 1058 537 l 868 792 l 966 846 z "},"ぅ":{"ha":1389,"x_min":391,"x_max":971,"o":"m 510 776 q 873 738 662 732 l 868 662 q 553 684 711 656 l 510 700 l 510 776 m 722 537 q 955 401 901 537 q 966 277 971 358 q 575 -76 906 43 l 532 11 q 857 222 743 60 q 879 326 884 271 l 879 336 q 711 456 857 456 q 391 369 586 450 l 391 461 q 640 532 499 505 l 722 537 z "},"う":{"ha":1389,"x_min":293,"x_max":1074,"o":"m 445 1069 q 933 1015 662 1004 l 922 911 q 553 933 754 906 l 445 966 l 445 1069 m 738 743 q 1053 548 993 738 q 1069 401 1074 488 q 537 -76 1004 92 l 477 43 q 830 217 678 92 q 939 374 890 260 q 944 472 949 396 q 722 635 933 629 q 293 515 532 618 l 293 640 q 597 732 418 689 l 738 743 z "},"ぇ":{"ha":1389,"x_min":304,"x_max":1047,"o":"m 532 765 q 852 743 640 738 l 852 667 q 553 678 738 662 l 521 689 l 532 765 m 830 602 l 901 510 q 656 304 792 439 q 760 277 732 326 q 781 87 770 277 q 944 60 770 43 l 1047 76 l 1047 -16 l 814 -22 l 727 -5 q 689 201 667 -5 l 689 212 q 656 228 689 228 q 369 -5 543 228 l 304 60 q 760 488 439 233 q 439 434 624 456 l 396 434 l 396 521 q 830 602 602 521 z "},"え":{"ha":1389,"x_min":184,"x_max":1210,"o":"m 488 1063 q 933 1031 635 1025 l 933 928 q 581 939 781 922 l 472 955 l 488 1063 m 911 841 l 1009 716 q 684 456 890 635 l 662 423 q 803 401 760 461 q 830 130 830 363 q 1085 92 814 54 q 1210 119 1139 98 l 1210 -11 q 819 -16 1150 -33 q 711 92 738 -22 l 716 298 q 667 320 700 326 q 266 5 499 320 l 184 87 q 819 689 450 401 q 326 608 581 629 l 309 608 l 309 732 q 911 841 591 732 z "},"ぉ":{"ha":1389,"x_min":326,"x_max":1085,"o":"m 532 738 l 613 738 l 613 591 q 765 635 662 597 l 770 640 l 770 553 l 613 515 l 613 369 q 1015 271 879 445 q 1047 125 1053 212 q 873 -33 998 -22 q 738 -16 808 -43 l 722 -5 l 754 65 q 836 49 787 49 q 966 136 944 54 l 966 179 q 629 298 901 369 l 613 288 l 608 38 q 532 -54 602 -22 l 494 -54 q 342 125 385 0 l 342 146 q 521 331 326 222 l 532 342 l 532 505 q 347 499 450 494 l 347 581 l 472 575 l 521 575 q 532 608 537 575 l 532 738 m 532 255 q 445 190 488 233 q 423 146 429 174 l 423 136 q 488 38 418 103 l 510 38 q 532 168 543 33 l 532 255 m 917 667 q 1063 548 977 635 l 1085 526 l 1025 472 l 879 597 l 863 608 l 917 667 z "},"お":{"ha":1389,"x_min":217,"x_max":1226,"o":"m 586 1042 l 586 841 q 803 911 689 857 l 803 798 l 635 749 l 586 738 l 586 543 q 1085 477 879 635 q 1166 228 1183 380 q 1061 57 1139 103 q 895 11 982 11 q 732 49 808 11 l 776 146 q 925 122 836 114 q 1058 239 1015 130 l 1058 293 q 667 467 998 521 l 586 439 l 581 114 q 477 -16 570 27 l 434 -16 q 217 250 255 65 q 477 510 233 396 l 477 732 q 228 722 450 722 l 228 830 q 477 825 271 814 l 477 1047 l 586 1042 m 477 396 q 388 334 429 369 q 331 266 347 298 q 331 195 315 233 q 391 122 347 157 q 458 100 434 87 q 477 293 483 114 l 477 396 m 998 949 q 1226 754 1053 922 l 1145 678 q 917 868 993 825 l 998 949 z "},"か":{"ha":1389,"x_min":152,"x_max":1248,"o":"m 586 1025 l 548 781 q 727 770 640 798 q 852 391 879 705 q 819 212 846 315 q 581 -11 754 5 l 494 -16 l 456 103 l 553 98 q 743 526 760 130 q 662 673 743 646 l 581 684 l 526 673 q 244 -11 461 326 l 152 60 q 407 656 326 309 q 201 597 342 646 l 201 732 l 434 770 l 467 1042 l 586 1025 m 982 830 q 1248 255 1145 613 l 1139 228 q 1042 494 1096 369 q 884 770 987 618 l 982 830 z "},"が":{"ha":1389,"x_min":92,"x_max":1308,"o":"m 1199 1069 q 1308 933 1237 1036 l 1237 879 q 1128 1020 1210 933 l 1199 1069 m 521 1025 l 483 781 l 635 781 q 787 391 808 765 q 743 163 781 277 q 439 -16 684 -11 l 401 103 l 494 103 q 678 532 689 119 q 635 665 678 635 q 461 673 591 694 q 184 -11 396 315 l 92 60 q 342 656 266 315 q 141 597 228 640 l 141 732 l 369 770 l 407 1042 l 521 1025 m 1069 949 q 1172 808 1107 917 l 1107 754 q 998 901 1080 814 l 1069 949 m 911 825 q 1188 271 1074 586 l 1085 228 q 825 770 987 510 l 911 825 z "}}}
